<?xml version="1.0" standalone="no"?>
<!DOCTYPE svg PUBLIC "-//W3C//DTD SVG 1.1//EN" "http://www.w3.org/Graphics/SVG/1.1/DTD/svg11.dtd" >
<svg xmlns="http://www.w3.org/2000/svg" xmlns:xlink="http://www.w3.org/1999/xlink" version="1.1">
<metadata>
Created by FontForge 20200306 at Wed Oct  8 16:39:10 2014
 By convertio
chiphead
</metadata>
<defs>
<font id="cinecaption" horiz-adv-x="1024" vert-adv-y="1024" >
  <font-face 
    font-family="cinecaption"
    font-weight="400"
    font-variant="small-caps"
    font-stretch="normal"
    units-per-em="1024"
    panose-1="2 0 6 0 0 0 0 0 0 0"
    ascent="880"
    descent="-144"
    x-height="370"
    cap-height="654"
    bbox="-2 -224.356 1025 881"
    underline-thickness="48"
    underline-position="-120"
    unicode-range="U+0020-FFE5"
  />
<missing-glyph 
d="M402 258v220h220v-220h-220z" />
    <glyph glyph-name=".notdef" 
d="M402 258v220h220v-220h-220z" />
    <glyph glyph-name="glyph1" horiz-adv-x="0" 
 />
    <glyph glyph-name="space" unicode=" " horiz-adv-x="512" 
 />
    <glyph glyph-name="exclam" unicode="!" horiz-adv-x="512" 
d="M305 747l-106 -552q-6 -30 30 -43q35 -6 43 30l105 550q10 38 -28 47q-39 10 -44 -32zM131 -37q-14 -86 42 -97q55 -7 70 78q13 89 -41 98q-57 6 -71 -79z" />
    <glyph glyph-name="quotedbl" unicode="&#x22;" horiz-adv-x="512" 
d="M393 782q-38 17 -61 -21q-58 -126 -92 -270q-2 -46 34 -52q46 -5 58 35q30 130 84 246q18 45 -23 62zM237 786q-40 17 -63 -21q-55 -130 -92 -274q-3 -48 40 -52t52 37q30 128 84 248q17 37 -21 62z" />
    <glyph glyph-name="numbersign" unicode="#" horiz-adv-x="512" 
d="M465 586h-72l22 194q3 39 -35 43q-39 0 -41 -32l-21 -205h-94l17 195q5 40 -33 42q-41 3 -43 -32l-17 -205h-69q-36 0 -38 -37q3 -39 37 -40h60l-25 -291h-67q-34 0 -38 -38q2 -38 37 -38h59l-26 -242q-3 -34 34 -40q32 -4 43 35l26 247h96l-25 -243q-4 -28 33 -39
q35 -3 43 36l26 246h79q38 0 38 38q-1 39 -39 38h-73l29 291h79q35 1 37 39q-2 38 -39 38zM283 218h-93l25 291h96z" />
    <glyph glyph-name="dollar" unicode="$" horiz-adv-x="512" 
d="M460 213q-61 116 -176 164v286q58 -9 77.5 -64.5t12.5 -118.5q4 -34 38 -38q36 0 38 39q11 90 -30 171t-136 87v34q0 39 -38 39q-33 0 -38 -38v-35q-134 -26 -173 -174q-31 -134 88 -200q37 -21 85 -35v-320q-12 3 -45.5 21t-45 70.5t44.5 133.5q24 29 -4 52
q-31 28 -54 -5q-78 -103 -61 -188.5t73 -120t92 -40.5v-34q0 -35 38 -39q38 1 38 40v33q75 10 130 65q94 101 46 215zM208 405q-25 6 -58 26q-29 16 -39.5 49.5t-3.5 65.5q26 93 101 115v-256zM362 50q-37 -33 -78 -41v282q69 -35 110 -114q27 -71 -32 -127z" />
    <glyph glyph-name="percent" unicode="%" horiz-adv-x="512" 
d="M13 489q0 -62 27 -122t102 -69q72 3 104 66t32 125q0 66 -32 123t-104 66q-72 0 -100.5 -63.5t-28.5 -125.5zM89 489q-4 36 9 74t44 38q34 -4 45 -39.5t11 -72.5q0 -33 -12.5 -72.5t-43.5 -42.5q-33 9 -43 46t-10 69zM247 57q0 -62 29.5 -124.5t98.5 -66.5
q73 4 104.5 66.5t27.5 124.5q4 66 -27.5 125t-104.5 68q-69 -1 -98.5 -64t-29.5 -129zM323 57q-4 36 8.5 77t43.5 39q32 0 44 -39.5t12 -76.5q0 -33 -12 -73.5t-44 -40.5q-27 0 -39.5 42.5t-12.5 71.5zM428 641l-414 -707q-15 -33 14 -52q36 -21 53 13l414 707q19 29 -14 52
q-36 21 -53 -13z" />
    <glyph glyph-name="ampersand" unicode="&#x26;" horiz-adv-x="512" 
d="M137 768q-66 -66 -62 -198q4 -156 73 -291q-146 -128 -133.5 -263.5t100.5 -151.5q72 -16 123 41t76 112q30 -37 118 -132q24 -20 52 0q27 28 0 57q-75 77 -132 156q21 64 36 115l25 -25q24 -27 52 0q28 31 0 58l-72 67q-19 16 -39.5 11t-26.5 -30q-15 -67 -33 -119
q-27 39 -51 86q104 122 115 283q0 134 -45.5 193t-93.5 61t-82 -30zM151 570q-3 99 39 138q10 12 30.5 12t41 -34.5t20.5 -138.5q-11 -121 -74 -210q-53 107 -57 233zM138 -64q-41 4 -48.5 88.5t96.5 184.5q33 -60 76 -125q-28 -66 -60 -108.5t-64 -39.5z" />
    <glyph glyph-name="quotesingle" unicode="'" horiz-adv-x="512" 
d="M72 693q1 57 52 57q54 0 55 -57q-4 -135 -91 -149q52 67 37 97q-53 1 -53 52z" />
    <glyph glyph-name="parenleft" unicode="(" horiz-adv-x="512" 
d="M352 843q-76 -37 -166 -156t-90 -329.5t90 -328.5t167 -160q27 -16 49 9q14 35 -20 57q-62 37 -135.5 138t-73.5 283t73.5 283.5t136.5 134.5q30 14 18 51q-15 33 -49 18z" />
    <glyph glyph-name="parenright" unicode=")" horiz-adv-x="512" 
d="M160 -133q76 37 166.5 155.5t90.5 329.5t-90.5 329t-167.5 160q-27 16 -49 -9q-14 -35 20 -57q62 -37 136 -138t74 -283.5t-74 -283.5t-137 -134q-30 -14 -18 -51q15 -33 49 -18z" />
    <glyph glyph-name="asterisk" unicode="*" horiz-adv-x="512" 
d="M460 255l-132 81l132 81q32 24 14 53q-24 28 -53 10l-127 -74v139q-1 38 -38 38q-38 0 -38 -38v-140l-127 75q-30 22 -52 -10q-20 -29 14 -53l131 -82l-132 -81q-33 -14 -14 -50q17 -31 53 -12l127 79v-147q0 -37 39 -38q36 1 37 37v145l126 -75q30 -19 54 9
q19 32 -14 53z" />
    <glyph glyph-name="plus" unicode="+" horiz-adv-x="512" 
d="M465 362h-173v177q0 37 -39 37q-37 0 -37 -38v-176h-168q-39 0 -39 -38q1 -39 37 -39h170v-174q0 -39 38 -39q38 1 38 37v176h174q36 0 37 40q-1 37 -38 37z" />
    <glyph glyph-name="comma" unicode="," horiz-adv-x="512" 
d="M72 9q1 57 52 57q54 0 55 -57q-4 -135 -91 -149q52 67 37 97q-53 1 -53 52z" />
    <glyph glyph-name="hyphen" unicode="-" horiz-adv-x="512" 
d="M117 395q-34 0 -38 -38q2 -39 37 -39h280q38 0 37 39q-1 38 -39 38h-277z" />
    <glyph glyph-name="period" unicode="." horiz-adv-x="512" 
d="M72 -43q1 57 52 57q54 0 55 -57q-1 -51 -54 -52q-53 1 -53 52z" />
    <glyph glyph-name="slash" unicode="/" horiz-adv-x="512" 
d="M370 695l-284 -763q-13 -33 20 -49q34 -15 51 21l281 767q14 36 -22 48q-37 12 -46 -24z" />
    <glyph glyph-name="zero" unicode="0" horiz-adv-x="512" 
d="M48 259q0 -125 43 -257t178.5 -135t174 132t35.5 260q7 172 -33.5 314t-180 142t-180.5 -142t-37 -314zM125 259q-1 148 23 260t117.5 112t117 -112t19.5 -260q0 -101 -23.5 -204t-113.5 -103t-113.5 103t-26.5 204z" />
    <glyph glyph-name="one" unicode="1" horiz-adv-x="512" 
d="M268 703q-53 -45 -125 -109q-26 -27 -1 -53q26 -25 53 -4q37 30 58 46v-678q0 -36 37 -38q39 1 39 38v770q2 23 -18 35t-43 -7z" />
    <glyph glyph-name="two" unicode="2" horiz-adv-x="512" 
d="M196 709q-99 -37 -121 -99q-31 -93 4 -192q19 -33 51 -22q34 19 20 52q-26 69 -4 132q15 33 74 53q74 9 92 -19q66 -148 -41 -269q-6 -11 -22 -26q-78 -83 -131.5 -176.5t-46.5 -182.5t118 -93h232q42 0 42 34q-1 42 -38 42h-237q-59 0 -30 99.5t149 229.5q11 15 22 26
q139 163 46 358q-53 78 -179 53z" />
    <glyph glyph-name="three" unicode="3" horiz-adv-x="512" 
d="M252 723q-103 -7 -146 -112t28 -201q23 -23 51 -13q29 23 14 56q-48 64 -24.5 123.5t86.5 70.5q40 1 80.5 -28t36 -106.5t-101.5 -127.5q-27 -9 -30 -27.5t15 -32.5q116 -113 129 -198.5t-14 -130.5t-104 -53t-111.5 66.5t20.5 172.5q13 32 -20 50q-30 16 -47 -15
q-81 -139 -16 -248.5t186 -100t158 86t25.5 173t-116.5 212.5q98 75 103.5 170.5t-48.5 153.5t-154 59z" />
    <glyph glyph-name="four" unicode="4" horiz-adv-x="512" 
d="M268 715l-229 -530q-6 -14 0.5 -33t31.5 -19h193v-228q2 -37 38 -38q38 -1 38 39v227h102q37 5 37 37q-1 39 -38 39h-101v492q0 29 -19 36t-33.5 0t-19.5 -22zM264 514v-305h-119z" />
    <glyph glyph-name="five" unicode="5" horiz-adv-x="512" 
d="M87 720q-33 0 -38 -37l-11 -419q0 -31 33 -37q38 -3 43 32q8 37 25 65q50 64 129 64q69 2 97.5 -55t29.5 -120.5t-21.5 -136.5t-60 -105t-93.5 -29t-85 56.5t-36 110.5q-10 32 -42 32q-35 -3 -34 -43q11 -81 57.5 -156.5t147 -77t152.5 57t81.5 184.5t-24 241t-173.5 117
q-93 0 -147 -52l5 232h255q38 4 38 37q-2 39 -38 39h-290z" />
    <glyph glyph-name="six" unicode="6" horiz-adv-x="512" 
d="M118 656q-90 -95 -96.5 -292.5t18 -323.5t142 -163.5t216.5 65.5t74 266.5t-193 179.5q-104 11 -182 -47q-6 139 74 264q37 44 98.5 41t102.5 -55t34 -132q-2 -35 33 -42q39 2 43 35q8 111 -55 187.5t-155.5 81t-153.5 -64.5zM100 184q-1 138 174 129q36 -4 76.5 -29
t53.5 -117t-57.5 -169t-145 -50t-89 114.5t-12.5 121.5z" />
    <glyph glyph-name="seven" unicode="7" horiz-adv-x="512" 
d="M82 720q-38 0 -38 -37v-258q0 -35 38 -37q38 1 38 38v218h247q-111 -282 -130.5 -492t-15.5 -256q6 -28 43 -29q30 0 33 42q7 396 161 759q10 20 -1.5 36t-32.5 16h-342z" />
    <glyph glyph-name="eight" unicode="8" horiz-adv-x="512" 
d="M123 688q-71 -56 -69 -176.5t100 -172.5q-128 -73 -126 -247t197 -225q107 -13 176.5 53.5t73.5 182.5q-4 175 -140 248q91 63 94.5 172t-48 160.5t-124 53.5t-134.5 -49zM177 418q-49 35 -49 104.5t43 108.5q39 32 81.5 30t73.5 -33t29 -85t-27.5 -94.5t-67.5 -51.5
q-41 -9 -83 21zM230 -61q-35 4 -79.5 39t-46 110t35 141.5t108.5 59.5q138 -3 147 -190q-6 -88 -53.5 -126t-111.5 -34z" />
    <glyph glyph-name="nine" unicode="9" horiz-adv-x="512" 
d="M458 524q0 90 -59 150.5t-145 60.5t-143 -60.5t-55 -148.5t55.5 -160.5t146.5 -81.5q39 0 68 16l-137 -386q-10 -29 25 -47q32 -14 48 24q196 571 196 633zM258 360q-54 5 -89 58t-37 108t32 94t88.5 43t91.5 -35t39 -79t-24 -123q0 -1 -16 -28.5t-85 -37.5z" />
    <glyph glyph-name="colon" unicode=":" horiz-adv-x="512" 
d="M299 469q-2 -44 -41 -45q-45 1 -45 45q0 41 45 40q40 1 41 -40zM299 129q-2 -40 -41 -41q-45 1 -45 41q0 41 45 40q40 1 41 -40z" />
    <glyph glyph-name="semicolon" unicode=";" horiz-adv-x="512" 
d="M299 469q-2 -40 -41 -41q-45 1 -45 41q0 41 45 40q40 1 41 -40zM230 -48q19 59 17 131q-38 0 -39 37q2 37 39 40q58 5 57 -72t-74 -136z" />
    <glyph glyph-name="less" unicode="&#x3c;" horiz-adv-x="512" 
d="M399 -78q35 20 14 52l-242 364l238 361q24 36 -12 55q-27 16 -50 -13l-257 -386q-12 -18 0 -38l258 -382q18 -31 51 -13z" />
    <glyph glyph-name="equal" unicode="=" horiz-adv-x="512" 
d="M64 476q-37 0 -38 -40q2 -37 37 -37h386q35 0 37 38q-1 39 -38 39h-384zM64 251q-38 0 -38 -39q1 -38 37 -38h386q36 0 37 39q-1 38 -38 38h-384z" />
    <glyph glyph-name="greater" unicode="&#x3e;" horiz-adv-x="512" 
d="M115 752q-35 -19 -14 -53l240 -363l-238 -361q-24 -35 12 -55q27 -16 50 13l257 385q12 18 0 37l-256 384q-18 31 -51 13z" />
    <glyph glyph-name="question" unicode="?" horiz-adv-x="512" 
d="M196 760q-123 -44 -148.5 -141.5t43.5 -194.5q20 -19 52 -4q26 22 9 52q-39 50 -28.5 118t105.5 104q56 16 81 -15q68 -101 -14 -191q-134 -175 -132.5 -259t74.5 -151q32 -18 51 6q24 33 -5 52q-38 29 -39 88.5t104 212.5q121 139 28 280q-57 76 -181 43zM174 -50
q1 -88 64 -86t64 86q-2 80 -64 81q-62 0 -64 -81z" />
    <glyph glyph-name="at" unicode="@" horiz-adv-x="512" 
d="M126 630q-138 -110 -122 -384q-5 -297 176 -364q122 -44 224 27q29 29 5 53q-24 27 -53 4q-67 -42 -145 -17q-132 48 -132 297q-11 244 100 329q35 24 77 30q75 4 117 -56q63 -99 56 -217q0 -104 -23 -209q-7 -43 -18.5 -30.5t-18.5 86.5q-22 165 -33 329q0 23 -16 27
q-35 46 -97 29q-66 -40 -90 -129q-36 -163 -13 -330q8 -54 46 -105q27 -32 68 -14q44 32 57.5 81t13.5 71q3 -45 25 -91t54 -54q46 8 66.5 42t28.5 69q26 114 26 224q11 148 -70 268q-66 86 -175 86q-75 -6 -134 -52zM185 208q4 108 26 211q11 47 24.5 59.5t23.5 8.5
q8 -218 -14.5 -317t-32 -97.5t-18.5 40.5t-9 95z" />
    <glyph glyph-name="A" unicode="A" horiz-adv-x="512" 
d="M463 -61h-17q-72 368 -133 751q-3 32 -38.5 32t-42.5 -39q-75 -371 -167 -740h-16q-39 0 -38 -39q2 -38 37 -38h100q37 0 37 37q-2 40 -38 40q26 109 30 127h89q37 0 37 38q-1 38 -39 38h-68q48 222 73 343q47 -281 97 -550h-12q-37 0 -38 -38q3 -38 37 -38h111
q38 0 37 39q0 37 -38 37z" />
    <glyph glyph-name="B" unicode="B" horiz-adv-x="512" 
d="M384 332q-20 16 -22 17q43 15 87 61q47 55 47 122q-9 100 -120.5 160.5t-321.5 39.5q-38 -7 -33 -43q8 -34 42 -33q19 3 25 3v-716q-9 0 -32 4q-34 0 -39 -39q-2 -29 32 -37q219 -30 384 100q62 56 57 166t-106 195zM382 608q38 -25 38 -76q0 -42 -31 -73
q-77 -66 -224 -68v271q114 9 217 -54zM378 19q-80 -71 -213 -78v373q113 -2 171 -43q76 -62 79.5 -138.5t-37.5 -113.5z" />
    <glyph glyph-name="C" unicode="C" horiz-adv-x="512" 
d="M460 51q-34 8 -46 -29q-39 -87 -147.5 -64t-133.5 147.5t-22.5 225.5t28 192t124 113.5t144.5 -101.5q13 -31 48 -23q31 10 24 48l-31 166q-7 35 -47 28q-35 -8 -29 -43l4 -20q-54 44 -146 27.5t-146 -92.5t-60 -281t54 -335t206.5 -142.5t201.5 138.5q8 37 -26 45z" />
    <glyph glyph-name="D" unicode="D" horiz-adv-x="512" 
d="M498 118v360q0 127 -74.5 187t-160.5 62h-212q-34 0 -37 -39q2 -38 37 -38h29v-711h-26q-37 0 -38 -37q0 -39 37 -39h215q93 0 161.5 73.5t68.5 181.5zM422 118q0 -80 -48 -129.5t-106 -49.5h-112v711h108q62 -7 110 -44.5t48 -127.5v-360z" />
    <glyph glyph-name="E" unicode="E" horiz-adv-x="512" 
d="M450 -13q-34 0 -39 -36v-12h-251v317h180v-12q1 -35 38 -37q38 3 38 39v108q0 36 -37 38q-39 -1 -39 -37v-23h-180v315h248v-15q0 -37 37 -38q39 5 39 38v49q0 42 -38 42h-380q-38 0 -39 -37q1 -39 38 -39h19v-708h-22q-35 0 -38 -38q0 -38 37 -38h390q37 0 37 39v48
q0 37 -38 37z" />
    <glyph glyph-name="F" unicode="F" horiz-adv-x="512" 
d="M456 740q-33 0 -38 -37v-15h-361q-36 0 -38 -40q2 -37 38 -37h33v-672h-26q-36 0 -38 -37q1 -39 37 -39h119q36 0 37 39q-2 37 -38 37h-14v327h130v-26q0 -38 38 -38q39 0 39 38v120q0 38 -39 38q-38 -1 -38 -37v-19h-130v269h251v-26q0 -34 38 -37q38 5 38 38v116
q0 38 -38 38z" />
    <glyph glyph-name="G" unicode="G" horiz-adv-x="512" 
d="M467 238h-147q-36 0 -38 -39q1 -37 38 -37h56v-165q-40 -73 -135 -42t-118 141.5t-23 212t20.5 194t107.5 121.5q51 7 88.5 -29t56.5 -83q10 -27 42 -24q36 7 30 44q-12 74 -30 169q-4 34 -44 29q-40 -9 -33 -43q4 -20 3 -15q-44 39 -127 28q-100 -18 -146 -118.5
t-48 -281.5t59.5 -304.5t197 -128.5t175.5 122v173h15q35 0 38 37q-2 39 -38 39z" />
    <glyph glyph-name="H" unicode="H" horiz-adv-x="512" 
d="M440 -61v697q39 1 41 37q-1 40 -38 40h-79q-37 0 -38 -40q2 -37 38 -37v0v-269h-218v269q40 0 42 38q-1 39 -38 39h-79q-36 0 -39 -40q5 -32 38 -37v0v-694q-29 -1 -30 -41q5 -33 37 -38h74q35 0 37 39q0 37 -42 39v350h218v-352q-41 -1 -42 -37q2 -39 37 -39h81
q37 0 38 38q-1 37 -38 38z" />
    <glyph glyph-name="I" unicode="I" horiz-adv-x="512" 
d="M322 -61h-30v711h35q36 0 37 39q0 37 -38 37h-139q-38 -1 -39 -38q4 -33 37 -38h31v-711h-26q-38 0 -38 -39q2 -37 38 -37h132q36 0 38 37q-2 39 -38 39z" />
    <glyph glyph-name="J" unicode="J" horiz-adv-x="512" 
d="M444 734h-127q-37 0 -39 -38q5 -34 38 -38h26v-548q-3 -89 -33 -130t-74 -41t-86.5 49.5t-42.5 125.5q-2 38 -39 38q-36 1 -37 -33q0 -109 64.5 -182.5t141 -72t128 65.5t54.5 180v548h27q36 0 37 39q0 37 -38 37z" />
    <glyph glyph-name="K" unicode="K" horiz-adv-x="512" 
d="M463 -63h-22l-294 421l248 285h12q37 0 38 38q0 38 -38 38h-98q-38 0 -38 -39q3 -37 25 -37l-152 -171v171h8q36 0 37 37q0 39 -38 39h-102q-37 0 -38 -39q5 -33 37 -37h20v-706h-19q-35 1 -38 -38q0 -37 37 -38h112q35 0 37 38q0 39 -38 38h-15v294l205 -294
q-20 -1 -22 -38q5 -34 38 -38h98q37 0 38 37q0 39 -38 39z" />
    <glyph glyph-name="L" unicode="L" horiz-adv-x="512" 
d="M462 58q-39 0 -38 -37q6 -82 -50 -82h-224v690h11q38 0 38 37q-1 39 -38 39h-106q-37 0 -38 -39q5 -33 38 -37h19v-690q-33 0 -34 -39q5 -33 38 -37h301q133 0 121 161q1 33 -38 34z" />
    <glyph glyph-name="M" unicode="M" horiz-adv-x="512" 
d="M473 -63v735q0 34 -33 38t-43 -27l-143 -401l-143 415q-11 34 -43.5 29t-32.5 -41v-748q-25 0 -25 -34q0 -40 41 -40h44q43 0 43 36q0 39 -27 38v543l106 -325q9 -26 36 -26.5t35 27.5l108 319v-538q-31 1 -32 -37q3 -37 48 -37h45q43 0 45 38q-1 37 -29 36z" />
    <glyph glyph-name="N" unicode="N" horiz-adv-x="512" 
d="M456 726h-87q-38 0 -38 -39q3 -37 42 -37v-589l-244 625q-15 35 -44 27t-29 -39v-735q-35 0 -37 -39q5 -33 38 -37h79q36 0 38 37q-1 39 -41 39v517l241 -567q14 -31 44.5 -26.5t30.5 42.5v745q45 0 45 37q-1 39 -38 39z" />
    <glyph glyph-name="O" unicode="O" horiz-adv-x="512" 
d="M24 279q0 -125 47 -269.5t185 -143.5t185 144.5t43 268.5q4 180 -42 314.5t-186 134.5t-188 -134.5t-44 -314.5zM100 279q4 155 31.5 262t122.5 111t124.5 -107t29.5 -266q0 -101 -30.5 -214.5t-123.5 -116.5t-121.5 113.5t-32.5 217.5z" />
    <glyph glyph-name="P" unicode="P" horiz-adv-x="512" 
d="M494 490q-1 86 -115.5 164t-321.5 58q-35 2 -35 -43q4 -33 37 -33h27v-697h-29q-36 0 -38 -39q1 -36 38 -37h131q36 1 39 38q-1 39 -39 38h-25v324q144 -10 237 58.5t94 168.5zM368 394q-91 -65 -205 -54v296q117 4 186 -47t66.5 -105t-47.5 -90z" />
    <glyph glyph-name="Q" unicode="Q" horiz-adv-x="512" 
d="M494 -71l-88 131q29 119 29 266t-36.5 279.5t-173.5 132.5t-177 -129t-40 -308q-4 -125 46 -277t165 -158.5t155 102.5l53 -82q21 -33 57 -8q24 23 10 51zM226 -64q-124 38 -138 365q4 345 112 358t131.5 -98.5t25 -228.5t-15.5 -186q-13 23 -40 63q-24 35 -59 16
q-30 -14 -11 -54l78 -119q-2 -44 -26.5 -80.5t-56.5 -35.5z" />
    <glyph glyph-name="R" unicode="R" horiz-adv-x="512" 
d="M454 -60h-23l-242 327q102 6 184 84q59 66 55 163q0 76 -100.5 148.5t-268.5 58.5q-33 0 -35 -38q0 -35 39 -35h14v-711h-18q-35 0 -39 -37q2 -39 38 -39h107q37 5 37 38q0 38 -39 38h-10v253l185 -254q-20 2 -20 -33q0 -38 37 -39h100q35 0 37 39q0 37 -38 37zM352 491
q3 -50 -36 -88q-68 -65 -163 -61v303q87 0 143 -47t56 -107z" />
    <glyph glyph-name="S" unicode="S" horiz-adv-x="512" 
d="M444 165q-56 137 -183 191t-145.5 96t-8 83.5t42 78t88.5 40.5t94.5 -56.5t30.5 -148.5q-3 -33 37 -36q33 0 37 36q15 105 -36 194t-147 89t-156 -51t-71 -157t59 -156t156 -83t133 -152q33 -83 -41 -149.5t-150 -29.5t-76 105t51 139q21 30 -6 50q-34 23 -55 -8
q-68 -94 -62 -194t122 -157t227 36t59 240z" />
    <glyph glyph-name="T" unicode="T" horiz-adv-x="512" 
d="M498 615l-54 79q-14 26 -40 26h-310q-25 0 -33 -24l-45 -88q-16 -35 14 -53q36 -13 53 18l35 67h101v-700h-18q-39 0 -39 -37q-1 -39 34 -39h122q36 0 37 34q2 42 -37 42h-23v700h90l54 -68q29 -28 53 -9q21 22 6 52z" />
    <glyph glyph-name="U" unicode="U" horiz-adv-x="512" 
d="M468 743h-128q-36 0 -38 -38q2 -38 37 -37h30v-575q0 -79 -29.5 -115.5t-75.5 -36.5t-79 43t-33 131v553h16q37 -1 37 38q0 37 -38 37h-125q-33 0 -38 -37q2 -39 37 -38h35v-549q0 -118 57 -186t133 -68t128 63.5t52 164.5v575h23q38 -1 39 38q0 37 -40 37z" />
    <glyph glyph-name="V" unicode="V" horiz-adv-x="512" 
d="M473 748h-83q-44 0 -46 -40q5 -32 35 -37h10q-63 -290 -119 -571q-56 281 -144 568h6q36 0 37 39q0 37 -38 37h-91q-36 0 -38 -37q1 -39 37 -39h10q111 -377 190 -772q7 -30 36.5 -31.5t39.5 42.5q61 387 153 764h6q36 0 37 37q-1 40 -38 40z" />
    <glyph glyph-name="W" unicode="W" horiz-adv-x="512" 
d="M511 693q0 38 -38 38h-46q-33 0 -38 -38q5 -38 22 -38l-50 -519l-69 461q-10 34 -40.5 32.5t-35.5 -33.5l-59 -441l-52 504q21 0 22 38q-3 38 -38 38h-49q-34 0 -38 -38q1 -38 27 -38l85 -756q5 -28 24 -34.5t31.5 2t17.5 32.5l67 464l75 -469q3 -20 14.5 -27t33.5 -5
t28 35l82 754q24 0 24 38z" />
    <glyph glyph-name="X" unicode="X" horiz-adv-x="512" 
d="M457 -60h-20l-140 387l134 337h29q37 5 37 38q-2 38 -39 38h-103q-37 0 -39 -38q4 -33 34 -38l-95 -230l-90 230v0q37 5 37 38q-2 38 -39 38h-109q-35 0 -38 -37q4 -39 37 -39h27l125 -337l-133 -387h-18q-37 0 -38 -39q2 -38 37 -38h108q35 0 37 38q-1 39 -38 39h-8
l103 284l101 -284h-18q-38 0 -39 -38q4 -33 37 -38h122q36 0 37 39q0 37 -38 37z" />
    <glyph glyph-name="Y" unicode="Y" horiz-adv-x="512" 
d="M473 723h-93q-39 0 -39 -38q1 -38 33 -38l-113 -217l-118 217q32 0 33 39q0 37 -38 37h-98q-37 0 -38 -37q1 -39 37 -39h16l169 -304v-404h-11q-35 0 -38 -38q3 -39 37 -39h100q37 0 37 38q-1 39 -39 39h-10v403l160 305h14q36 0 37 39q-1 37 -38 37z" />
    <glyph glyph-name="Z" unicode="Z" horiz-adv-x="512" 
d="M462 58q-41 9 -48 -29l-20 -90h-253l105 262l71 -131q15 -29 49 -16q32 12 18 52l-99 186l168 399q8 26 -2 38.5t-37 12.5h-328q-36 0 -41 -28l-22 -116q-5 -35 29 -45q32 -9 43 30l18 83h245l-117 -287l-60 112q-19 32 -53 13q-28 -19 -14 -52l89 -165l-158 -373
q-12 -26 0 -39t39 -13h339q25 0 37 29l31 121q4 36 -29 46z" />
    <glyph glyph-name="bracketleft" unicode="[" horiz-adv-x="512" 
d="M102 824q-12 -10 -12 -29v-894q0 -41 37 -38l209 11q36 1 38 37q-2 39 -38 39l-170 -10v816l171 -10q33 -6 37 35q1 38 -39 41l-207 11q-16 0 -26 -9z" />
    <glyph glyph-name="backslash" unicode="\" horiz-adv-x="512" 
d="M473 723h-94q-38 0 -39 -38t37 -38h-4l-115 -216l-119 216h7q29 1 30 39q0 37 -38 37h-97q-39 0 -39 -38t37 -38h11l136 -244h-94q-37 0 -38 -37q1 -38 37 -38h129v-119h-128q-38 0 -38 -39q0 -38 37 -38h129v-193h-7q-38 0 -38 -39q1 -38 37 -38h100q35 0 37 39
q0 38 -38 38h-15v193h120q37 0 38 38q-1 39 -39 39h-119v119h120q38 0 38 38q-1 37 -39 37h-84l128 244h15q37 0 37 39q0 37 -38 37z" />
    <glyph glyph-name="bracketright" unicode="]" horiz-adv-x="512" 
d="M386 833l-208 -11q-42 -4 -38 -41q3 -38 37 -35l171 10v-816l-170 10q-38 3 -38 -39q-2 -34 38 -37l209 -11q37 0 37 37v896q0 40 -38 37z" />
    <glyph glyph-name="asciicircum" unicode="^" horiz-adv-x="512" 
d="M96 710q-17 -33 9 -54q29 -14 53 15q64 83 98 83t96 -89q22 -26 53 -11q28 23 9 59q-88 119 -163 118t-155 -121z" />
    <glyph glyph-name="underscore" unicode="_" horiz-adv-x="512" 
d="M64 -47q-38 0 -38 -38q1 -38 38 -38h384q37 0 38 38q-2 38 -38 38h-384z" />
    <glyph glyph-name="grave" unicode="`" horiz-adv-x="512" 
d="M145 768q-15 -32 14 -49q79 -44 146 -115q24 -19 52 0q25 28 4 52q-76 80 -164 130q-36 18 -52 -18z" />
    <glyph glyph-name="a" unicode="a" horiz-adv-x="513" 
d="M496 39q-10 38 -43 32q-39 -9 -33 -44q7 -44 -11 -63.5t-26 -10.5t-15 71.5t2.5 181.5t-28.5 174t-119.5 58.5t-117 -38t-39.5 -95.5q-4 -40 34 -44q34 -3 38 32q4 23 16 48t59.5 22.5t67 -30t15.5 -80.5q-78 6 -133 -32q-97 -71 -105 -198q-4 -106 57 -135
q111 -29 199 35q5 -14 21.5 -32.5t51.5 -24.5t77.5 44t31.5 129zM153 -45q-17 1 -19 62q8 87 69 142q38 27 93 18q-16 -89 -2 -177q-64 -45 -141 -45z" />
    <glyph glyph-name="b" unicode="b" horiz-adv-x="512" 
d="M430 250q-30 114 -90 119q-110 0 -162 -75v244q-5 27 -23.5 34.5t-37.5 -2.5l-42 -29q-29 -21 -5 -54q14 -16 31 -13v-575q-1 -38 39 -38q38 3 38 37q46 -41 101.5 -28.5t121 99.5t29.5 281zM178 67v104q50 92 146 117q36 5 48 -101.5t-31.5 -179t-103 -67.5t-59.5 127z
" />
    <glyph glyph-name="c" unicode="c" horiz-adv-x="512" 
d="M380 435q-28 -5 -28 -24q-58 43 -171 9t-125.5 -218t73.5 -265t160.5 -69.5t127.5 63t53 143.5q0 37 -39 38q-38 0 -38 -38q0 -71 -42.5 -101.5t-79 -36t-94.5 56t-54 164.5t38.5 152t106 51t99.5 -79q11 -35 49 -31q35 8 27 46l-19 105q-8 41 -44 34z" />
    <glyph glyph-name="d" unicode="d" horiz-adv-x="512" 
d="M453 -64q-15 24 -33 21v580q0 40 -38 39t-38 -39v-222q-60 65 -163 61q-85 -5 -108 -163t39 -241t119.5 -97t112.5 16q-5 -10 15 -25q20 -7 38 0l36 18q29 19 20 52zM309 -39q-31 -20 -65 -11.5t-74 70t-32.5 162t62.5 122.5q47 4 86 -26t58 -78v-132q4 -61 -35 -107z
" />
    <glyph glyph-name="e" unicode="e" horiz-adv-x="512" 
d="M40 136q-1 -121 54 -197.5t194 -72t177 146.5q7 39 -33 43q-37 7 -43 -33q-4 -21 -24.5 -52.5t-107.5 -29t-114 52.5t-27 142q-4 74 28.5 142.5t109.5 73.5t100 -33.5t29 -72.5h-192q-38 0 -39 -38q0 -38 37 -38h238q15 0 25 8.5t12 28.5q-4 82 -46.5 152t-159.5 66.5
t-169.5 -94.5t-48.5 -195z" />
    <glyph glyph-name="f" unicode="f" horiz-adv-x="512" 
d="M389 327h-101q-7 138 20.5 168t47.5 16q32 -17 48 21q9 36 -20 50q-59 32 -121 -23t-52 -232h-86q-38 -1 -39 -37q1 -38 38 -38h87v-354q0 -37 38 -37q39 0 39 36v355h102q36 0 37 38q0 37 -38 37z" />
    <glyph glyph-name="g" unicode="g" horiz-adv-x="512" 
d="M490 440q-5 19 -15 29q-27 24 -51 0q-11 -8 -25.5 -26t-24.5 -38q-44 47 -130 47q-115 0 -163 -72q-25 -46 -19.5 -89t72.5 -88q-61 -62 -44 -111q-51 -45 -47 -97q7 -71 70.5 -102.5t145.5 -31.5q90 0 149 28q60 31 62 91t-43 108q-52 50 -177 51q-52 3 -81 -12
q-6 24 40 48q138 -18 194 73q19 38 19 80q10 33 26.5 55t27.5 32q9 10 14 25zM206 72q113 4 166 -35q30 -27 20.5 -49.5t-36 -36.5t-97.5 -14q-53 3 -91.5 13.5t-48.5 46.5q-4 21 22 43q27 23 65 32zM346 324q8 -32 -13 -56t-67 -24q-50 0 -85.5 20.5t-43.5 37t14 48.5
q26 30 95 26q77 -3 100 -52v0z" />
    <glyph glyph-name="h" unicode="h" horiz-adv-x="512" 
d="M345 388q-44 20 -103.5 -15.5t-76.5 -55.5v226q0 35 -38 37q-38 1 -38 -39v-642q0 -39 38 -38q38 2 38 36v307q105 112 156 107q26 -15 25 -115v-296q1 -37 37 -38q40 -1 39 37v297q1 175 -77 192z" />
    <glyph glyph-name="i" unicode="i" horiz-adv-x="512" 
d="M219 517v-58q1 -39 38 -39q38 0 38 37v62q0 37 -38 37q-38 1 -38 -39zM219 344v-442q0 -39 37 -39q39 -1 39 38v445q0 37 -38 37q-40 2 -38 -39z" />
    <glyph glyph-name="j" unicode="j" horiz-adv-x="512" 
d="M303 527v-63q0 -38 38 -38q38 -1 38 37v66q0 37 -38 37t-38 -39zM303 355v-359q0 -35 -14 -47.5t-45.5 0.5t-52.5 31q-30 24 -53 -1q-24 -23 0 -52q60 -70 150.5 -58t90.5 127v360q0 38 -39 37q-37 0 -37 -38z" />
    <glyph glyph-name="k" unicode="k" horiz-adv-x="512" 
d="M207 202l193 122q34 21 9 54q-23 32 -52 13l-206 -129v293q0 35 -37 37q-38 0 -39 -38v-655q1 -39 38 -38q38 -1 38 37v249l197 -264q19 -27 51 -9q30 19 10 53z" />
    <glyph glyph-name="l" unicode="l" horiz-adv-x="512" 
d="M192 586v-687q0 -38 39 -38h52q37 0 38 38q-1 39 -38 38h-14v650q0 39 -39 37q-38 2 -38 -38z" />
    <glyph glyph-name="m" unicode="m" horiz-adv-x="512" 
d="M409 410q-54 8 -91.5 -22t-52.5 -51q-6 37 -50.5 52.5t-116.5 -42.5v25q0 39 -38 38q-38 1 -38 -39v-469q0 -37 38 -38q38 1 38 37v316q38 99 91 97q17 -1 17 -100v-284q0 -39 38 -39q39 -1 39 37v286q21 49 46.5 85t56.5 38q27 -5 27 -123v-312q0 -37 39 -38
q38 -1 38 37v313q0 178 -81 196z" />
    <glyph glyph-name="n" unicode="n" horiz-adv-x="512" 
d="M359 402q-85 27 -213 -110v50q0 35 -37 38q-39 0 -39 -39v-443q0 -38 39 -38q37 0 37 37v283q134 160 190 149q28 -7 28 -123v-307q0 -37 38 -39q40 0 39 37v309q1 169 -82 196z" />
    <glyph glyph-name="o" unicode="o" horiz-adv-x="512" 
d="M56 138q0 -96 46.5 -183t157.5 -91q108 5 152 93.5t44 180.5q0 80 -44.5 171.5t-151.5 102.5q-109 -1 -156.5 -96t-47.5 -178zM132 138q0 54 30.5 124t97.5 74q69 -13 94.5 -79t25.5 -119q0 -65 -25 -128t-95 -70q-69 6 -98.5 69t-29.5 129z" />
    <glyph glyph-name="p" unicode="p" horiz-adv-x="512" 
d="M442 265q4 113 -77 155q-86 42 -221 -56v27q0 34 -40 37q-37 0 -37 -38v-489q0 -38 37 -38q40 -2 40 37v82q67 -37 142 -13q94 35 123 122t33 174zM265 41q-41 -11 -79.5 7.5t-41.5 44.5v172q131 97 189 83q33 -22 33 -86q-4 -63 -22.5 -128t-78.5 -93z" />
    <glyph glyph-name="q" unicode="q" horiz-adv-x="512" 
d="M426 406q0 38 -38 38t-38 -38v-21q-115 87 -199 50q-49 -16 -63.5 -71.5t-18.5 -118t29 -159.5t166 -120q50 -8 86 27v-95q0 -36 39 -37q37 1 37 37v508zM265 42q-87 28 -105 99t-15.5 130.5t34.5 90.5q60 9 171 -83v-185q-36 -53 -85 -52z" />
    <glyph glyph-name="r" unicode="r" horiz-adv-x="512" 
d="M405 383q-38 11 -105 -4.5t-103 -69.5v62q0 24 -17 34.5t-35 3.5l-51 -24q-24 -14 -15 -46q14 -33 42 -21v-412q0 -39 38 -39q38 -1 38 38v252q29 96 93 128.5t98 25.5q37 -8 47 28q7 38 -30 44z" />
    <glyph glyph-name="s" unicode="s" horiz-adv-x="512" 
d="M134 358q-42 -42 -32 -122.5t111.5 -112.5t123 -56t18 -57t-40.5 -56t-88.5 -3t-77.5 92q-19 33 -51 19q-33 -14 -19 -51q42 -101 127.5 -130.5t152.5 11.5t70.5 105.5t-31.5 110.5t-109.5 63t-101.5 56t5 82q43 43 97.5 21.5t83.5 -88.5q19 -34 49 -20q27 18 18 48
q-22 49 -57.5 92t-113.5 49t-134 -53z" />
    <glyph glyph-name="t" unicode="t" horiz-adv-x="512" 
d="M424 -37q-30 25 -53 1q-29 -29 -62.5 -22t-33.5 53v270h99q35 0 37 38q0 38 -39 38h-97v133q0 39 -37 37q-39 1 -39 -38v-132h-91q-39 0 -39 -38q1 -38 37 -38h93v-270q-4 -86 75 -118.5t146 30.5q23 27 4 56z" />
    <glyph glyph-name="u" unicode="u" horiz-adv-x="513" 
d="M389 395q-37 0 -37 -38v-251q-65 -115 -117.5 -134.5t-63 15.5t-10.5 89v285q0 37 -40 37q-37 0 -37 -38v-284q0 -52 12 -107.5t71.5 -72.5t109.5 10t75 74v-77q0 -40 38 -39t38 38v456q0 35 -39 37z" />
    <glyph glyph-name="v" unicode="v" horiz-adv-x="512" 
d="M382 357l-114 -329l-133 331q-10 37 -49 28q-38 -8 -24 -49l172 -451q6 -20 32 -22.5t39 21.5l149 449q10 38 -30 48q-32 10 -42 -26z" />
    <glyph glyph-name="w" unicode="w" horiz-adv-x="512" 
d="M468 391q-38 8 -43 -29l-58 -308l-74 274q-13 29 -40 26.5t-31 -27.5l-78 -281l-53 325q-8 33 -43 28q-41 -6 -34 -44l87 -468q5 -23 31.5 -25.5t40.5 20.5l83 301l82 -295q8 -24 37 -24.5t40 25.5l87 456q4 42 -34 46z" />
    <glyph glyph-name="x" unicode="x" horiz-adv-x="512" 
d="M440 -75l-137 195l137 199q17 32 -10 51q-37 23 -56 -8l-118 -171l-122 170q-24 31 -54 9q-25 -19 -9 -51l141 -199l-133 -192q-21 -31 10 -55q29 -23 52 12l114 170l119 -173q23 -28 56 -9q23 23 10 52z" />
    <glyph glyph-name="y" unicode="y" horiz-adv-x="512" 
d="M462 419q-38 9 -47 -25q-42 -149 -122 -259l-153 270q-13 34 -50 20q-33 -12 -23 -47l183 -339q-78 -119 -100 -96t-30 55q-14 39 -50 30q-38 -10 -29 -48q12 -38 43 -81t96 -34.5t165.5 174t141.5 332.5q11 35 -25 48z" />
    <glyph glyph-name="z" unicode="z" horiz-adv-x="512" 
d="M406 -60h-225l69 120l35 -19q33 -17 52 19q14 36 -18 52l-36 20l119 199q12 27 -1.5 41.5t-32.5 14.5h-261q-38 0 -38 -37q0 -40 37 -40h198l-86 -146l-60 31q-35 13 -50 -23q-14 -25 18 -48l55 -28l-98 -173q-13 -24 -3.5 -42t35.5 -18h292q36 0 37 39q0 38 -38 38z" />
    <glyph glyph-name="braceleft" unicode="{" horiz-adv-x="512" 
d="M340 811q-56 -23 -103 -68t-47 -112v-200l-69 -64q-14 -10 -14 -29q0 -14 13 -29l70 -65v-200q0 -62 45 -109t107 -70q30 -12 48 19q15 33 -20 49q-39 18 -69.5 46t-34.5 65v216q-5 18 -13 27l-52 51l51 50q9 9 14 23v220q4 41 34 67.5t71 41.5q30 13 18 53
q-14 34 -49 18z" />
    <glyph glyph-name="bar" unicode="|" horiz-adv-x="512" 
d="M218 834v-937q0 -36 38 -38q38 1 38 37v939q0 36 -38 37q-38 0 -38 -38z" />
    <glyph glyph-name="braceright" unicode="}" horiz-adv-x="512" 
d="M169 -124q59 23 103.5 70t48.5 109v201l70 65q14 12 13 28q1 15 -13 29l-70 63v201q-7 68 -52 112.5t-100 67.5q-36 16 -48 -18q-13 -38 20 -53q36 -15 66.5 -41.5t37.5 -68.5v-218q0 -15 14 -24l50 -50l-50 -50q-14 -10 -14 -29v-214q-7 -38 -38 -66t-66 -46
q-34 -12 -20 -49q15 -29 48 -19z" />
    <glyph glyph-name="asciitilde" unicode="~" horiz-adv-x="512" 
d="M19 732q-18 -34 11 -52q34 -20 56 13q29 59 73 64.5t76 -27.5q57 -58 126.5 -55.5t134.5 111.5q16 37 -11 53q-32 17 -51 -12q-46 -77 -81.5 -76.5t-71.5 36.5q-57 53 -134 44t-128 -99z" />
    <glyph glyph-name="glyph97" horiz-adv-x="512" 
 />
    <glyph glyph-name="glyph98" horiz-adv-x="512" 
 />
    <glyph glyph-name="glyph99" 
 />
    <glyph glyph-name="glyph100" 
 />
    <glyph glyph-name="glyph101" horiz-adv-x="512" 
 />
    <glyph glyph-name="glyph102" horiz-adv-x="512" 
 />
    <glyph glyph-name="glyph103" horiz-adv-x="512" 
 />
    <glyph glyph-name="section" unicode="&#xa7;" 
d="M795 708q-225 152 -388.5 91.5t-172.5 -119t5 -95t70.5 -62t84.5 -33.5q-53 -6 -112 -52.5t-42 -128.5q24 -64 82.5 -89.5t111.5 -38.5t131 -20.5t119 -81.5t2.5 -108.5t-153 -34.5t-278.5 81q-33 15 -52 -18q-9 -32 18 -51q191 -95 331.5 -89.5t199 68.5t27 151.5
t-91.5 111.5q40 18 74 80t-24.5 162.5t-223.5 111.5q-93 15 -146.5 40.5t-58 39.5t0.5 35t136.5 64.5t316.5 -83.5q37 -16 52 15q16 29 -19 53zM689 368q17 -68 -24 -99q-90 -44 -197 -17q-66 15 -108 36.5t-44 39.5q-12 40 51.5 82t169 39t152.5 -81z" />
    <glyph glyph-name="dieresis" unicode="&#xa8;" 
d="M441 748q-3 -63 -72 -66q-70 1 -72 66q0 67 72 67q75 -3 72 -67zM725 748q-3 -63 -72 -66q-70 1 -72 66q0 67 72 67q75 -3 72 -67z" />
    <glyph glyph-name="glyph106" horiz-adv-x="512" 
 />
    <glyph glyph-name="glyph107" horiz-adv-x="512" 
 />
    <glyph glyph-name="glyph108" 
 />
    <glyph glyph-name="glyph109" 
 />
    <glyph glyph-name="glyph110" horiz-adv-x="512" 
 />
    <glyph glyph-name="glyph111" horiz-adv-x="512" 
 />
    <glyph glyph-name="glyph112" 
 />
    <glyph glyph-name="degree" unicode="&#xb0;" 
d="M51 717q3 -115 122 -119q121 1 122 119q-1 123 -123 125q-121 -1 -121 -125zM120 717q1 57 52 57q54 0 55 -57q-1 -51 -54 -52q-53 1 -53 52z" />
    <glyph glyph-name="plusminus" unicode="&#xb1;" 
d="M210 376h264v-217q0 -38 38 -39q38 1 38 38v218h263q39 0 39 36q0 39 -39 39h-263v222q0 38 -38 38t-38 -39v-221h-263q-39 0 -38 -39q0 -36 37 -36zM812 102h-601q-38 0 -38 -37q0 -39 37 -39h604q37 0 38 38q0 38 -40 38z" />
    <glyph glyph-name="glyph115" horiz-adv-x="512" 
 />
    <glyph glyph-name="glyph116" horiz-adv-x="512" 
 />
    <glyph glyph-name="acute" unicode="&#xb4;" 
d="M636 794q-17 40 -60 28q-131 -55 -257 -134q-35 -33 -7 -65q28 -33 63 -10q111 71 233 121q38 15 28 60z" />
    <glyph glyph-name="glyph118" 
 />
    <glyph glyph-name="paragraph" unicode="&#xb6;" 
d="M662 763h-252q-185 -29 -189 -238q0 -187 173 -231v-397q0 -38 39 -37q37 1 37 38v788h93v-789q0 -35 39 -37q37 1 37 38v788h23q38 0 38 39q-1 38 -38 38z" />
    <glyph glyph-name="glyph120" 
 />
    <glyph glyph-name="glyph121" 
 />
    <glyph glyph-name="glyph122" horiz-adv-x="512" 
 />
    <glyph glyph-name="glyph123" horiz-adv-x="512" 
 />
    <glyph glyph-name="glyph124" 
 />
    <glyph glyph-name="glyph125" horiz-adv-x="512" 
 />
    <glyph glyph-name="glyph126" horiz-adv-x="512" 
 />
    <glyph glyph-name="glyph127" horiz-adv-x="512" 
 />
    <glyph glyph-name="glyph128" horiz-adv-x="512" 
 />
    <glyph glyph-name="glyph129" horiz-adv-x="512" 
 />
    <glyph glyph-name="glyph130" horiz-adv-x="512" 
 />
    <glyph glyph-name="glyph131" horiz-adv-x="512" 
 />
    <glyph glyph-name="glyph132" horiz-adv-x="512" 
 />
    <glyph glyph-name="glyph133" horiz-adv-x="512" 
 />
    <glyph glyph-name="glyph134" horiz-adv-x="512" 
 />
    <glyph glyph-name="glyph135" horiz-adv-x="512" 
 />
    <glyph glyph-name="glyph136" horiz-adv-x="512" 
 />
    <glyph glyph-name="glyph137" horiz-adv-x="512" 
 />
    <glyph glyph-name="glyph138" horiz-adv-x="512" 
 />
    <glyph glyph-name="glyph139" horiz-adv-x="512" 
 />
    <glyph glyph-name="glyph140" horiz-adv-x="512" 
 />
    <glyph glyph-name="glyph141" horiz-adv-x="512" 
 />
    <glyph glyph-name="glyph142" horiz-adv-x="512" 
 />
    <glyph glyph-name="glyph143" horiz-adv-x="512" 
 />
    <glyph glyph-name="glyph144" horiz-adv-x="512" 
 />
    <glyph glyph-name="glyph145" horiz-adv-x="512" 
 />
    <glyph glyph-name="glyph146" horiz-adv-x="512" 
 />
    <glyph glyph-name="glyph147" horiz-adv-x="512" 
 />
    <glyph glyph-name="glyph148" horiz-adv-x="512" 
 />
    <glyph glyph-name="glyph149" horiz-adv-x="512" 
 />
    <glyph glyph-name="glyph150" horiz-adv-x="512" 
 />
    <glyph glyph-name="glyph151" horiz-adv-x="512" 
 />
    <glyph glyph-name="multiply" unicode="&#xd7;" 
d="M566 285l338 337q23 24 0 52q-26 27 -53 0l-341 -337l-338 337q-25 25 -52 0q-24 -26 0 -52l338 -337l-338 -340q-25 -25 0 -53q24 -26 52 0l338 337l341 -337q30 -25 53 0q26 28 0 54z" />
    <glyph glyph-name="glyph153" horiz-adv-x="512" 
 />
    <glyph glyph-name="glyph154" horiz-adv-x="512" 
 />
    <glyph glyph-name="glyph155" horiz-adv-x="512" 
 />
    <glyph glyph-name="glyph156" horiz-adv-x="512" 
 />
    <glyph glyph-name="glyph157" horiz-adv-x="512" 
 />
    <glyph glyph-name="glyph158" horiz-adv-x="512" 
 />
    <glyph glyph-name="glyph159" horiz-adv-x="512" 
 />
    <glyph glyph-name="glyph160" horiz-adv-x="512" 
 />
    <glyph glyph-name="glyph161" horiz-adv-x="512" 
 />
    <glyph glyph-name="glyph162" horiz-adv-x="512" 
 />
    <glyph glyph-name="glyph163" horiz-adv-x="512" 
 />
    <glyph glyph-name="glyph164" horiz-adv-x="512" 
 />
    <glyph glyph-name="glyph165" horiz-adv-x="512" 
 />
    <glyph glyph-name="glyph166" horiz-adv-x="512" 
 />
    <glyph glyph-name="glyph167" horiz-adv-x="512" 
 />
    <glyph glyph-name="glyph168" horiz-adv-x="512" 
 />
    <glyph glyph-name="glyph169" horiz-adv-x="512" 
 />
    <glyph glyph-name="glyph170" horiz-adv-x="512" 
 />
    <glyph glyph-name="glyph171" horiz-adv-x="512" 
 />
    <glyph glyph-name="glyph172" horiz-adv-x="512" 
 />
    <glyph glyph-name="glyph173" horiz-adv-x="512" 
 />
    <glyph glyph-name="glyph174" horiz-adv-x="512" 
 />
    <glyph glyph-name="glyph175" horiz-adv-x="512" 
 />
    <glyph glyph-name="glyph176" horiz-adv-x="512" 
 />
    <glyph glyph-name="glyph177" horiz-adv-x="512" 
 />
    <glyph glyph-name="glyph178" horiz-adv-x="512" 
 />
    <glyph glyph-name="glyph179" horiz-adv-x="512" 
 />
    <glyph glyph-name="glyph180" horiz-adv-x="512" 
 />
    <glyph glyph-name="glyph181" horiz-adv-x="512" 
 />
    <glyph glyph-name="glyph182" horiz-adv-x="512" 
 />
    <glyph glyph-name="glyph183" horiz-adv-x="512" 
 />
    <glyph glyph-name="divide" unicode="&#xf7;" 
d="M871 301q35 0 37 38q-2 39 -38 39h-716q-38 0 -38 -38q1 -39 38 -39h717zM557 567q-2 -38 -45 -41q-43 1 -45 41q0 41 45 41q46 -1 45 -41zM557 135q-2 -38 -45 -41q-43 1 -45 41q0 41 45 41q46 -1 45 -41z" />
    <glyph glyph-name="glyph185" horiz-adv-x="512" 
 />
    <glyph glyph-name="glyph186" horiz-adv-x="512" 
 />
    <glyph glyph-name="glyph187" horiz-adv-x="512" 
 />
    <glyph glyph-name="glyph188" horiz-adv-x="512" 
 />
    <glyph glyph-name="glyph189" horiz-adv-x="512" 
 />
    <glyph glyph-name="glyph190" horiz-adv-x="512" 
 />
    <glyph glyph-name="glyph191" horiz-adv-x="512" 
 />
    <glyph glyph-name="glyph192" horiz-adv-x="512" 
 />
    <glyph glyph-name="glyph193" horiz-adv-x="512" 
 />
    <glyph glyph-name="glyph194" horiz-adv-x="512" 
 />
    <glyph glyph-name="glyph195" horiz-adv-x="512" 
 />
    <glyph glyph-name="glyph196" horiz-adv-x="512" 
 />
    <glyph glyph-name="glyph197" horiz-adv-x="512" 
 />
    <glyph glyph-name="glyph198" horiz-adv-x="512" 
 />
    <glyph glyph-name="glyph199" horiz-adv-x="512" 
 />
    <glyph glyph-name="glyph200" horiz-adv-x="512" 
 />
    <glyph glyph-name="glyph201" horiz-adv-x="512" 
 />
    <glyph glyph-name="glyph202" horiz-adv-x="512" 
 />
    <glyph glyph-name="glyph203" horiz-adv-x="512" 
 />
    <glyph glyph-name="glyph204" horiz-adv-x="512" 
 />
    <glyph glyph-name="glyph205" horiz-adv-x="512" 
 />
    <glyph glyph-name="glyph206" horiz-adv-x="512" 
 />
    <glyph glyph-name="glyph207" horiz-adv-x="512" 
 />
    <glyph glyph-name="glyph208" horiz-adv-x="512" 
 />
    <glyph glyph-name="glyph209" horiz-adv-x="512" 
 />
    <glyph glyph-name="glyph210" horiz-adv-x="512" 
 />
    <glyph glyph-name="glyph211" horiz-adv-x="512" 
 />
    <glyph glyph-name="glyph212" horiz-adv-x="512" 
 />
    <glyph glyph-name="glyph213" horiz-adv-x="512" 
 />
    <glyph glyph-name="glyph214" horiz-adv-x="512" 
 />
    <glyph glyph-name="glyph215" horiz-adv-x="512" 
 />
    <glyph glyph-name="glyph216" horiz-adv-x="512" 
 />
    <glyph glyph-name="glyph217" horiz-adv-x="512" 
 />
    <glyph glyph-name="glyph218" horiz-adv-x="512" 
 />
    <glyph glyph-name="glyph219" horiz-adv-x="512" 
 />
    <glyph glyph-name="glyph220" horiz-adv-x="512" 
 />
    <glyph glyph-name="glyph221" horiz-adv-x="512" 
 />
    <glyph glyph-name="glyph222" horiz-adv-x="512" 
 />
    <glyph glyph-name="glyph223" horiz-adv-x="512" 
 />
    <glyph glyph-name="glyph224" horiz-adv-x="512" 
 />
    <glyph glyph-name="glyph225" horiz-adv-x="512" 
 />
    <glyph glyph-name="glyph226" horiz-adv-x="512" 
 />
    <glyph glyph-name="glyph227" horiz-adv-x="512" 
 />
    <glyph glyph-name="glyph228" horiz-adv-x="512" 
 />
    <glyph glyph-name="glyph229" horiz-adv-x="512" 
 />
    <glyph glyph-name="glyph230" horiz-adv-x="512" 
 />
    <glyph glyph-name="glyph231" horiz-adv-x="512" 
 />
    <glyph glyph-name="glyph232" horiz-adv-x="512" 
 />
    <glyph glyph-name="glyph233" horiz-adv-x="512" 
 />
    <glyph glyph-name="glyph234" horiz-adv-x="512" 
 />
    <glyph glyph-name="glyph235" horiz-adv-x="512" 
 />
    <glyph glyph-name="glyph236" horiz-adv-x="512" 
 />
    <glyph glyph-name="glyph237" horiz-adv-x="512" 
 />
    <glyph glyph-name="glyph238" horiz-adv-x="512" 
 />
    <glyph glyph-name="glyph239" horiz-adv-x="512" 
 />
    <glyph glyph-name="glyph240" horiz-adv-x="512" 
 />
    <glyph glyph-name="glyph241" horiz-adv-x="512" 
 />
    <glyph glyph-name="glyph242" horiz-adv-x="512" 
 />
    <glyph glyph-name="glyph243" horiz-adv-x="512" 
 />
    <glyph glyph-name="glyph244" horiz-adv-x="512" 
 />
    <glyph glyph-name="glyph245" horiz-adv-x="512" 
 />
    <glyph glyph-name="glyph246" horiz-adv-x="512" 
 />
    <glyph glyph-name="glyph247" horiz-adv-x="512" 
 />
    <glyph glyph-name="glyph248" horiz-adv-x="512" 
 />
    <glyph glyph-name="glyph249" horiz-adv-x="512" 
 />
    <glyph glyph-name="glyph250" horiz-adv-x="512" 
 />
    <glyph glyph-name="glyph251" horiz-adv-x="512" 
 />
    <glyph glyph-name="glyph252" horiz-adv-x="512" 
 />
    <glyph glyph-name="glyph253" horiz-adv-x="512" 
 />
    <glyph glyph-name="glyph254" horiz-adv-x="512" 
 />
    <glyph glyph-name="glyph255" horiz-adv-x="512" 
 />
    <glyph glyph-name="glyph256" horiz-adv-x="512" 
 />
    <glyph glyph-name="glyph257" horiz-adv-x="512" 
 />
    <glyph glyph-name="glyph258" horiz-adv-x="512" 
 />
    <glyph glyph-name="glyph259" horiz-adv-x="512" 
 />
    <glyph glyph-name="glyph260" horiz-adv-x="512" 
 />
    <glyph glyph-name="glyph261" horiz-adv-x="512" 
 />
    <glyph glyph-name="glyph262" horiz-adv-x="512" 
 />
    <glyph glyph-name="glyph263" horiz-adv-x="512" 
 />
    <glyph glyph-name="glyph264" horiz-adv-x="512" 
 />
    <glyph glyph-name="glyph265" horiz-adv-x="512" 
 />
    <glyph glyph-name="glyph266" horiz-adv-x="512" 
 />
    <glyph glyph-name="glyph267" horiz-adv-x="512" 
 />
    <glyph glyph-name="glyph268" horiz-adv-x="512" 
 />
    <glyph glyph-name="glyph269" horiz-adv-x="512" 
 />
    <glyph glyph-name="glyph270" horiz-adv-x="512" 
 />
    <glyph glyph-name="glyph271" horiz-adv-x="512" 
 />
    <glyph glyph-name="glyph272" horiz-adv-x="512" 
 />
    <glyph glyph-name="glyph273" horiz-adv-x="512" 
 />
    <glyph glyph-name="glyph274" horiz-adv-x="512" 
 />
    <glyph glyph-name="glyph275" horiz-adv-x="512" 
 />
    <glyph glyph-name="glyph276" horiz-adv-x="512" 
 />
    <glyph glyph-name="glyph277" horiz-adv-x="512" 
 />
    <glyph glyph-name="glyph278" horiz-adv-x="512" 
 />
    <glyph glyph-name="glyph279" horiz-adv-x="512" 
 />
    <glyph glyph-name="glyph280" horiz-adv-x="512" 
 />
    <glyph glyph-name="glyph281" horiz-adv-x="512" 
 />
    <glyph glyph-name="glyph282" horiz-adv-x="512" 
 />
    <glyph glyph-name="glyph283" horiz-adv-x="512" 
 />
    <glyph glyph-name="glyph284" horiz-adv-x="512" 
 />
    <glyph glyph-name="glyph285" horiz-adv-x="512" 
 />
    <glyph glyph-name="glyph286" horiz-adv-x="512" 
 />
    <glyph glyph-name="glyph287" horiz-adv-x="512" 
 />
    <glyph glyph-name="glyph288" horiz-adv-x="512" 
 />
    <glyph glyph-name="glyph289" horiz-adv-x="512" 
 />
    <glyph glyph-name="glyph290" horiz-adv-x="512" 
 />
    <glyph glyph-name="glyph291" horiz-adv-x="512" 
 />
    <glyph glyph-name="glyph292" horiz-adv-x="512" 
 />
    <glyph glyph-name="glyph293" horiz-adv-x="512" 
 />
    <glyph glyph-name="glyph294" horiz-adv-x="512" 
 />
    <glyph glyph-name="glyph295" horiz-adv-x="512" 
 />
    <glyph glyph-name="glyph296" horiz-adv-x="512" 
 />
    <glyph glyph-name="glyph297" horiz-adv-x="512" 
 />
    <glyph glyph-name="glyph298" horiz-adv-x="512" 
 />
    <glyph glyph-name="glyph299" horiz-adv-x="512" 
 />
    <glyph glyph-name="glyph300" horiz-adv-x="512" 
 />
    <glyph glyph-name="glyph301" horiz-adv-x="512" 
 />
    <glyph glyph-name="glyph302" horiz-adv-x="512" 
 />
    <glyph glyph-name="glyph303" horiz-adv-x="512" 
 />
    <glyph glyph-name="glyph304" horiz-adv-x="512" 
 />
    <glyph glyph-name="glyph305" horiz-adv-x="512" 
 />
    <glyph glyph-name="glyph306" horiz-adv-x="512" 
 />
    <glyph glyph-name="glyph307" horiz-adv-x="512" 
 />
    <glyph glyph-name="glyph308" horiz-adv-x="512" 
 />
    <glyph glyph-name="glyph309" horiz-adv-x="512" 
 />
    <glyph glyph-name="glyph310" horiz-adv-x="512" 
 />
    <glyph glyph-name="glyph311" horiz-adv-x="512" 
 />
    <glyph glyph-name="glyph312" horiz-adv-x="512" 
 />
    <glyph glyph-name="glyph313" horiz-adv-x="512" 
 />
    <glyph glyph-name="glyph314" horiz-adv-x="512" 
 />
    <glyph glyph-name="glyph315" horiz-adv-x="512" 
 />
    <glyph glyph-name="glyph316" horiz-adv-x="512" 
 />
    <glyph glyph-name="glyph317" horiz-adv-x="512" 
 />
    <glyph glyph-name="glyph318" horiz-adv-x="512" 
 />
    <glyph glyph-name="glyph319" horiz-adv-x="512" 
 />
    <glyph glyph-name="glyph320" horiz-adv-x="512" 
 />
    <glyph glyph-name="glyph321" horiz-adv-x="512" 
 />
    <glyph glyph-name="glyph322" horiz-adv-x="512" 
 />
    <glyph glyph-name="glyph323" horiz-adv-x="512" 
 />
    <glyph glyph-name="glyph324" horiz-adv-x="512" 
 />
    <glyph glyph-name="glyph325" horiz-adv-x="512" 
 />
    <glyph glyph-name="glyph326" horiz-adv-x="512" 
 />
    <glyph glyph-name="glyph327" horiz-adv-x="512" 
 />
    <glyph glyph-name="glyph328" horiz-adv-x="512" 
 />
    <glyph glyph-name="glyph329" horiz-adv-x="512" 
 />
    <glyph glyph-name="glyph330" horiz-adv-x="512" 
 />
    <glyph glyph-name="glyph331" horiz-adv-x="512" 
 />
    <glyph glyph-name="glyph332" horiz-adv-x="512" 
 />
    <glyph glyph-name="glyph333" horiz-adv-x="512" 
 />
    <glyph glyph-name="glyph334" horiz-adv-x="512" 
 />
    <glyph glyph-name="glyph335" horiz-adv-x="512" 
 />
    <glyph glyph-name="glyph336" horiz-adv-x="512" 
 />
    <glyph glyph-name="glyph337" horiz-adv-x="512" 
 />
    <glyph glyph-name="glyph338" horiz-adv-x="512" 
 />
    <glyph glyph-name="glyph339" horiz-adv-x="512" 
 />
    <glyph glyph-name="glyph340" horiz-adv-x="512" 
 />
    <glyph glyph-name="glyph341" horiz-adv-x="512" 
 />
    <glyph glyph-name="glyph342" horiz-adv-x="512" 
 />
    <glyph glyph-name="glyph343" horiz-adv-x="512" 
 />
    <glyph glyph-name="glyph344" horiz-adv-x="512" 
 />
    <glyph glyph-name="glyph345" horiz-adv-x="512" 
 />
    <glyph glyph-name="glyph346" horiz-adv-x="512" 
 />
    <glyph glyph-name="glyph347" horiz-adv-x="512" 
 />
    <glyph glyph-name="glyph348" horiz-adv-x="512" 
 />
    <glyph glyph-name="glyph349" horiz-adv-x="512" 
 />
    <glyph glyph-name="glyph350" horiz-adv-x="512" 
 />
    <glyph glyph-name="glyph351" horiz-adv-x="512" 
 />
    <glyph glyph-name="glyph352" horiz-adv-x="512" 
 />
    <glyph glyph-name="glyph353" horiz-adv-x="512" 
 />
    <glyph glyph-name="glyph354" horiz-adv-x="512" 
 />
    <glyph glyph-name="glyph355" horiz-adv-x="512" 
 />
    <glyph glyph-name="glyph356" horiz-adv-x="512" 
 />
    <glyph glyph-name="glyph357" horiz-adv-x="512" 
 />
    <glyph glyph-name="glyph358" horiz-adv-x="512" 
 />
    <glyph glyph-name="glyph359" horiz-adv-x="512" 
 />
    <glyph glyph-name="glyph360" horiz-adv-x="512" 
 />
    <glyph glyph-name="glyph361" horiz-adv-x="512" 
 />
    <glyph glyph-name="glyph362" horiz-adv-x="512" 
 />
    <glyph glyph-name="glyph363" horiz-adv-x="512" 
 />
    <glyph glyph-name="glyph364" horiz-adv-x="512" 
 />
    <glyph glyph-name="glyph365" horiz-adv-x="512" 
 />
    <glyph glyph-name="glyph366" horiz-adv-x="512" 
 />
    <glyph glyph-name="glyph367" horiz-adv-x="512" 
 />
    <glyph glyph-name="glyph368" horiz-adv-x="512" 
 />
    <glyph glyph-name="glyph369" horiz-adv-x="512" 
 />
    <glyph glyph-name="glyph370" horiz-adv-x="512" 
 />
    <glyph glyph-name="glyph371" horiz-adv-x="512" 
 />
    <glyph glyph-name="glyph372" horiz-adv-x="512" 
 />
    <glyph glyph-name="glyph373" horiz-adv-x="512" 
 />
    <glyph glyph-name="glyph374" horiz-adv-x="512" 
 />
    <glyph glyph-name="glyph375" horiz-adv-x="512" 
 />
    <glyph glyph-name="glyph376" horiz-adv-x="512" 
 />
    <glyph glyph-name="glyph377" horiz-adv-x="512" 
 />
    <glyph glyph-name="glyph378" horiz-adv-x="512" 
 />
    <glyph glyph-name="glyph379" horiz-adv-x="512" 
 />
    <glyph glyph-name="glyph380" horiz-adv-x="512" 
 />
    <glyph glyph-name="glyph381" horiz-adv-x="512" 
 />
    <glyph glyph-name="glyph382" horiz-adv-x="512" 
 />
    <glyph glyph-name="glyph383" horiz-adv-x="512" 
 />
    <glyph glyph-name="glyph384" horiz-adv-x="512" 
 />
    <glyph glyph-name="glyph385" horiz-adv-x="512" 
 />
    <glyph glyph-name="glyph386" horiz-adv-x="512" 
 />
    <glyph glyph-name="glyph387" horiz-adv-x="512" 
 />
    <glyph glyph-name="glyph388" horiz-adv-x="512" 
 />
    <glyph glyph-name="glyph389" horiz-adv-x="512" 
 />
    <glyph glyph-name="glyph390" horiz-adv-x="512" 
 />
    <glyph glyph-name="glyph391" horiz-adv-x="512" 
 />
    <glyph glyph-name="glyph392" horiz-adv-x="512" 
 />
    <glyph glyph-name="glyph393" horiz-adv-x="512" 
 />
    <glyph glyph-name="glyph394" horiz-adv-x="512" 
 />
    <glyph glyph-name="glyph395" horiz-adv-x="512" 
 />
    <glyph glyph-name="glyph396" horiz-adv-x="512" 
 />
    <glyph glyph-name="glyph397" horiz-adv-x="512" 
 />
    <glyph glyph-name="glyph398" horiz-adv-x="512" 
 />
    <glyph glyph-name="glyph399" horiz-adv-x="512" 
 />
    <glyph glyph-name="glyph400" horiz-adv-x="512" 
 />
    <glyph glyph-name="glyph401" horiz-adv-x="512" 
 />
    <glyph glyph-name="glyph402" horiz-adv-x="512" 
 />
    <glyph glyph-name="glyph403" horiz-adv-x="512" 
 />
    <glyph glyph-name="glyph404" horiz-adv-x="512" 
 />
    <glyph glyph-name="glyph405" horiz-adv-x="512" 
 />
    <glyph glyph-name="glyph406" horiz-adv-x="512" 
 />
    <glyph glyph-name="glyph407" horiz-adv-x="512" 
 />
    <glyph glyph-name="glyph408" horiz-adv-x="512" 
 />
    <glyph glyph-name="glyph409" horiz-adv-x="512" 
 />
    <glyph glyph-name="glyph410" horiz-adv-x="512" 
 />
    <glyph glyph-name="glyph411" horiz-adv-x="512" 
 />
    <glyph glyph-name="glyph412" horiz-adv-x="512" 
 />
    <glyph glyph-name="glyph413" horiz-adv-x="512" 
 />
    <glyph glyph-name="glyph414" horiz-adv-x="512" 
 />
    <glyph glyph-name="glyph415" horiz-adv-x="512" 
 />
    <glyph glyph-name="glyph416" horiz-adv-x="512" 
 />
    <glyph glyph-name="glyph417" horiz-adv-x="512" 
 />
    <glyph glyph-name="glyph418" horiz-adv-x="512" 
 />
    <glyph glyph-name="glyph419" horiz-adv-x="512" 
 />
    <glyph glyph-name="glyph420" horiz-adv-x="512" 
 />
    <glyph glyph-name="glyph421" horiz-adv-x="512" 
 />
    <glyph glyph-name="glyph422" horiz-adv-x="512" 
 />
    <glyph glyph-name="glyph423" horiz-adv-x="512" 
 />
    <glyph glyph-name="glyph424" horiz-adv-x="512" 
 />
    <glyph glyph-name="glyph425" horiz-adv-x="512" 
 />
    <glyph glyph-name="glyph426" horiz-adv-x="512" 
 />
    <glyph glyph-name="glyph427" horiz-adv-x="512" 
 />
    <glyph glyph-name="glyph428" horiz-adv-x="512" 
 />
    <glyph glyph-name="glyph429" horiz-adv-x="512" 
 />
    <glyph glyph-name="glyph430" horiz-adv-x="512" 
 />
    <glyph glyph-name="glyph431" horiz-adv-x="512" 
 />
    <glyph glyph-name="glyph432" horiz-adv-x="512" 
 />
    <glyph glyph-name="glyph433" horiz-adv-x="512" 
 />
    <glyph glyph-name="glyph434" horiz-adv-x="512" 
 />
    <glyph glyph-name="glyph435" horiz-adv-x="512" 
 />
    <glyph glyph-name="glyph436" horiz-adv-x="512" 
 />
    <glyph glyph-name="glyph437" horiz-adv-x="512" 
 />
    <glyph glyph-name="glyph438" horiz-adv-x="512" 
 />
    <glyph glyph-name="glyph439" horiz-adv-x="512" 
 />
    <glyph glyph-name="glyph440" horiz-adv-x="512" 
 />
    <glyph glyph-name="glyph441" horiz-adv-x="512" 
 />
    <glyph glyph-name="glyph442" horiz-adv-x="512" 
 />
    <glyph glyph-name="glyph443" horiz-adv-x="512" 
 />
    <glyph glyph-name="glyph444" horiz-adv-x="512" 
 />
    <glyph glyph-name="glyph445" horiz-adv-x="512" 
 />
    <glyph glyph-name="glyph446" horiz-adv-x="512" 
 />
    <glyph glyph-name="glyph447" horiz-adv-x="512" 
 />
    <glyph glyph-name="glyph448" horiz-adv-x="512" 
 />
    <glyph glyph-name="glyph449" horiz-adv-x="512" 
 />
    <glyph glyph-name="glyph450" horiz-adv-x="512" 
 />
    <glyph glyph-name="glyph451" horiz-adv-x="512" 
 />
    <glyph glyph-name="glyph452" horiz-adv-x="512" 
 />
    <glyph glyph-name="glyph453" horiz-adv-x="512" 
 />
    <glyph glyph-name="glyph454" horiz-adv-x="512" 
 />
    <glyph glyph-name="glyph455" horiz-adv-x="512" 
 />
    <glyph glyph-name="glyph456" horiz-adv-x="512" 
 />
    <glyph glyph-name="glyph457" horiz-adv-x="512" 
 />
    <glyph glyph-name="Alpha" unicode="&#x391;" 
d="M911 -62h-65q-174 364 -261 758q-9 32 -44 28q-23 -6 -36 -41q-139 -379 -325 -745h-66q-40 0 -38 -38q0 -32 37 -37h190q37 0 37 38q-3 37 -38 37h-28q54 112 97 196h190q32 5 37 39q-3 38 -39 38h-159q86 190 141 353q77 -328 219 -626h-59q-38 0 -38 -36q2 -40 37 -39
h213q33 5 37 38q1 38 -39 37z" />
    <glyph glyph-name="Beta" unicode="&#x392;" 
d="M683 324q-38 31 -54 34q61 20 114 46.5t69 129.5t-89 160q-224 102 -486 60q-41 -5 -34 -43q9 -37 43 -33l44 3v-734h-51q-43 0 -43 -38q0 -34 37 -38q307 -21 435.5 27t139.5 213q9 115 -125 213zM679 636q62 -39 53 -103.5t-80 -96.5t-215 -32h-71v282q167 15 313 -50z
M366 -53v378l68 4q107 0 202 -62q92 -84 76 -156q-29 -193 -346 -164z" />
    <glyph glyph-name="Gamma" unicode="&#x393;" 
d="M832 726h-529q-39 0 -39 -37v-755h-71q-37 0 -38 -38q1 -38 37 -38h228q36 0 37 39q-1 37 -38 37h-79v716h454v-102q0 -38 39 -37q37 1 37 38v139q0 38 -38 38z" />
    <glyph glyph-name="uni0394" unicode="&#x394;" 
d="M514 705q-27 3 -37 -23l-309 -767q-11 -23 -0.5 -37.5t33.5 -14.5h622q26 0 35 16.5t3 35.5l-312 765q-10 26 -35 25zM514 563l252 -624h-507z" />
    <glyph glyph-name="Epsilon" unicode="&#x395;" 
d="M799 -9q-37 0 -37 -37v-17h-413v333h293v-17q0 -39 38 -39q38 -2 38 37v118q0 39 -39 37q-37 0 -37 -38v-21h-293v314h409v-14q0 -36 38 -39q34 5 39 37v55q-1 36 -40 37h-563q-38 0 -38 -37q1 -39 37 -39h42v-724h-49q-38 0 -38 -37q2 -39 37 -39h577q37 2 38 36v58
q-1 36 -39 36z" />
    <glyph glyph-name="Zeta" unicode="&#x396;" 
d="M918 61q-36 18 -52 -13l-51 -101h-585q131 144 262 296l197 -176q25 -23 52 5q27 24 -4 52l-193 176q167 192 340 388q16 20 7 41t-35 21h-675q-26 0 -38 -24l-49 -113q-18 -35 19 -52q34 -12 51 19l40 94h566q-139 -156 -284 -322l-175 155q-27 24 -56 -5q-25 -28 4 -51
l175 -156q-153 -179 -319 -363q-13 -16 -6 -39t38 -23h693q23 0 32 19l61 122q16 36 -15 50z" />
    <glyph glyph-name="Eta" unicode="&#x397;" 
d="M833 -62h-28v698h38q32 5 37 37q-1 39 -38 39h-143q-37 0 -38 -39q0 -32 37 -37h30v-270h-439v270h38q32 5 37 37q-1 39 -38 39h-143q-38 0 -38 -39q0 -32 37 -37h31v-698h-19q-38 0 -38 -37q1 -39 37 -39h127q32 5 37 38q-2 38 -39 38h-29v352h439v-352h-33
q-38 0 -38 -37q0 -39 37 -39h141q33 5 37 38q-1 38 -39 38z" />
    <glyph glyph-name="Theta" unicode="&#x398;" 
d="M511 723q-166 1 -256.5 -136t-90.5 -296q0 -153 90.5 -289t256.5 -140q169 4 259.5 140t87.5 289q3 159 -87.5 292t-259.5 140zM511 -61q-131 7 -201 116.5t-70 235.5q0 129 70 241t201 115q134 -11 204 -119t66 -237q4 -126 -66 -235.5t-204 -116.5zM653 422
q-37 -1 -37 -38v-62h-210v62q0 37 -37 38q-39 -1 -39 -37v-203q4 -34 38 -38q38 2 38 39v62h210v-63q0 -36 37 -38q39 1 39 38v202q0 37 -39 38z" />
    <glyph glyph-name="Iota" unicode="&#x399;" 
d="M594 -63h-44v698h53q33 4 38 37q-1 40 -38 39h-174q-38 1 -38 -39q0 -33 38 -37h45v-698h-48q-39 0 -39 -37q0 -39 38 -39h171q32 5 37 38q-2 38 -39 38z" />
    <glyph glyph-name="Kappa" unicode="&#x39a;" 
d="M827 -56h-49l-447 430l374 286h32q33 5 38 38q-5 38 -39 38h-150q-38 0 -38 -38q0 -33 37 -38l-266 -195v203h30q33 4 38 38q-5 38 -38 38h-151q-38 0 -38 -38q0 -34 38 -38h45v-725h-45q-38 0 -38 -37q0 -39 37 -39h164q36 0 37 39q-5 37 -38 37h-41v342l361 -341
q-38 0 -38 -37q1 -39 37 -39h149q37 0 37 39q-5 37 -38 37z" />
    <glyph glyph-name="Lambda" unicode="&#x39b;" 
d="M910 -60h-66q-170 355 -260 747q-4 33 -35 34.5t-42 -44.5q-138 -382 -324 -738h-70q-38 0 -38 -38q1 -38 37 -38h190q36 0 37 37q-2 39 -38 39h-20q144 297 263 594q80 -304 218 -593h-62q-37 0 -38 -37q-1 -39 37 -39h212q38 0 38 38q-3 38 -39 38z" />
    <glyph glyph-name="Mu" unicode="&#x39c;" 
d="M913 -61h-7v767q0 27 -28 34t-44 -15l-324 -457l-321 472q-16 21 -44.5 15t-26.5 -39v-778h-7q-38 0 -38 -38q0 -34 38 -38h98q37 0 38 38q-5 38 -38 38h-15v654l283 -414q10 -15 30.5 -16.5t34.5 15.5l288 406v-644h-26q-38 0 -38 -38q0 -33 37 -38h111q36 0 37 38
q-2 38 -38 38z" />
    <glyph glyph-name="Nu" unicode="&#x39d;" 
d="M874 752h-158q-39 0 -39 -39q0 -32 38 -37h38v-655q-245 344 -502 702q-18 24 -44.5 14t-26.5 -38v-758h-25q-39 0 -39 -39q0 -33 39 -37h139q38 0 38 37q-1 39 -38 39h-37v639q245 -337 505 -697q15 -19 38.5 -11.5t28.5 30.5v774h46q32 5 37 37q-2 39 -38 39z" />
    <glyph glyph-name="Xi" unicode="&#x39e;" 
d="M177 685q-36 0 -38 -38q1 -39 37 -39h673q36 0 37 38q-1 39 -39 39h-670zM260 357q-38 1 -38 -36q-1 -39 37 -39h507q37 0 37 39q0 36 -38 36h-505zM192 -59q-38 -1 -38 -39q0 -37 37 -37h642q39 0 38 37q-1 39 -39 39h-640z" />
    <glyph glyph-name="Omicron" unicode="&#x39f;" 
d="M172 295q0 -137 64.5 -277.5t274.5 -154.5q203 0 273 144.5t69 287.5q4 147 -67.5 284t-274.5 145q-206 0 -276.5 -143t-62.5 -286zM252 295q-8 113 42 228t217 125q166 -14 214 -123.5t44 -229.5q-3 -113 -49.5 -232.5t-208.5 -124.5q-169 19 -214 132t-45 225z" />
    <glyph glyph-name="Pi" unicode="&#x3a0;" 
d="M925 -65h-75v721q0 38 -39 38h-609q-38 0 -38 -38v-721h-64q-38 0 -38 -37q1 -39 37 -39h213q36 0 37 38q-1 38 -39 38h-70v682h534v-682h-60q-37 0 -38 -38q2 -38 37 -38h213q36 0 37 39q0 37 -38 37z" />
    <glyph glyph-name="Rho" unicode="&#x3a1;" 
d="M788 492q7 109 -133 179t-383 43q-38 0 -38 -42q0 -34 42 -34h37v-697h-45q-38 0 -38 -37q1 -37 37 -39h164q37 0 37 38q-4 38 -38 38h-41v324q190 -10 329 89q63 49 70 138zM666 407q-118 -76 -277 -65v296q152 4 241 -35.5t82.5 -102.5t-46.5 -93z" />
    <glyph glyph-name="Sigma" unicode="&#x3a3;" 
d="M218 691q-24 0 -33.5 -16.5t-1.5 -36.5l198 -360l-217 -363q-13 -23 -1.5 -39t35.5 -16h600q31 0 37 34l22 130q3 37 -33 43q-40 7 -43 -32l-14 -99h-502l191 321q12 18 0 38l-176 320h473l39 -118q13 -37 48 -29q34 13 25 48l-46 151q-8 24 -38 24h-563z" />
    <glyph glyph-name="Tau" unicode="&#x3a4;" 
d="M235 688l-83 -95q-23 -28 6 -56q30 -14 52 9l74 80h193v-687h-45q-37 0 -38 -38q1 -38 37 -38h183q36 0 37 40q0 36 -38 36h-60v687h174l96 -74q28 -19 52 5q21 32 -5 56l-105 80q-11 10 -26 9h-470q-27 0 -34 -14z" />
    <glyph glyph-name="Upsilon" unicode="&#x3a5;" 
d="M855 671q-63 66 -155.5 66t-137.5 -44.5t-52 -59.5q-5 15 -50 59.5t-138 44.5t-151.5 -64t-56.5 -141q-1 -42 40 -42q35 0 34 42q0 52 37 91t97.5 39t102.5 -50.5t46 -128.5v-548h-67q-38 0 -38 -39q-1 -37 37 -37h212q35 0 36 37q-1 38 -37 39h-67v544q0 78 46 130.5
t106.5 52.5t98.5 -40q36 -38 32 -91q0 -34 33 -41q40 -1 43 33q7 86 -51 148z" />
    <glyph glyph-name="Phi" unicode="&#x3a6;" 
d="M906 291q0 150 -112 233t-242 87v63h76q36 0 37 39q0 37 -38 37h-226q-36 0 -38 -38q1 -38 37 -38h76v-63q-127 -4 -242.5 -77.5t-115.5 -242.5q11 -143 121 -227.5t237 -91.5v-37h-75q-35 0 -38 -38q1 -38 37 -38h228q36 0 37 38q0 38 -38 38h-75v37q130 7 240 91.5
t114 227.5zM830 291q-8 -109 -94 -172.5t-184 -70.5v487q98 -4 186 -66t92 -178zM194 291q1 135 92 187.5t190 56.5v-487q-99 7 -184.5 70.5t-97.5 172.5z" />
    <glyph glyph-name="Chi" unicode="&#x3a7;" 
d="M849 -54h-48l-255 382l191 312h72q38 0 38 39q-5 37 -39 37h-179q-40 0 -39 -38q0 -33 37 -38h20l-144 -238l-163 238h25q35 0 37 38q-2 38 -39 38h-183q-38 0 -38 -37q-2 -39 37 -39h73l204 -312l-229 -383h-51q-40 0 -38 -38q-2 -37 37 -37h183q32 5 37 37q0 38 -38 38
h-39l185 315l208 -314h-61q-38 0 -38 -37q2 -39 37 -39h201q37 0 38 39q-5 37 -39 37z" />
    <glyph glyph-name="Psi" unicode="&#x3a8;" 
d="M795 348q119 145 88 369q-4 40 -43 40q-38 -3 -33 -39q27 -199 -66 -319q-79 -84 -196 -84v360h59q37 0 38 38q0 38 -38 38h-199q-37 0 -38 -39q0 -37 38 -37h63v-359q-98 7 -189.5 111t-76.5 282q4 45 -37 46q-35 5 -39 -46q-15 -205 98.5 -333.5t243.5 -136.5v-303h-63
q-35 0 -38 -39q3 -38 38 -37h199q35 -1 38 38q0 38 -38 38h-59v303q145 0 250 109z" />
    <glyph glyph-name="uni03A9" unicode="&#x3a9;" 
d="M836 -64h-176v69q222 98 207 363q-11 149 -102 260.5t-245 111.5q-151 0 -243 -105.5t-104 -266.5q-15 -241 188 -359v-73h-180q-38 0 -38 -37q1 -39 37 -39h220q38 0 38 50v123q0 28 -24 34q-180 95 -165 301q12 132 83 214t188 82q120 0 190 -88t80 -208
q17 -228 -179 -297q-28 -6 -28 -37v-124q0 -50 38 -50h216q36 0 37 39q-1 37 -38 37z" />
    <glyph glyph-name="glyph482" horiz-adv-x="512" 
 />
    <glyph glyph-name="glyph483" horiz-adv-x="512" 
 />
    <glyph glyph-name="glyph484" horiz-adv-x="512" 
 />
    <glyph glyph-name="glyph485" horiz-adv-x="512" 
 />
    <glyph glyph-name="glyph486" horiz-adv-x="512" 
 />
    <glyph glyph-name="glyph487" horiz-adv-x="512" 
 />
    <glyph glyph-name="glyph488" horiz-adv-x="512" 
 />
    <glyph glyph-name="alpha" unicode="&#x3b1;" 
d="M814 496q0 38 -33 42q-39 5 -43 -32q-22 -176 -74 -324q1 129 -32 198t-104.5 109t-194 -34t-114.5 -304t132.5 -268t179 -6.5t68.5 54.5q16 -45 67 -61.5t113 27.5q30 25 12 55q-24 26 -61 6q-10 -6 -23.5 -11t-21 -1.5t-14.5 22t-7 49.5q120 226 150 479zM588 40
q-21 -42 -64 -72t-103.5 -23t-97 59t-36.5 188t89.5 194.5t134 22t54 -67.5t20 -83t12.5 -109.5t-9 -108.5z" />
    <glyph glyph-name="beta" unicode="&#x3b2;" 
d="M428 760q-90 -46 -118 -209l-121 -642q-8 -37 33 -45q38 -7 44 36l121 643q27 124 75 147q82 37 158 -1.5t115.5 -88.5t-38.5 -105t-262 -66q-29 0 -33.5 -31.5t23.5 -39.5q166 -60 225 -141t33.5 -126t-112 -60t-199.5 51q-33 23 -53 -14q-14 -34 14 -53
q140 -76 251 -55t146.5 70.5t35.5 89.5t-42 119t-163 134q59 13 141.5 48.5t112 97t-16.5 123.5t-146.5 116t-223.5 2z" />
    <glyph glyph-name="gamma" unicode="&#x3b3;" 
d="M235 519q-14 -29 14 -52q26 -24 53 10q14 17 34 39t42 7t27.5 -182.5t-39.5 -436.5q-6 -33 33 -43q40 -3 43 31q42 398 332 646q29 17 18 50q-14 32 -49 20q-207 -122 -267 -336q8 168 -13.5 244t-71 91t-89 -17t-67.5 -71z" />
    <glyph glyph-name="delta" unicode="&#x3b4;" 
d="M629 403q-135 64 -162 146.5t-3.5 111t91 9t138.5 -119.5q22 -25 52 -9q28 24 5 57q-88 126 -194 145.5t-152 -34.5t-24 -144t86 -144q-219 -35 -238 -275q3 -116 84.5 -195.5t197.5 -82.5q120 3 203.5 82.5t83.5 195.5q-4 174 -168 257zM510 -56q-83 4 -142.5 61.5
t-63.5 140.5q4 87 63.5 146.5t142.5 59.5q88 0 149.5 -59.5t61.5 -146.5q0 -84 -61.5 -141t-149.5 -61z" />
    <glyph glyph-name="epsilon" unicode="&#x3b5;" 
d="M734 477q-144 119 -248.5 81t-142 -86t-31.5 -121t62.5 -100t61.5 -27q-10 0 -76.5 -22t-80 -126.5t108.5 -180t299 28.5q32 19 18 51q-19 33 -52 14q-132 -80 -218 -39.5t-80 108.5t86.5 88t188.5 24q34 0 34.5 35.5t-33.5 40.5q-97 15 -152 38.5t-74.5 43.5t-12 60
t97.5 81.5t192 -46.5q27 -19 52 0q24 30 0 54z" />
    <glyph glyph-name="zeta" unicode="&#x3b6;" 
d="M352 179q-63 12 21 178t392 346q27 18 9 51q-17 30 -53 10q-87 -52 -188 -118q-35 -19 -55 0t11 98q10 38 -23 48q-37 16 -49 -21q-42 -118 -15.5 -159t48.5 -36q-149 -148 -193.5 -303.5t130 -185t266.5 -59t64 -52t-72 -40.5q-37 -5 -30 -46q21 -34 54 -25q50 15 97 46
t38.5 93t-135 98t-317.5 77z" />
    <glyph glyph-name="eta" unicode="&#x3b7;" 
d="M715 505q-43 86 -127 90.5t-137.5 -40t-69.5 -85.5q0 62 -40.5 113t-92.5 55q-29 2 -33 -38q-4 -30 37 -38q20 -4 42 -46t22 -114t-16.5 -156t-35.5 -206q-5 -34 33 -41q37 -6 43 29q26 117 44.5 243t80 188t113 60.5t71.5 -53.5q81 -279 -20 -558q-14 -28 21 -48
q38 -9 51 30q113 308 14 615z" />
    <glyph glyph-name="theta" unicode="&#x3b8;" 
d="M772 449q16 305 -148 331q-148 28 -233 -112.5t-120 -284.5q-34 -132 -27.5 -295t108 -204.5t166.5 -1.5q216 143 254 567zM605 704q79 -28 85.5 -136t-7.5 -193h-336q30 109 93.5 225.5t164.5 103.5zM478 -48q-43 -22 -102 3t-59 141t14 202h339q-48 -245 -192 -346z
" />
    <glyph glyph-name="iota" unicode="&#x3b9;" 
d="M456 531q-42 -146 -66 -292t-12.5 -246t61.5 -122.5t103 21t98 109.5q18 34 -9 54q-33 22 -53 -11q-37 -54 -82 -91t-41.5 117t78.5 445q4 40 -30 44q-36 10 -47 -28z" />
    <glyph glyph-name="kappa" unicode="&#x3ba;" 
d="M780 513q-55 32 -112.5 19.5t-77 -56t-54.5 -91.5t-99 -62.5t-78 -18.5l35 201q3 39 -34 43q-32 10 -43 -33l-101 -612q-4 -35 29 -43q39 -5 43 29l57 326q35 9 70.5 16.5t73.5 -17t20 -143t73.5 -156t178.5 40.5q24 25 8 57q-24 27 -58 3q-46 -42 -91.5 -38.5
t-39.5 68.5t7.5 123.5t-58.5 107.5q62 39 85 86.5t35.5 71t41 26.5t61.5 -20q36 -12 47 23q13 32 -19 49z" />
    <glyph glyph-name="lambda" unicode="&#x3bb;" 
d="M848 9q-25 24 -53 -5q-22 -24 -54.5 -47.5t-81 2t-70 108.5t-27.5 229.5t-23 252t-75 146.5t-102.5 14t-68.5 -63q-20 -28 9 -52q31 -19 54 10q14 17 27 28.5t39 2t44 -86.5t18 -207q-130 -183 -308 -424q-22 -26 10 -52q29 -18 53 10q120 160 254 345q6 -79 31 -186
t104.5 -146.5t134 -8t90.5 77.5q18 29 -5 52z" />
    <glyph glyph-name="uni03BC" unicode="&#x3bc;" 
d="M864 -15q-25 24 -54 -5q-18 -21 -35 -31t-33 6t-16 61.5t-1.5 96t31.5 362.5q3 36 -33 38q-38 7 -43 -29q-49 -383 -82 -452.5t-63.5 -88t-110 35.5t-73.5 261.5t18 323.5q4 35 -30 39q-41 10 -48 -30q-55 -330 -112 -643q-8 -38 30 -49q39 -4 43 34q23 119 33 213
q7 -160 111 -224.5t171.5 -27t84.5 100.5q6 -62 59 -88.5t89 -6.5t64 48q22 32 0 55z" />
    <glyph glyph-name="nu" unicode="&#x3bd;" 
d="M196 399q-14 -30 20 -51q36 -14 51 24q23 51 48.5 106.5t66 47t70.5 -174.5t22 -450q0 -26 22 -36.5t44 8.5q303 289 281 629q-2 30 -43 27q-35 -6 -29 -43q4 -271 -202 -494q3 252 -31 425.5t-119 187.5t-127.5 -57.5t-73.5 -148.5z" />
    <glyph glyph-name="xi" unicode="&#x3be;" 
d="M763 570q38 -7 43 30q5 41 -34 46q-37 4 -90 11q-44 10 -28 21t63 20q33 4 30 42q-10 40 -49 30q-41 -7 -100.5 -34t-40.5 -79q-111 4 -182 -49t-69 -113.5t38 -91.5t44 -35q-119 -19 -147 -117t73 -169.5t246.5 -69t80 -22t-128.5 -55.5q-36 -16 -20 -51q20 -33 52 -20
q104 42 167.5 83.5t55 90.5t-161 46.5t-232 45.5t-63.5 94.5t98 68.5t170 24t187 -2q35 0 33 38t-33 38q-99 2 -193.5 6.5t-141.5 38t-48.5 65t95 69t286.5 0.5z" />
    <glyph glyph-name="omicron" unicode="&#x3bf;" 
d="M337 489q-111 -92 -118.5 -312.5t238.5 -305.5q109 -27 217.5 63.5t127.5 236.5q12 324 -255 377q-113 15 -210 -59zM467 -56q-179 68 -175 240t93 244q68 55 152 44q107 -18 155.5 -103.5t32.5 -188.5q-15 -113 -97 -184.5t-161 -51.5z" />
    <glyph glyph-name="pi" unicode="&#x3c0;" 
d="M899 39q-33 19 -53 -16q-29 -52 -86 -82.5t-87 96t-5 411.5h129q38 0 38 37q-2 39 -39 39h-598q-38 0 -38 -38t37 -38h128v0q4 -275 -134 -521q-16 -28 14 -52q31 -18 53 14q155 268 144 559h190q-26 -480 59.5 -547t156 -18t100.5 97q21 37 -9 59z" />
    <glyph glyph-name="rho" unicode="&#x3c1;" 
d="M629 597q-91 30 -169 -33.5t-139 -238t-121 -411.5q-9 -31 29 -47q32 -14 47 29q38 146 74 273q24 -112 124.5 -139.5t189.5 34t117 189.5q52 270 -152 344zM708 272q-21 -103 -84.5 -146.5t-125 -25.5t-81.5 94t11 187q28 75 77.5 121.5t107.5 18.5q74 -25 94 -100.5
t1 -148.5z" />
    <glyph glyph-name="glyph506" horiz-adv-x="512" 
 />
    <glyph glyph-name="sigma" unicode="&#x3c3;" 
d="M842 555q-149 -4 -238 -7.5t-112 -7.5q-131 -8 -210 -107.5t-79 -230.5q0 -128 79 -229.5t211 -109.5q136 8 213 109.5t81 229.5q-4 177 -115 270q66 3 175 7q38 -1 38 38q-4 40 -43 38zM711 202q-4 -96 -58 -175.5t-160 -87.5q-97 8 -155.5 88t-58.5 175q0 98 58.5 178
t155.5 84q106 -4 162 -81.5t56 -180.5z" />
    <glyph glyph-name="tau" unicode="&#x3c4;" 
d="M244 516q-39 0 -39 -39q2 -37 37 -38h319q-97 -112 -100.5 -254t29 -223.5t88.5 -98t138 72.5q20 31 -9 53q-26 21 -53 -11q-66 -76 -93 -3t-23.5 198.5t63.5 192.5t98 73h76q44 1 45 39q-1 38 -38 38h-538z" />
    <glyph glyph-name="upsilon" unicode="&#x3c5;" 
d="M204 437q-19 -29 5 -56q28 -19 52 5q45 55 71 63.5t-7 -75t-34.5 -209.5t81.5 -228.5t197 -62t179.5 193t78.5 271t-46 196.5q-24 30 -53 5q-28 -23 -6 -52q36 -50 16 -175t-83 -236.5t-125 -132t-128.5 91t-9 291.5t7.5 210t-104 -14t-92 -86z" />
    <glyph glyph-name="phi" unicode="&#x3c6;" 
d="M617 523l43 163q7 37 -30 43q-32 10 -46 -24l-42 -164q-141 4 -232.5 -69t-87.5 -190q15 -187 188 -246l-33 -128q-5 -34 28 -44q35 -9 44 26l34 130q146 -2 231 69.5t93 192.5q-15 189 -190 241zM299 282q-5 86 64.5 136.5t158.5 46.5l-93 -354q-116 41 -130 171z
M504 94l94 357q121 -37 133 -169q-4 -83 -69.5 -135.5t-157.5 -52.5z" />
    <glyph glyph-name="chi" unicode="&#x3c7;" 
d="M803 -37q-25 23 -52 1q-50 -40 -100.5 -24t-81.5 89t-42 182l217 317q16 32 -11 52q-29 21 -51 -10q-167 -236 -165 -235q-1 58 -19 148.5t-92 112.5t-118 -24t-70 -109q-20 -36 15 -59q38 -17 55 27q34 84 76.5 96t60.5 -60t21.5 -143t0.5 -93l-206 -299q-23 -32 10 -57
q30 -21 51 14q163 233 158 227q35 -196 145.5 -238t192.5 28q29 28 5 57z" />
    <glyph glyph-name="psi" unicode="&#x3c8;" 
d="M710 463q-31 24 -53 -5q-24 -26 4 -52q62 -50 62 -130.5t-63.5 -137t-163.5 -47.5l156 590q8 35 -26 44q-37 14 -46 -25l-156 -593q-119 41 -122.5 158t83.5 163q31 19 14 52q-19 29 -52 14q-125 -69 -121 -236t179 -226l-36 -124q-9 -33 29 -48q38 -9 47 25l34 132
q150 -8 237 68t85 192.5t-91 185.5z" />
    <glyph glyph-name="omega" unicode="&#x3c9;" 
d="M301 520q-92 -54 -155.5 -181.5t-24.5 -255t95.5 -175.5t119.5 -44t100 50.5t52.5 103t17.5 82.5q4 -37 39.5 -132.5t156.5 -105.5t181 105.5t15.5 278.5t-226.5 266q-27 14 -52 -9q-13 -29 9 -56q155 -84 190 -214t6.5 -185t-59.5 -83.5t-86 -20t-85.5 113t-56.5 280.5
q-4 38 -39 34q-32 0 -33 -42q-4 -148 -31.5 -236.5t-47 -120t-56 -33.5t-65.5 28.5t-58 87t-27 138t47.5 148.5t110.5 111q30 21 14 54q-18 32 -52 13z" />
    <glyph glyph-name="glyph514" horiz-adv-x="512" 
 />
    <glyph glyph-name="glyph515" horiz-adv-x="512" 
 />
    <glyph glyph-name="glyph516" horiz-adv-x="512" 
 />
    <glyph glyph-name="glyph517" horiz-adv-x="512" 
 />
    <glyph glyph-name="glyph518" horiz-adv-x="512" 
 />
    <glyph glyph-name="uni0401" unicode="&#x401;" 
d="M367 754q39 3 39 38v16q0 37 -39 38q-38 1 -38 -37v-18q1 -37 38 -37zM623 754q39 -3 39 38v16q0 39 -39 38q-37 1 -37 -38v-17q0 -38 37 -37zM799 -9q-37 0 -37 -37v-17h-413v333h293v-17q0 -39 38 -39q38 -2 38 37v118q0 39 -39 37q-37 0 -37 -38v-21h-293v314h409v-14
q0 -36 38 -39q34 5 39 37v55q-1 36 -40 37h-563q-38 0 -38 -37q1 -39 37 -39h42v-724h-49q-38 0 -38 -37q2 -39 37 -39h577q37 2 38 36v58q-1 36 -39 36z" />
    <glyph glyph-name="glyph520" horiz-adv-x="512" 
 />
    <glyph glyph-name="glyph521" horiz-adv-x="512" 
 />
    <glyph glyph-name="glyph522" horiz-adv-x="512" 
 />
    <glyph glyph-name="glyph523" horiz-adv-x="512" 
 />
    <glyph glyph-name="glyph524" horiz-adv-x="512" 
 />
    <glyph glyph-name="glyph525" horiz-adv-x="512" 
 />
    <glyph glyph-name="glyph526" horiz-adv-x="512" 
 />
    <glyph glyph-name="glyph527" horiz-adv-x="512" 
 />
    <glyph glyph-name="glyph528" horiz-adv-x="512" 
 />
    <glyph glyph-name="glyph529" horiz-adv-x="512" 
 />
    <glyph glyph-name="glyph530" horiz-adv-x="512" 
 />
    <glyph glyph-name="glyph531" horiz-adv-x="512" 
 />
    <glyph glyph-name="glyph532" horiz-adv-x="512" 
 />
    <glyph glyph-name="uni0410" unicode="&#x410;" 
d="M911 -62h-65q-174 364 -261 758q-9 32 -44 28q-23 -6 -36 -41q-139 -379 -325 -745h-66q-40 0 -38 -38q0 -32 37 -37h190q37 0 37 38q-3 37 -38 37h-28q54 112 97 196h190q32 5 37 39q-3 38 -39 38h-159q86 190 141 353q77 -328 219 -626h-59q-38 0 -38 -36q2 -40 37 -39
h213q33 5 37 38q1 38 -39 37z" />
    <glyph glyph-name="uni0411" unicode="&#x411;" 
d="M737 306q-161 114 -351 92v243h328q39 -1 37 37q1 39 -38 39h-365q-38 0 -38 -37v-737h-55q-39 6 -43 -38q4 -41 41 -38q301 -26 511 144q48 56 48.5 141.5t-75.5 153.5zM703 61q-124 -114 -317 -114v376q163 18 299 -75q46 -39 50 -93.5t-32 -93.5z" />
    <glyph glyph-name="uni0412" unicode="&#x412;" 
d="M683 324q-38 31 -54 34q61 20 114 46.5t69 129.5t-89 160q-224 102 -486 60q-41 -5 -34 -43q9 -37 43 -33l44 3v-734h-51q-43 0 -43 -38q0 -34 37 -38q307 -21 435.5 27t139.5 213q9 115 -125 213zM679 636q62 -39 53 -103.5t-80 -96.5t-215 -32h-71v282q167 15 313 -50z
M366 -53v378l68 4q107 0 202 -62q92 -84 76 -156q-29 -193 -346 -164z" />
    <glyph glyph-name="uni0413" unicode="&#x413;" 
d="M322 710q-40 0 -40 -37v-776q0 -35 39 -37q38 2 38 39v734h347q37 0 37 40q-1 37 -38 37h-383z" />
    <glyph glyph-name="uni0414" unicode="&#x414;" 
d="M855 -65q-54 27 -109 48v703h16q35 0 37 40q-2 37 -38 37h-426q-22 0 -32 -11.5t-6 -29.5q49 -425 -142 -805q-15 -27 3.5 -49.5t53.5 -2.5q297 174 609 4q32 -14 48 14q16 35 -14 52zM282 -12q119 266 96 698h292v-680q-199 57 -388 -18z" />
    <glyph glyph-name="uni0415" unicode="&#x415;" 
d="M799 -9q-37 0 -37 -37v-17h-413v333h293v-17q0 -39 38 -39q38 -2 38 37v118q0 39 -39 37q-37 0 -37 -38v-21h-293v314h409v-14q0 -36 38 -39q34 5 39 37v55q-1 36 -40 37h-563q-38 0 -38 -37q1 -39 37 -39h42v-724h-49q-38 0 -38 -37q2 -39 37 -39h577q37 2 38 36v58
q-1 36 -39 36z" />
    <glyph glyph-name="uni0416" unicode="&#x416;" 
d="M908 -78l-122 347l107 284q15 37 -20 50q-35 17 -50 -20l-104 -276h-171v326q0 39 -39 38q-36 2 -37 -38v-326h-171l-103 275q-17 36 -50 20q-34 -15 -23 -47l110 -286l-125 -352q-10 -29 24 -46q36 -13 49 25l121 334h168v-329q1 -39 38 -38q38 -1 38 38v329h171
l119 -336q18 -32 51 -24q35 13 19 52z" />
    <glyph glyph-name="uni0417" unicode="&#x417;" 
d="M262 595q-5 -34 28 -48q38 -9 47 26q7 32 64.5 50t146 18t135 -46.5t44.5 -104t-54.5 -109t-173.5 -54.5h-46q-36 -5 -33.5 -40t37.5 -37h35q111 12 175.5 -39t64.5 -111.5t-61.5 -110t-140.5 -49.5t-140.5 16.5t-89.5 71.5q-19 39 -52 23q-33 -14 -24 -47
q40 -82 117.5 -113t191 -29t195 75.5t79.5 163t-51 136.5t-79 60q69 31 98.5 92.5t25 129.5t-68.5 131t-185 65t-197.5 -33.5t-87.5 -86.5z" />
    <glyph glyph-name="uni0418" unicode="&#x418;" 
d="M768 715q-39 1 -39 -37v-70l-432 -518v587q0 39 -39 38q-38 -1 -38 -37v-780q-1 -36 38 -38q39 0 39 39v73l432 517v-591q0 -36 39 -37q37 1 37 38v778q0 39 -37 38z" />
    <glyph glyph-name="uni0419" unicode="&#x419;" 
d="M514 646q71 0 130 41.5t62 113.5q0 38 -38 38q-33 0 -38 -37q-4 -37 -38.5 -58t-77.5 -21q-39 3 -74.5 22.5t-45.5 56.5q-9 39 -39 37q-39 -1 -37 -38q7 -73 68.5 -114t127.5 -41zM768 715q-39 1 -39 -37v-70l-432 -518v587q0 39 -39 38q-38 -1 -38 -37v-780
q-1 -36 38 -38q39 0 39 39v73l432 517v-591q0 -36 39 -37q37 1 37 38v778q0 39 -37 38z" />
    <glyph glyph-name="uni041A" unicode="&#x41a;" 
d="M762 653q-43 27 -93.5 2.5t-71.5 -76t-72.5 -134t-193.5 -86.5v297q1 38 -38 38q-38 1 -38 -38v-755q0 -36 37 -38q40 -1 39 39v383q81 7 154 34l200 -429q19 -32 52 -18q33 19 19 50l-203 435q52 35 74.5 105t50.5 102t52 21q37 -9 52 18q12 31 -20 50z" />
    <glyph glyph-name="uni041B" unicode="&#x41b;" 
d="M745 657h-425q-38 0 -38 -37v-478q-1 -100 -41.5 -151.5t-79.5 -51.5q-37 4 -42 -36q5 -41 41 -39q68 0 133 73.5t65 204.5v439h349v-680q0 -37 38 -37q38 1 39 38v717q2 39 -39 38z" />
    <glyph glyph-name="uni041C" unicode="&#x41c;" 
d="M913 -61h-7v767q0 27 -28 34t-44 -15l-324 -457l-321 472q-16 21 -44.5 15t-26.5 -39v-778h-7q-38 0 -38 -38q0 -34 38 -38h98q37 0 38 38q-5 38 -38 38h-15v654l283 -414q10 -15 30.5 -16.5t34.5 15.5l288 406v-644h-26q-38 0 -38 -38q0 -33 37 -38h111q36 0 37 38
q-2 38 -38 38z" />
    <glyph glyph-name="uni041D" unicode="&#x41d;" 
d="M833 -62h-28v698h38q32 5 37 37q-1 39 -38 39h-143q-37 0 -38 -39q0 -32 37 -37h30v-270h-439v270h38q32 5 37 37q-1 39 -38 39h-143q-38 0 -38 -39q0 -32 37 -37h31v-698h-19q-38 0 -38 -37q1 -39 37 -39h127q32 5 37 38q-2 38 -39 38h-29v352h439v-352h-33
q-38 0 -38 -37q0 -39 37 -39h141q33 5 37 38q-1 38 -39 38z" />
    <glyph glyph-name="uni041E" unicode="&#x41e;" 
d="M172 295q0 -137 64.5 -277.5t274.5 -154.5q203 0 273 144.5t69 287.5q4 147 -67.5 284t-274.5 145q-206 0 -276.5 -143t-62.5 -286zM252 295q-8 113 42 228t217 125q166 -14 214 -123.5t44 -229.5q-3 -113 -49.5 -232.5t-208.5 -124.5q-169 19 -214 132t-45 225z" />
    <glyph glyph-name="uni041F" unicode="&#x41f;" 
d="M738 654h-453q-38 0 -38 -37v-720q0 -37 38 -37q38 2 38 38v680h378v-680q0 -36 38 -37q38 0 38 38v717q0 38 -39 38z" />
    <glyph glyph-name="uni0420" unicode="&#x420;" 
d="M788 492q7 109 -133 179t-383 43q-38 0 -38 -42q0 -34 42 -34h37v-697h-45q-38 0 -38 -37q1 -37 37 -39h164q37 0 37 38q-4 38 -38 38h-41v324q190 -10 329 89q63 49 70 138zM666 407q-118 -76 -277 -65v296q152 4 241 -35.5t82.5 -102.5t-46.5 -93z" />
    <glyph glyph-name="uni0421" unicode="&#x421;" 
d="M766 746q-34 -15 -23 -46q11 -32 15 -41q-172 109 -399 24t-233.5 -394.5t288.5 -391t470 100.5q22 29 -9 50q-25 14 -56 -17q-149 -126 -387 -59t-228.5 324.5t221.5 324.5t383 -98q26 -25 47 -13q27 15 20 47q-23 76 -60 165q-17 38 -49 24z" />
    <glyph glyph-name="uni0422" unicode="&#x422;" 
d="M235 688l-83 -95q-23 -28 6 -56q30 -14 52 9l74 80h193v-687h-45q-37 0 -38 -38q1 -38 37 -38h183q36 0 37 40q0 36 -38 36h-60v687h174l96 -74q28 -19 52 5q21 32 -5 56l-105 80q-11 10 -26 9h-470q-27 0 -34 -14z" />
    <glyph glyph-name="uni0423" unicode="&#x423;" 
d="M714 715q-32 15 -48 -19l-152 -385l-244 371q-22 35 -54 12q-28 -20 -9 -50l271 -418q-83 -217 -135 -256.5t-121 -27.5q-48 10 -53 -33q-4 -38 39 -44q98 -15 186 39.5t342 761.5q12 35 -22 49z" />
    <glyph glyph-name="uni0424" unicode="&#x424;" 
d="M802 319q-11 255 -252 304v117q0 38 -38 38t-38 -37v-118q-241 -49 -252 -304q15 -251 252 -307v-114q0 -35 38 -38q38 1 38 39v113q241 56 252 307zM298 319q7 185 176 226v-453q-165 45 -176 227zM550 92v453q169 -41 176 -226q-7 -182 -176 -227z" />
    <glyph glyph-name="uni0425" unicode="&#x425;" 
d="M849 -62h-48l-255 382l191 312h72q38 0 38 39q-5 37 -39 37h-179q-40 0 -39 -38q0 -33 37 -38h20l-144 -238l-163 238h25q35 0 37 38q-2 38 -39 38h-183q-38 0 -38 -37q-2 -39 37 -39h73l204 -312l-229 -383h-51q-40 0 -38 -38q-2 -37 37 -37h183q32 5 37 37q0 38 -38 38
h-39l185 315l208 -314h-61q-38 0 -38 -37q2 -39 37 -39h201q37 0 38 39q-5 37 -39 37z" />
    <glyph glyph-name="uni0426" unicode="&#x426;" 
d="M783 26h-19v666q0 38 -38 38t-38 -37v-667h-409v666q0 38 -39 38q-37 1 -37 -38v-705q0 -38 37 -38h505v-49q0 -36 37 -38q39 2 39 38v87q0 39 -38 39z" />
    <glyph glyph-name="uni0427" unicode="&#x427;" 
d="M708 708q-38 0 -38 -38v-261q-4 -47 -44.5 -84t-121.5 -33.5t-130.5 94t-27.5 275.5q7 40 -38 44q-34 3 -38 -34q-23 -214 47 -333t179.5 -123t173.5 48v-366q1 -37 37 -38q39 0 39 38v773q0 38 -38 38z" />
    <glyph glyph-name="uni0428" unicode="&#x428;" 
d="M865 677q-39 1 -39 -37v-706h-278v694q0 38 -39 38q-37 1 -37 -37v-695h-274v705q0 38 -39 38q-37 0 -37 -37v-745q0 -37 38 -37h704q38 0 38 38v743q0 38 -37 38z" />
    <glyph glyph-name="uni0429" unicode="&#x429;" 
d="M924 15h-55v654q0 38 -37 38q-39 0 -39 -37v-655h-255v643q0 38 -38 38q-38 -1 -38 -38v-643h-252v654q0 38 -39 38q-37 -1 -37 -37v-693q0 -37 37 -37h716v-39q0 -39 37 -38q39 2 39 38v76q0 38 -39 38z" />
    <glyph glyph-name="uni042A" unicode="&#x42a;" 
d="M783 309q-161 110 -351 93v280q0 39 -38 39h-202q-39 0 -40 -39q1 -38 38 -38h166v-702h-56q-41 1 -38 -37q0 -36 37 -38q294 -26 515 140q59 60 53 148t-84 154zM749 61q-136 -115 -317 -115v379q163 18 299 -73q54 -39 56 -98t-38 -93z" />
    <glyph glyph-name="uni042B" unicode="&#x42b;" 
d="M525 328q-100 81 -227 70v281q0 38 -39 38q-37 0 -37 -37v-739q-8 -2 -26 -2q-37 4 -38 -38q3 -33 38 -37q207 -12 353 117q70 84 62 180.5t-86 166.5zM488 31q-80 -77 -190 -84v375q100 10 179 -51q54 -49 54 -119.5t-43 -120.5zM731 710q-37 0 -38 -37v-776
q0 -36 39 -37q38 4 37 38v773q1 37 -38 39z" />
    <glyph glyph-name="uni042C" unicode="&#x42c;" 
d="M729 307q-161 110 -350 96v276q0 38 -39 39q-38 0 -38 -37v-736h-56q-37 0 -38 -37q0 -37 36 -40q310 -34 513 144q59 60 48.5 153.5t-76.5 141.5zM697 62q-137 -114 -318 -114v376q163 17 299 -71q46 -34 51.5 -95t-32.5 -96z" />
    <glyph glyph-name="uni042D" unicode="&#x42d;" 
d="M497 665q-181 4 -237 -201q-11 -31 19 -48q39 -15 49 22q46 150 169 151q120 -18 157.5 -109.5t41.5 -183.5h-262q-42 0 -40 -37q2 -38 39 -38h263q-4 -88 -49.5 -189.5t-157 -95.5t-158.5 133q-9 35 -48 25q-33 -15 -20 -51q62 -174 222 -180t225.5 128t65.5 269.5
t-57.5 260t-221.5 144.5z" />
    <glyph glyph-name="uni042E" unicode="&#x42e;" 
d="M660 677q-131 9 -182.5 -120.5t-55.5 -239.5h-189v345q0 38 -39 38t-38 -37v-764q0 -39 39 -37q38 0 38 38v341h189q4 -107 55.5 -225t182.5 -132q141 -2 189 125t48 270q4 124 -48.5 250t-188.5 148zM660 -40q-96 21 -127 123.5t-31 199t31 207.5t127 111
q98 -24 129.5 -123t31.5 -199q0 -93 -31 -207t-130 -112z" />
    <glyph glyph-name="uni042F" unicode="&#x42f;" 
d="M212 -58q-33 0 -38 -37q1 -39 37 -39h149q38 0 37 39q0 37 -38 37l331 278v-279h-41q-36 0 -38 -37q1 -40 37 -39h164q35 0 37 39q0 37 -38 37h-45v710h37q44 0 42 33q1 44 -38 43q-250 22 -392.5 -48.5t-152.5 -165.5t95 -170t285 -75l-380 -326h-50zM340 496
q-8 67 89.5 114.5t260.5 40.5v-307q-171 -11 -260.5 45t-89.5 107z" />
    <glyph glyph-name="uni0430" unicode="&#x430;" 
d="M844 15q-33 25 -54 -10q-21 -25 -46 -47.5t-67 -9t-75.5 154.5t-35.5 243.5t-2 110.5t-25 23q-83 50 -167.5 24.5t-151.5 -167t-37 -278t96 -174.5t128 -1q112 108 117 233q36 -215 118 -240.5t131 7.5t79 79q20 27 -8 52zM367 -55q-22 -8 -44.5 6.5t-45 52.5t-20.5 134
t39 180t91.5 105t100.5 -5q11 -256 -121 -473z" />
    <glyph glyph-name="uni0431" unicode="&#x431;" 
d="M510 443q-71 0 -101 -38q35 132 189 154q45 6 37 44q-10 32 -42 32q-160 -20 -229 -157.5t-67 -280.5t54 -238t159 -99q110 4 164.5 97t54.5 193q0 103 -52.5 194t-166.5 99zM510 -63q-70 2 -102.5 72.5t-27 158.5t38 140.5t91.5 59.5q74 -11 108.5 -78t34.5 -140
q0 -70 -34.5 -138.5t-108.5 -74.5z" />
    <glyph glyph-name="uni0432" unicode="&#x432;" 
d="M642 162q44 0 75 40t6.5 108t-159 85t-248.5 9q-40 -5 -37 -42q2 -33 42 -33h22v-382h-26q-39 0 -41 -38q4 -34 37 -38q213 -27 319 31.5t102.5 131t-92.5 128.5zM420 206v128q210 15 243.5 -41.5t-39 -76.5t-204.5 -10zM420 -56v185q100 0 168 -17t66 -73t-67 -77
t-167 -18z" />
    <glyph glyph-name="uni0433" unicode="&#x433;" 
d="M371 439q-38 0 -38 -37v-506q0 -35 38 -37q38 -1 38 39v466h245q38 0 38 37q0 38 -38 38h-283z" />
    <glyph glyph-name="uni0434" unicode="&#x434;" 
d="M721 -65q-30 18 -59 26v392q46 0 46 35q-3 39 -50 39h-254q-19 0 -30 -11.5t-8 -28.5q33 -250 -82 -470q-15 -28 6 -46.5t50 -5.5q168 106 344 4q33 -14 52 14q19 33 -15 52zM398 -22q55 146 47 375h141v-370q-97 23 -188 -5z" />
    <glyph glyph-name="uni0435" unicode="&#x435;" 
d="M485 388q-55 -4 -124.5 -46.5t-85.5 -192.5t150 -241.5t316 23.5q24 28 0 52q-23 23 -52 4q-108 -86 -226 -16.5t-111.5 169t46.5 134.5t91 39q91 6 115.5 -38t16.5 -51t-28 -7h-144q-37 0 -39 -38q1 -38 37 -38h146q56 0 94.5 35.5t-12 125t-190.5 86.5z" />
    <glyph glyph-name="uni0436" unicode="&#x436;" 
d="M811 -87l-89 250l78 206q11 36 -25 46q-32 10 -47 -24l-73 -189h-104v219q0 39 -38 39q-38 1 -38 -37v-221h-106l-71 190q-13 33 -50 23q-33 -10 -21 -46l75 -206l-86 -247q-12 -35 24 -49q39 -11 48 23l81 235h106v-225q1 -35 38 -37q38 1 38 39v223h103l82 -235
q14 -33 51 -23q33 15 24 46z" />
    <glyph glyph-name="uni0437" unicode="&#x437;" 
d="M651 167q63 38 67 112t-45.5 124.5t-135 52.5t-138.5 -26.5t-62 -67.5q-2 -28 25 -43q23 -9 32 3q24 33 56 45t84.5 12t82 -25.5t27.5 -56.5t-35.5 -64.5t-77.5 -33.5t-59 -3q-33 -3 -33 -38q4 -34 37 -39q85 8 127.5 -21.5t42.5 -62t-35.5 -65.5t-86 -31t-86 12.5
t-56.5 40.5q-8 32 -46 23q-34 -10 -25 -47q28 -60 85 -82t132.5 -22t134.5 53.5t59 118t-31.5 97t-39.5 34.5z" />
    <glyph glyph-name="uni0438" unicode="&#x438;" 
d="M671 404q-39 0 -39 -37v-27l-240 -293v324q0 41 -38 37q-38 0 -38 -37v-469q0 -35 37 -39q39 4 39 39v26l240 289v-316q0 -37 38 -37q39 1 39 38v465q0 36 -38 37z" />
    <glyph glyph-name="uni0439" unicode="&#x439;" 
d="M504 388q60 -4 96.5 36.5t36.5 92.5q0 38 -38 38q-37 2 -39 -37q0 -20 -14 -35t-42 -18q-18 3 -35.5 18t-20.5 35q-6 37 -39 37q-32 0 -37 -38q4 -53 42.5 -89t89.5 -40zM671 380q-39 0 -39 -37v-15l-240 -293v312q0 41 -38 37q-38 0 -38 -37v-445q0 -35 37 -39
q39 4 39 39v14l240 289v-304q0 -37 38 -37q39 1 39 38v441q0 36 -38 37z" />
    <glyph glyph-name="uni043A" unicode="&#x43a;" 
d="M689 451q-38 20 -77 2t-56.5 -63t-51.5 -93t-120 -54v201q1 38 -39 38q-36 -1 -37 -38v-541q1 -37 37 -38q40 -2 39 38v264q50 6 93 23l141 -306q15 -28 51 -18q33 19 19 51l-143 306q37 25 52.5 74t33 66.5t39.5 12.5t37 23q9 33 -18 52z" />
    <glyph glyph-name="uni043B" unicode="&#x43b;" 
d="M391 393q-38 0 -38 -37v-305q0 -56 -18.5 -84.5t-36.5 -31.5q-39 2 -39 -37q5 -34 37 -39q50 0 92 50t42 142v266h194v-420q0 -37 40 -38q37 2 37 39v457q0 38 -38 38h-272z" />
    <glyph glyph-name="uni043C" unicode="&#x43c;" 
d="M727 -65v473q0 33 -26.5 40t-45.5 -21l-142 -257l-141 263q-10 30 -38.5 22.5t-33.5 -35.5v-488q-25 3 -22 -35q-3 -38 37 -38h51q36 0 37 38q0 33 -26 37v334l101 -198q15 -24 36 -24t31 24l105 198v-330q-26 -1 -30 -40q0 -40 38 -39h54q33 -1 37 39q-2 39 -22 37z" />
    <glyph glyph-name="uni043D" unicode="&#x43d;" 
d="M694 -61v430h3q37 0 38 38q0 38 -38 38h-75q-36 0 -38 -38q0 -37 34 -38v-157h-219v157h4q37 1 38 38q-3 38 -39 38h-75q-37 0 -38 -38q3 -38 34 -38v-430q-27 -1 -30 -38q0 -39 37 -39h70q37 5 37 38q-2 40 -38 39v197h219v-197v0q-33 0 -38 -38q1 -39 37 -39h78
q37 0 37 38q0 40 -38 39z" />
    <glyph glyph-name="uni043E" unicode="&#x43e;" 
d="M510 421q-78 4 -142.5 -73.5t-60.5 -208.5q0 -127 85 -227q55 -55 126.5 -51t137.5 79.5t66 202.5q0 131 -68 206.5t-144 71.5zM445 -32q-62 76 -62 171q0 103 40.5 154.5t86.5 51.5q42 4 89 -48t47 -154q0 -99 -45.5 -150.5t-85 -55.5t-70.5 31z" />
    <glyph glyph-name="uni043F" unicode="&#x43f;" 
d="M364 445q-38 0 -39 -37v-512q1 -37 39 -37q37 -2 37 38v472h222v-473q0 -34 38 -37q38 5 38 38v510q0 38 -38 38h-297z" />
    <glyph glyph-name="uni0440" unicode="&#x440;" 
d="M652 412q-59 52 -137.5 55t-139.5 -26v32q1 39 -38 38q-38 3 -38 -38v-574q0 -35 37 -38q40 5 39 38v146q77 -30 164 -26q94 16 140 87.5t40.5 157.5t-67.5 148zM527 95q-80 0 -152 34v228q61 37 125 36t96 -37q42 -35 46 -94t-22.5 -109.5t-92.5 -57.5z" />
    <glyph glyph-name="uni0441" unicode="&#x441;" 
d="M625 456q-30 -6 -28 -40q-58 33 -125 16t-118 -83.5t-53 -185.5t52 -202t167.5 -98t188.5 98q16 40 -26 56q-32 15 -58 -23q-45 -51 -121.5 -36.5t-94.5 81.5t-16 128.5t22.5 109t86 62.5t117.5 -60q20 -30 56 -17q35 12 29 55l-29 103q-9 42 -50 36z" />
    <glyph glyph-name="uni0442" unicode="&#x442;" 
d="M729 399l-52 59q-14 11 -33 11h-275q-19 0 -34 -18l-45 -71q-18 -31 10 -53q37 -20 53 11l36 55h85v-457h-11q-39 0 -38 -39q2 -37 38 -37h99q35 0 37 39q0 37 -38 37h-11v457h79l43 -46q25 -27 53 -4q27 28 4 56z" />
    <glyph glyph-name="uni0443" unicode="&#x443;" 
d="M695 521q-38 14 -48 -19l-100 -267l-157 257q-19 32 -52 13q-29 -19 -14 -52l191 -307q-60 -154 -91.5 -182.5t-76.5 -24.5q-36 4 -43 -34q-7 -35 28 -42q76 -7 131 35.5t256 574.5q9 36 -24 48z" />
    <glyph glyph-name="uni0444" unicode="&#x444;" 
d="M656 487q-72 0 -105 -44v146q0 39 -39 38q-38 1 -38 -38v-143q-25 38 -101 41q-91 1 -136 -81t-41 -167q0 -81 43 -162.5t134 -85.5q76 3 101 44v-134q0 -39 37 -38q40 -2 40 39v134q33 -42 105 -45q95 8 136 87.5t41 160.5q0 85 -41 164.5t-136 83.5zM373 67
q-54 6 -77.5 62t-23.5 110q-4 59 21.5 114.5t79.5 57.5q54 -10 77.5 -63t24.5 -109q-1 -51 -24.5 -106.5t-77.5 -65.5zM656 67q-55 14 -78.5 66t-23.5 106q0 59 23.5 110.5t78.5 61.5q54 -2 77.5 -59t23.5 -113q0 -51 -23.5 -108.5t-77.5 -63.5z" />
    <glyph glyph-name="uni0445" unicode="&#x445;" 
d="M714 -62h-21l-143 248l106 197h29q34 0 37 38q-3 40 -39 39h-105q-33 0 -38 -38q3 -38 29 -39l-65 -122l-67 122q25 0 25 39q0 38 -38 38h-113q-35 1 -38 -38q0 -39 37 -39h34l116 -197l-127 -248h-22q-36 0 -38 -38q0 -38 38 -38h106q35 0 38 38q-1 38 -35 38l89 164
l97 -164h-13q-34 0 -38 -39q4 -37 38 -37h121q38 0 38 38q-2 38 -38 38z" />
    <glyph glyph-name="uni0446" unicode="&#x446;" 
d="M713 30h-3v480q0 38 -38 39q-38 -1 -38 -38v-481h-285v480q0 39 -39 39q-37 -1 -37 -38v-519q0 -37 37 -37h366v-56q0 -39 37 -38q39 -1 39 38v94q0 37 -39 37z" />
    <glyph glyph-name="uni0447" unicode="&#x447;" 
d="M669 497q-37 1 -37 -37v-192q0 -29 -31.5 -53.5t-85 -23t-84 50.5t-16.5 210q2 37 -33 42q-39 6 -44 -39q-21 -190 35.5 -262t132.5 -74t126 26v-248q0 -38 37 -39q39 0 39 39v562q0 37 -39 38z" />
    <glyph glyph-name="uni0448" unicode="&#x448;" 
d="M777 501q-37 0 -37 -37v-525h-187v512q0 40 -38 39q-39 -1 -39 -37v-514h-191v524q0 38 -38 38q-38 -1 -38 -37v-564q0 -37 38 -37h531q38 0 38 38v562q0 39 -39 38z" />
    <glyph glyph-name="uni0449" unicode="&#x449;" 
d="M853 22h-41v530q0 40 -39 38q-37 0 -37 -37v-531h-187v522q0 38 -37 38q-39 -1 -39 -37v-523h-191v530q0 38 -39 38q-38 0 -38 -37v-569q0 -37 38 -37h572v-48q0 -39 37 -39q40 5 40 39v86q0 37 -39 37z" />
    <glyph glyph-name="uni044A" unicode="&#x44a;" 
d="M453 251v179q1 39 -38 39h-138q-36 0 -39 -39q3 -38 37 -38h102v-453h-25q-34 0 -39 -37q5 -36 38 -39q202 -15 299 50t73 198t-270 140zM453 -60v236q99 10 158 -27.5t42 -105.5t-80.5 -85t-119.5 -18z" />
    <glyph glyph-name="uni044B" unicode="&#x44b;" 
d="M338 293v205q0 38 -37 38q-39 1 -39 -37v-560h-21q-37 0 -39 -38q1 -39 37 -38q196 -15 285 59t91 163.5t-68 146t-209 61.5zM338 -61v278q92 6 147.5 -36.5t55.5 -93t-57 -100t-146 -48.5zM730 532q-39 -1 -39 -37v-598q0 -36 39 -38q37 2 37 39v596q0 38 -37 38z" />
    <glyph glyph-name="uni044C" unicode="&#x44c;" 
d="M735 78q-4 71 -88 135.5t-221 53.5v185q0 38 -38 39q-38 0 -38 -38v-513h-29q-41 0 -39 -38q3 -39 37 -39q218 -13 321.5 56.5t94.5 158.5zM641 18q-94 -79 -215 -79v252q110 10 171 -33t65 -79.5t-21 -60.5z" />
    <glyph glyph-name="uni044D" unicode="&#x44d;" 
d="M499 475q-136 -6 -188 -156q-5 -32 24 -51q39 -9 47 24q19 40 47.5 73.5t69.5 33.5q71 -11 103.5 -73.5t35.5 -124.5h-187q-38 1 -39 -37q1 -39 38 -39h188q-3 -58 -35.5 -121t-106.5 -70.5t-110 93.5q-14 33 -51 19q-29 -13 -19 -48q56 -142 178.5 -136.5t173 101.5
t50.5 201.5t-50.5 202.5t-168.5 108z" />
    <glyph glyph-name="uni044E" unicode="&#x44e;" 
d="M627 456q-95 2 -136 -88t-48 -170h-94v239q0 39 -39 38q-32 0 -37 -37v-536q1 -38 37 -39q39 1 39 39v219h94q7 -77 48 -159.5t136 -98.5q108 -4 148.5 99t36.5 197q0 96 -38 192.5t-147 104.5zM627 -60q-62 23 -85.5 88t-23.5 131q0 71 23.5 143t85.5 78q67 -12 86 -83
t23 -138q0 -66 -22 -142.5t-87 -76.5z" />
    <glyph glyph-name="uni044F" unicode="&#x44f;" 
d="M704 -65h-19v445h16q36 1 37 39q-2 35 -34 38q-176 18 -271 -43.5t-95 -123t47 -101.5t167 -59l-221 -195h-11q-37 -1 -38 -38q0 -38 37 -38h99q38 0 38 38q0 33 -14 35l167 152v-149h-15q-39 0 -38 -39q1 -37 38 -37h110q36 0 38 37q0 39 -38 39zM424 260
q-13 6 -12.5 27.5t51.5 57t146 35.5v-175q-103 -7 -185 55z" />
    <glyph glyph-name="uni0451" unicode="&#x451;" 
d="M354 564v-79q0 -41 48 -44q44 2 44 48v73q0 47 -44 46q-48 0 -48 -44zM550 564v-77q0 -44 47 -46q46 -2 46 48v73q0 46 -46 46q-47 1 -47 -44zM485 388q-55 -4 -124.5 -46.5t-85.5 -192.5t150 -241.5t316 23.5q24 28 0 52q-23 23 -52 4q-108 -86 -226 -16.5t-111.5 169
t46.5 134.5t91 39q91 6 115.5 -38t16.5 -51t-28 -7h-144q-37 0 -39 -38q1 -38 37 -38h146q56 0 94.5 35.5t-12 125t-190.5 86.5z" />
    <glyph glyph-name="glyph598" horiz-adv-x="512" 
 />
    <glyph glyph-name="glyph599" horiz-adv-x="512" 
 />
    <glyph glyph-name="glyph600" horiz-adv-x="512" 
 />
    <glyph glyph-name="glyph601" horiz-adv-x="512" 
 />
    <glyph glyph-name="glyph602" horiz-adv-x="512" 
 />
    <glyph glyph-name="glyph603" horiz-adv-x="512" 
 />
    <glyph glyph-name="glyph604" horiz-adv-x="512" 
 />
    <glyph glyph-name="glyph605" horiz-adv-x="512" 
 />
    <glyph glyph-name="glyph606" horiz-adv-x="512" 
 />
    <glyph glyph-name="glyph607" horiz-adv-x="512" 
 />
    <glyph glyph-name="glyph608" horiz-adv-x="512" 
 />
    <glyph glyph-name="glyph609" horiz-adv-x="512" 
 />
    <glyph glyph-name="glyph610" horiz-adv-x="512" 
 />
    <glyph glyph-name="glyph611" horiz-adv-x="512" 
 />
    <glyph glyph-name="glyph612" horiz-adv-x="512" 
 />
    <glyph glyph-name="glyph613" horiz-adv-x="512" 
 />
    <glyph glyph-name="glyph614" horiz-adv-x="512" 
 />
    <glyph glyph-name="glyph615" horiz-adv-x="512" 
 />
    <glyph glyph-name="glyph616" horiz-adv-x="512" 
 />
    <glyph glyph-name="glyph617" horiz-adv-x="512" 
 />
    <glyph glyph-name="glyph618" horiz-adv-x="512" 
 />
    <glyph glyph-name="glyph619" horiz-adv-x="512" 
 />
    <glyph glyph-name="glyph620" horiz-adv-x="512" 
 />
    <glyph glyph-name="glyph621" horiz-adv-x="512" 
 />
    <glyph glyph-name="glyph622" horiz-adv-x="512" 
 />
    <glyph glyph-name="glyph623" horiz-adv-x="512" 
 />
    <glyph glyph-name="glyph624" horiz-adv-x="512" 
 />
    <glyph glyph-name="glyph625" horiz-adv-x="512" 
 />
    <glyph glyph-name="glyph626" horiz-adv-x="512" 
 />
    <glyph glyph-name="glyph627" horiz-adv-x="512" 
 />
    <glyph glyph-name="glyph628" horiz-adv-x="512" 
 />
    <glyph glyph-name="glyph629" horiz-adv-x="512" 
 />
    <glyph glyph-name="glyph630" horiz-adv-x="512" 
 />
    <glyph glyph-name="glyph631" horiz-adv-x="512" 
 />
    <glyph glyph-name="glyph632" horiz-adv-x="512" 
 />
    <glyph glyph-name="glyph633" horiz-adv-x="512" 
 />
    <glyph glyph-name="glyph634" horiz-adv-x="512" 
 />
    <glyph glyph-name="glyph635" horiz-adv-x="512" 
 />
    <glyph glyph-name="glyph636" horiz-adv-x="512" 
 />
    <glyph glyph-name="glyph637" horiz-adv-x="512" 
 />
    <glyph glyph-name="glyph638" horiz-adv-x="512" 
 />
    <glyph glyph-name="glyph639" horiz-adv-x="512" 
 />
    <glyph glyph-name="glyph640" horiz-adv-x="512" 
 />
    <glyph glyph-name="glyph641" horiz-adv-x="512" 
 />
    <glyph glyph-name="glyph642" horiz-adv-x="512" 
 />
    <glyph glyph-name="glyph643" horiz-adv-x="512" 
 />
    <glyph glyph-name="glyph644" horiz-adv-x="512" 
 />
    <glyph glyph-name="glyph645" horiz-adv-x="512" 
 />
    <glyph glyph-name="glyph646" horiz-adv-x="512" 
 />
    <glyph glyph-name="glyph647" horiz-adv-x="512" 
 />
    <glyph glyph-name="glyph648" horiz-adv-x="512" 
 />
    <glyph glyph-name="glyph649" horiz-adv-x="512" 
 />
    <glyph glyph-name="glyph650" horiz-adv-x="512" 
 />
    <glyph glyph-name="glyph651" horiz-adv-x="512" 
 />
    <glyph glyph-name="glyph652" horiz-adv-x="512" 
 />
    <glyph glyph-name="glyph653" horiz-adv-x="512" 
 />
    <glyph glyph-name="glyph654" horiz-adv-x="512" 
 />
    <glyph glyph-name="glyph655" horiz-adv-x="512" 
 />
    <glyph glyph-name="glyph656" horiz-adv-x="512" 
 />
    <glyph glyph-name="glyph657" horiz-adv-x="512" 
 />
    <glyph glyph-name="glyph658" horiz-adv-x="512" 
 />
    <glyph glyph-name="glyph659" horiz-adv-x="512" 
 />
    <glyph glyph-name="glyph660" horiz-adv-x="512" 
 />
    <glyph glyph-name="glyph661" horiz-adv-x="512" 
 />
    <glyph glyph-name="glyph662" horiz-adv-x="512" 
 />
    <glyph glyph-name="glyph663" horiz-adv-x="512" 
 />
    <glyph glyph-name="glyph664" horiz-adv-x="512" 
 />
    <glyph glyph-name="glyph665" horiz-adv-x="512" 
 />
    <glyph glyph-name="glyph666" horiz-adv-x="512" 
 />
    <glyph glyph-name="glyph667" horiz-adv-x="512" 
 />
    <glyph glyph-name="glyph668" horiz-adv-x="512" 
 />
    <glyph glyph-name="glyph669" horiz-adv-x="512" 
 />
    <glyph glyph-name="glyph670" horiz-adv-x="512" 
 />
    <glyph glyph-name="glyph671" horiz-adv-x="512" 
 />
    <glyph glyph-name="glyph672" horiz-adv-x="512" 
 />
    <glyph glyph-name="glyph673" horiz-adv-x="512" 
 />
    <glyph glyph-name="glyph674" horiz-adv-x="512" 
 />
    <glyph glyph-name="glyph675" horiz-adv-x="512" 
 />
    <glyph glyph-name="glyph676" horiz-adv-x="512" 
 />
    <glyph glyph-name="glyph677" horiz-adv-x="512" 
 />
    <glyph glyph-name="glyph678" horiz-adv-x="512" 
 />
    <glyph glyph-name="glyph679" horiz-adv-x="512" 
 />
    <glyph glyph-name="glyph680" horiz-adv-x="512" 
 />
    <glyph glyph-name="glyph681" horiz-adv-x="512" 
 />
    <glyph glyph-name="glyph682" horiz-adv-x="512" 
 />
    <glyph glyph-name="glyph683" horiz-adv-x="512" 
 />
    <glyph glyph-name="glyph684" horiz-adv-x="512" 
 />
    <glyph glyph-name="glyph685" horiz-adv-x="512" 
 />
    <glyph glyph-name="glyph686" horiz-adv-x="512" 
 />
    <glyph glyph-name="glyph687" horiz-adv-x="512" 
 />
    <glyph glyph-name="glyph688" horiz-adv-x="512" 
 />
    <glyph glyph-name="glyph689" horiz-adv-x="512" 
 />
    <glyph glyph-name="glyph690" horiz-adv-x="512" 
 />
    <glyph glyph-name="glyph691" horiz-adv-x="512" 
 />
    <glyph glyph-name="glyph692" horiz-adv-x="512" 
 />
    <glyph glyph-name="glyph693" horiz-adv-x="512" 
 />
    <glyph glyph-name="glyph694" horiz-adv-x="512" 
 />
    <glyph glyph-name="glyph695" horiz-adv-x="512" 
 />
    <glyph glyph-name="glyph696" horiz-adv-x="512" 
 />
    <glyph glyph-name="glyph697" horiz-adv-x="512" 
 />
    <glyph glyph-name="glyph698" horiz-adv-x="512" 
 />
    <glyph glyph-name="glyph699" horiz-adv-x="512" 
 />
    <glyph glyph-name="glyph700" horiz-adv-x="512" 
 />
    <glyph glyph-name="glyph701" horiz-adv-x="512" 
 />
    <glyph glyph-name="glyph702" horiz-adv-x="512" 
 />
    <glyph glyph-name="glyph703" horiz-adv-x="512" 
 />
    <glyph glyph-name="glyph704" horiz-adv-x="512" 
 />
    <glyph glyph-name="glyph705" horiz-adv-x="512" 
 />
    <glyph glyph-name="glyph706" horiz-adv-x="512" 
 />
    <glyph glyph-name="glyph707" horiz-adv-x="512" 
 />
    <glyph glyph-name="glyph708" horiz-adv-x="512" 
 />
    <glyph glyph-name="glyph709" horiz-adv-x="512" 
 />
    <glyph glyph-name="glyph710" horiz-adv-x="512" 
 />
    <glyph glyph-name="glyph711" horiz-adv-x="512" 
 />
    <glyph glyph-name="glyph712" horiz-adv-x="512" 
 />
    <glyph glyph-name="glyph713" horiz-adv-x="512" 
 />
    <glyph glyph-name="glyph714" horiz-adv-x="512" 
 />
    <glyph glyph-name="glyph715" horiz-adv-x="512" 
 />
    <glyph glyph-name="glyph716" horiz-adv-x="512" 
 />
    <glyph glyph-name="glyph717" horiz-adv-x="512" 
 />
    <glyph glyph-name="glyph718" horiz-adv-x="512" 
 />
    <glyph glyph-name="glyph719" horiz-adv-x="512" 
 />
    <glyph glyph-name="glyph720" horiz-adv-x="512" 
 />
    <glyph glyph-name="glyph721" horiz-adv-x="512" 
 />
    <glyph glyph-name="glyph722" horiz-adv-x="512" 
 />
    <glyph glyph-name="glyph723" horiz-adv-x="512" 
 />
    <glyph glyph-name="glyph724" horiz-adv-x="512" 
 />
    <glyph glyph-name="glyph725" horiz-adv-x="512" 
 />
    <glyph glyph-name="glyph726" horiz-adv-x="512" 
 />
    <glyph glyph-name="glyph727" horiz-adv-x="512" 
 />
    <glyph glyph-name="glyph728" horiz-adv-x="512" 
 />
    <glyph glyph-name="glyph729" horiz-adv-x="512" 
 />
    <glyph glyph-name="glyph730" horiz-adv-x="512" 
 />
    <glyph glyph-name="glyph731" horiz-adv-x="512" 
 />
    <glyph glyph-name="glyph732" horiz-adv-x="512" 
 />
    <glyph glyph-name="glyph733" horiz-adv-x="512" 
 />
    <glyph glyph-name="glyph734" horiz-adv-x="512" 
 />
    <glyph glyph-name="glyph735" horiz-adv-x="512" 
 />
    <glyph glyph-name="glyph736" horiz-adv-x="512" 
 />
    <glyph glyph-name="glyph737" horiz-adv-x="512" 
 />
    <glyph glyph-name="glyph738" horiz-adv-x="512" 
 />
    <glyph glyph-name="glyph739" horiz-adv-x="512" 
 />
    <glyph glyph-name="glyph740" horiz-adv-x="512" 
 />
    <glyph glyph-name="glyph741" horiz-adv-x="512" 
 />
    <glyph glyph-name="glyph742" horiz-adv-x="512" 
 />
    <glyph glyph-name="glyph743" horiz-adv-x="512" 
 />
    <glyph glyph-name="glyph744" horiz-adv-x="512" 
 />
    <glyph glyph-name="glyph745" horiz-adv-x="512" 
 />
    <glyph glyph-name="glyph746" horiz-adv-x="512" 
 />
    <glyph glyph-name="glyph747" horiz-adv-x="512" 
 />
    <glyph glyph-name="glyph748" horiz-adv-x="512" 
 />
    <glyph glyph-name="glyph749" horiz-adv-x="512" 
 />
    <glyph glyph-name="glyph750" horiz-adv-x="512" 
 />
    <glyph glyph-name="glyph751" horiz-adv-x="512" 
 />
    <glyph glyph-name="glyph752" horiz-adv-x="512" 
 />
    <glyph glyph-name="glyph753" 
 />
    <glyph glyph-name="glyph754" 
 />
    <glyph glyph-name="glyph755" 
 />
    <glyph glyph-name="glyph756" 
 />
    <glyph glyph-name="glyph757" 
 />
    <glyph glyph-name="glyph758" 
 />
    <glyph glyph-name="glyph759" 
 />
    <glyph glyph-name="glyph760" 
 />
    <glyph glyph-name="glyph761" 
 />
    <glyph glyph-name="glyph762" 
 />
    <glyph glyph-name="glyph763" 
 />
    <glyph glyph-name="glyph764" horiz-adv-x="512" 
 />
    <glyph glyph-name="glyph765" horiz-adv-x="512" 
 />
    <glyph glyph-name="glyph766" horiz-adv-x="512" 
 />
    <glyph glyph-name="glyph767" horiz-adv-x="512" 
 />
    <glyph glyph-name="glyph768" horiz-adv-x="512" 
 />
    <glyph glyph-name="uni2010" unicode="&#x2010;" 
d="M317 395q-36 0 -38 -38q3 -39 37 -39h392q37 0 37 39q-2 38 -39 38h-389z" />
    <glyph glyph-name="glyph770" 
 />
    <glyph glyph-name="glyph771" 
 />
    <glyph glyph-name="glyph772" 
 />
    <glyph glyph-name="glyph773" 
 />
    <glyph glyph-name="uni2015" unicode="&#x2015;" 
d="M42 392q-39 0 -38 -36q0 -38 37 -39h943q36 0 38 39q-1 36 -39 36h-941z" />
    <glyph glyph-name="glyph775" 
 />
    <glyph glyph-name="quoteleft" unicode="&#x2018;" 
d="M818 644q-1 -57 -52 -57q-54 0 -55 57q4 136 91 150q-52 -67 -37 -97q53 -1 53 -53z" />
    <glyph glyph-name="quoteright" unicode="&#x2019;" 
d="M212 737q1 57 52 57q54 0 55 -57q-4 -135 -91 -149q52 67 37 97q-53 1 -53 52z" />
    <glyph glyph-name="glyph778" 
 />
    <glyph glyph-name="glyph779" 
 />
    <glyph glyph-name="quotedblleft" unicode="&#x201c;" 
d="M911 644q-1 -57 -52 -57q-54 0 -55 57q4 136 91 150q-52 -67 -37 -97q53 -1 53 -53zM754 644q-1 -57 -52 -57q-54 0 -55 57q4 136 91 150q-52 -67 -37 -97q53 -1 53 -53z" />
    <glyph glyph-name="quotedblright" unicode="&#x201d;" 
d="M104 737q1 57 52 57q54 0 55 -57q-4 -135 -91 -149q52 67 37 97q-53 1 -53 52zM260 737q1 57 52 57q54 0 55 -57q-4 -135 -91 -149q52 67 37 97q-53 1 -53 52z" />
    <glyph glyph-name="glyph782" 
 />
    <glyph glyph-name="glyph783" 
 />
    <glyph glyph-name="dagger" unicode="&#x2020;" 
d="M801 544h-252v240q0 40 -39 38q-37 0 -37 -37v-241h-252q-34 0 -38 -37q0 -39 37 -39h253v-571q0 -38 38 -37q38 2 38 38v570h253q37 0 37 39q2 37 -38 37z" />
    <glyph glyph-name="daggerdbl" unicode="&#x2021;" 
d="M802 214h-252v250h253q35 1 37 38q2 39 -38 39h-252v240q0 38 -37 38q-39 0 -39 -37v-241h-252q-36 0 -38 -39q0 -37 37 -38h253v-250h-252q-35 0 -38 -38q-1 -38 37 -38h253v-240q0 -36 38 -38q39 2 38 39v239h253q35 0 37 37q-1 39 -38 39z" />
    <glyph glyph-name="glyph786" 
 />
    <glyph glyph-name="glyph787" 
 />
    <glyph glyph-name="glyph788" 
 />
    <glyph glyph-name="twodotenleader" unicode="&#x2025;" 
d="M307 368q-3 -63 -72 -66q-70 1 -72 66q0 67 72 67q75 -3 72 -67zM875 368q-3 -63 -72 -66q-70 1 -72 66q0 67 72 67q75 -3 72 -67z" />
    <glyph glyph-name="ellipsis" unicode="&#x2026;" 
d="M583 368q-3 -63 -72 -66q-70 1 -72 66q0 67 72 67q75 -3 72 -67zM303 368q-3 -63 -72 -66q-70 1 -72 66q0 67 72 67q75 -3 72 -67zM871 368q-3 -63 -72 -66q-70 1 -72 66q0 67 72 67q75 -3 72 -67z" />
    <glyph glyph-name="glyph791" 
 />
    <glyph glyph-name="glyph792" 
 />
    <glyph glyph-name="glyph793" horiz-adv-x="512" 
 />
    <glyph glyph-name="glyph794" horiz-adv-x="512" 
 />
    <glyph glyph-name="glyph795" horiz-adv-x="512" 
 />
    <glyph glyph-name="glyph796" horiz-adv-x="512" 
 />
    <glyph glyph-name="glyph797" horiz-adv-x="512" 
 />
    <glyph glyph-name="glyph798" horiz-adv-x="512" 
 />
    <glyph glyph-name="perthousand" unicode="&#x2030;" 
d="M110 490q0 -62 33.5 -125t105.5 -66q77 3 112.5 64t31.5 127q4 66 -29.5 127.5t-114.5 61.5q-69 0 -104 -61.5t-35 -127.5zM186 490q0 40 16 75t47 38q41 -3 56.5 -38t11.5 -75q4 -36 -12 -72.5t-56 -42.5q-35 6 -49 43t-14 72zM373 54q0 -62 33.5 -125t106.5 -66
q77 3 112 64t32 127q3 70 -32 129.5t-112 63.5q-73 -4 -106.5 -65.5t-33.5 -127.5zM449 54q0 40 16 75t48 41q39 -6 55 -40.5t12 -75.5q4 -36 -12 -72.5t-55 -42.5q-32 6 -48 43t-16 72zM570 627l-474 -707q-18 -24 14 -52q33 -10 51 13l472 707q14 32 -10 51
q-29 20 -53 -12zM663 54q0 -66 35.5 -127t108.5 -64q76 7 107.5 66t31.5 125t-31.5 127.5t-107.5 65.5q-73 -4 -108.5 -63.5t-35.5 -129.5zM739 54q0 40 16 75t52 41q35 -6 49 -38.5t14 -77.5q4 -36 -12 -70.5t-51 -44.5q-36 6 -52 43t-16 72z" />
    <glyph glyph-name="glyph800" 
 />
    <glyph glyph-name="minute" unicode="&#x2032;" 
d="M237 818q-40 17 -63 -21q-55 -130 -92 -274q-3 -48 40 -52t52 37q30 128 84 248q17 37 -21 62z" />
    <glyph glyph-name="second" unicode="&#x2033;" 
d="M393 814q-38 17 -61 -21q-58 -126 -92 -270q-2 -46 34 -52q46 -5 58 35q30 130 84 246q18 45 -23 62zM237 818q-40 17 -63 -21q-55 -130 -92 -274q-3 -48 40 -52t52 37q30 128 84 248q17 37 -21 62z" />
    <glyph glyph-name="glyph803" 
 />
    <glyph glyph-name="glyph804" 
 />
    <glyph glyph-name="glyph805" 
 />
    <glyph glyph-name="glyph806" 
 />
    <glyph glyph-name="glyph807" 
 />
    <glyph glyph-name="glyph808" 
 />
    <glyph glyph-name="glyph809" 
 />
    <glyph glyph-name="uni203B" unicode="&#x203b;" 
d="M566 285l338 337q23 24 0 52q-26 27 -53 0l-341 -337l-338 337q-25 25 -52 0q-24 -26 0 -52l338 -337l-338 -340q-25 -25 0 -53q24 -26 52 0l338 337l341 -337q30 -25 53 0q26 28 0 54zM583 588q-3 -63 -72 -66q-70 1 -72 66q0 67 72 67q75 -3 72 -67zM583 8
q-3 -63 -72 -66q-70 1 -72 66q0 67 72 67q75 -3 72 -67zM315 284q-3 -63 -72 -66q-70 1 -72 66q0 67 72 67q75 -3 72 -67zM863 284q-3 -63 -72 -66q-70 1 -72 66q0 67 72 67q75 -3 72 -67z" />
    <glyph glyph-name="glyph811" 
 />
    <glyph glyph-name="glyph812" 
 />
    <glyph glyph-name="glyph813" 
 />
    <glyph glyph-name="glyph814" 
 />
    <glyph glyph-name="glyph815" 
 />
    <glyph glyph-name="glyph816" 
 />
    <glyph glyph-name="glyph817" 
 />
    <glyph glyph-name="glyph818" 
 />
    <glyph glyph-name="glyph819" 
 />
    <glyph glyph-name="glyph820" 
 />
    <glyph glyph-name="glyph821" 
 />
    <glyph glyph-name="glyph822" horiz-adv-x="512" 
 />
    <glyph glyph-name="glyph823" horiz-adv-x="512" 
 />
    <glyph glyph-name="glyph824" horiz-adv-x="512" 
 />
    <glyph glyph-name="glyph825" horiz-adv-x="512" 
 />
    <glyph glyph-name="glyph826" horiz-adv-x="512" 
 />
    <glyph glyph-name="glyph827" horiz-adv-x="512" 
 />
    <glyph glyph-name="glyph828" horiz-adv-x="512" 
 />
    <glyph glyph-name="glyph829" horiz-adv-x="512" 
 />
    <glyph glyph-name="glyph830" horiz-adv-x="512" 
 />
    <glyph glyph-name="glyph831" horiz-adv-x="512" 
 />
    <glyph glyph-name="glyph832" horiz-adv-x="512" 
 />
    <glyph glyph-name="glyph833" horiz-adv-x="512" 
 />
    <glyph glyph-name="glyph834" horiz-adv-x="512" 
 />
    <glyph glyph-name="glyph835" horiz-adv-x="512" 
 />
    <glyph glyph-name="glyph836" horiz-adv-x="512" 
 />
    <glyph glyph-name="glyph837" horiz-adv-x="512" 
 />
    <glyph glyph-name="glyph838" horiz-adv-x="512" 
 />
    <glyph glyph-name="glyph839" horiz-adv-x="512" 
 />
    <glyph glyph-name="glyph840" horiz-adv-x="512" 
 />
    <glyph glyph-name="glyph841" horiz-adv-x="512" 
 />
    <glyph glyph-name="glyph842" horiz-adv-x="512" 
 />
    <glyph glyph-name="glyph843" horiz-adv-x="512" 
 />
    <glyph glyph-name="glyph844" horiz-adv-x="512" 
 />
    <glyph glyph-name="glyph845" horiz-adv-x="512" 
 />
    <glyph glyph-name="glyph846" horiz-adv-x="512" 
 />
    <glyph glyph-name="glyph847" horiz-adv-x="512" 
 />
    <glyph glyph-name="glyph848" horiz-adv-x="512" 
 />
    <glyph glyph-name="glyph849" horiz-adv-x="512" 
 />
    <glyph glyph-name="glyph850" horiz-adv-x="512" 
 />
    <glyph glyph-name="glyph851" horiz-adv-x="512" 
 />
    <glyph glyph-name="glyph852" horiz-adv-x="512" 
 />
    <glyph glyph-name="glyph853" horiz-adv-x="512" 
 />
    <glyph glyph-name="glyph854" horiz-adv-x="512" 
 />
    <glyph glyph-name="glyph855" horiz-adv-x="512" 
 />
    <glyph glyph-name="glyph856" horiz-adv-x="512" 
 />
    <glyph glyph-name="glyph857" horiz-adv-x="512" 
 />
    <glyph glyph-name="glyph858" horiz-adv-x="512" 
 />
    <glyph glyph-name="glyph859" horiz-adv-x="512" 
 />
    <glyph glyph-name="glyph860" horiz-adv-x="512" 
 />
    <glyph glyph-name="glyph861" 
 />
    <glyph glyph-name="glyph862" 
 />
    <glyph glyph-name="glyph863" 
 />
    <glyph glyph-name="uni2103" unicode="&#x2103;" 
d="M834 738q-34 -15 -23 -46q11 -32 15 -41q-172 109 -399 24t-233.5 -394.5t288.5 -391t470 100.5q22 29 -9 50q-25 14 -56 -17q-149 -126 -387 -59t-228.5 324.5t221.5 324.5t383 -98q26 -25 47 -13q27 15 20 47q-23 76 -60 165q-17 38 -49 24zM51 717q3 -115 122 -119
q121 1 122 119q-1 123 -123 125q-121 -1 -121 -125zM120 717q1 57 52 57q54 0 55 -57q-1 -51 -54 -52q-53 1 -53 52z" />
    <glyph glyph-name="glyph865" 
 />
    <glyph glyph-name="glyph866" 
 />
    <glyph glyph-name="glyph867" 
 />
    <glyph glyph-name="glyph868" 
 />
    <glyph glyph-name="glyph869" 
 />
    <glyph glyph-name="glyph870" 
 />
    <glyph glyph-name="glyph871" 
 />
    <glyph glyph-name="glyph872" 
 />
    <glyph glyph-name="glyph873" 
 />
    <glyph glyph-name="glyph874" 
 />
    <glyph glyph-name="glyph875" 
 />
    <glyph glyph-name="glyph876" 
 />
    <glyph glyph-name="glyph877" 
 />
    <glyph glyph-name="glyph878" 
 />
    <glyph glyph-name="glyph879" 
 />
    <glyph glyph-name="glyph880" 
 />
    <glyph glyph-name="glyph881" 
 />
    <glyph glyph-name="glyph882" 
 />
    <glyph glyph-name="uni2116" unicode="&#x2116;" 
d="M424 737h-76q-35 0 -34 -40q1 -36 34 -37v-544l-187 598q-11 28 -43.5 24.5t-32.5 -39.5v-758q-31 -1 -30 -38q2 -38 30 -38h76q32 0 34 38q-2 40 -34 38v543l188 -591q9 -27 42 -26t33 36v757q36 0 38 37q-1 39 -38 40zM650 429q-103 1 -153.5 -90.5t-50.5 -187.5
t50.5 -188.5t153.5 -97.5q106 5 155 99.5t45 186.5q4 96 -45 183.5t-155 94.5zM650 -58q-67 6 -97.5 74.5t-30.5 134.5q0 70 30.5 135.5t97.5 66.5q70 -9 98.5 -72.5t25.5 -129.5q3 -66 -26 -134.5t-98 -74.5zM917 -39q-51 0 -53 -52q5 -48 53 -53q51 2 53 53q-2 52 -53 52z
" />
    <glyph glyph-name="glyph884" 
 />
    <glyph glyph-name="glyph885" 
 />
    <glyph glyph-name="glyph886" 
 />
    <glyph glyph-name="glyph887" 
 />
    <glyph glyph-name="glyph888" 
 />
    <glyph glyph-name="glyph889" 
 />
    <glyph glyph-name="glyph890" 
 />
    <glyph glyph-name="glyph891" 
 />
    <glyph glyph-name="glyph892" 
 />
    <glyph glyph-name="glyph893" 
 />
    <glyph glyph-name="uni2121" unicode="&#x2121;" 
d="M609 -34q-37 2 -36 -29h-110v149h69q-2 -25 35 -27q40 0 40 38v61q0 37 -39 38q-38 0 -38 -34h-67v138h111q4 -24 36 -26q38 0 38 39v25q0 37 -43 37h-214q-35 0 -38 -38q3 -37 34 -37v-363q-35 0 -37 -38q0 -38 38 -38h222q38 0 38 38v30q0 36 -39 37zM918 8
q-34 -1 -34 -37q1 -33 -22 -33h-101v358q26 0 26 39q1 36 -39 36h-55q-36 0 -38 -38q0 -35 30 -35v-360q-19 0 -19 -39q5 -33 37 -38h159q97 0 98 109q-1 38 -42 38zM301 -59v738h53l25 -80q8 -34 47 -29q39 10 25 48l-31 107q-12 31 -45 31h-232q-32 0 -39 -24l-30 -113
q-9 -39 25 -49q38 -11 47 30l25 79h53v-738q-38 0 -37 -38q0 -40 37 -42h77q36 0 37 38q-1 42 -37 42z" />
    <glyph glyph-name="glyph895" 
 />
    <glyph glyph-name="glyph896" 
 />
    <glyph glyph-name="glyph897" 
 />
    <glyph glyph-name="glyph898" 
 />
    <glyph glyph-name="glyph899" 
 />
    <glyph glyph-name="glyph900" 
 />
    <glyph glyph-name="glyph901" 
 />
    <glyph glyph-name="glyph902" 
 />
    <glyph glyph-name="glyph903" 
 />
    <glyph glyph-name="uni212B" unicode="&#x212b;" 
d="M876 -63h-65q-159 314 -251 659q73 29 80 110q0 53 -36 83t-84 30q-45 4 -81.5 -28t-39.5 -85q7 -77 69 -106q-136 -338 -319 -663h-70q-39 0 -38 -39t37 -38h190q37 -1 37 38t-38 39h-31q57 103 112 216h214q36 0 37 38t-39 38h-174q73 136 121 264q85 -286 218 -556
h-59q-33 0 -38 -37q1 -40 37 -39h213q38 -1 37 38q0 37 -39 38zM520 743q43 2 44 -38q1 -42 -44 -40q-41 0 -45 41q4 40 45 37z" />
    <glyph glyph-name="glyph905" 
 />
    <glyph glyph-name="glyph906" 
 />
    <glyph glyph-name="glyph907" 
 />
    <glyph glyph-name="glyph908" 
 />
    <glyph glyph-name="glyph909" 
 />
    <glyph glyph-name="glyph910" 
 />
    <glyph glyph-name="glyph911" 
 />
    <glyph glyph-name="glyph912" 
 />
    <glyph glyph-name="glyph913" 
 />
    <glyph glyph-name="glyph914" 
 />
    <glyph glyph-name="glyph915" 
 />
    <glyph glyph-name="glyph916" 
 />
    <glyph glyph-name="glyph917" 
 />
    <glyph glyph-name="glyph918" horiz-adv-x="512" 
 />
    <glyph glyph-name="glyph919" horiz-adv-x="512" 
 />
    <glyph glyph-name="glyph920" horiz-adv-x="512" 
 />
    <glyph glyph-name="glyph921" horiz-adv-x="512" 
 />
    <glyph glyph-name="glyph922" horiz-adv-x="512" 
 />
    <glyph glyph-name="glyph923" horiz-adv-x="512" 
 />
    <glyph glyph-name="glyph924" horiz-adv-x="512" 
 />
    <glyph glyph-name="glyph925" horiz-adv-x="512" 
 />
    <glyph glyph-name="glyph926" horiz-adv-x="512" 
 />
    <glyph glyph-name="glyph927" horiz-adv-x="512" 
 />
    <glyph glyph-name="glyph928" horiz-adv-x="512" 
 />
    <glyph glyph-name="glyph929" horiz-adv-x="512" 
 />
    <glyph glyph-name="glyph930" horiz-adv-x="512" 
 />
    <glyph glyph-name="uni2160" unicode="&#x2160;" 
d="M598 -62h-48v691h49q38 0 37 37q0 39 -38 39h-173q-37 0 -38 -39q2 -37 37 -37h49v-691h-48q-37 0 -38 -36q1 -39 37 -39h175q35 0 37 39q0 36 -38 36z" />
    <glyph glyph-name="uni2161" unicode="&#x2161;" 
d="M719 -62h-67v691h68q35 0 37 37q1 38 -38 39h-414q-36 0 -38 -39q1 -37 37 -37h68v-691h-67q-36 0 -38 -36q4 -39 37 -39h416q36 0 37 39q-2 36 -38 36zM448 -62v691h128v-691h-128z" />
    <glyph glyph-name="uni2162" unicode="&#x2162;" 
d="M795 -62h-60v691h61q37 0 37 37q-3 40 -38 39h-565q-36 1 -38 -39q1 -37 37 -37h61v-691h-60q-36 0 -38 -36q1 -39 37 -39h567q34 0 37 39q0 36 -38 36zM366 -62v691h108v-691h-108zM551 -62v691h108v-691h-108z" />
    <glyph glyph-name="uni2163" unicode="&#x2163;" 
d="M868 698h-106q-37 0 -38 -39q2 -38 38 -38h4q-91 -283 -159 -559q-82 284 -194 571h11q36 0 37 38q-2 38 -38 38h-266q-37 0 -39 -38q2 -38 38 -38h45v-695h-45q-37 0 -38 -38q2 -37 38 -37h167q37 0 37 37q-1 38 -38 38h-45v695h51q144 -359 250 -739q9 -18 21 -23
t30 -1t24 38q80 367 194 713h22q36 0 37 38q-1 39 -38 39z" />
    <glyph glyph-name="uni2164" unicode="&#x2164;" 
d="M818 690h-125q-36 1 -38 -39q2 -36 37 -37h16q-109 -290 -195 -575q-102 296 -239 586h21q35 1 38 39q0 37 -39 37h-135q-33 0 -38 -37q3 -39 37 -39h34q163 -359 295 -738q5 -15 18 -21.5t30 0t23 35.5q98 366 231 713h29q36 -1 38 38q-1 39 -38 38z" />
    <glyph glyph-name="uni2165" unicode="&#x2165;" 
d="M852 -61h-45v694h45q38 0 38 38q-2 38 -39 38h-262q-39 0 -39 -38q2 -38 38 -38h11q-109 -282 -194 -567q-68 276 -156 556h5q37 0 37 37q0 39 -38 39h-105q-36 0 -38 -38q2 -38 37 -38h21q115 -347 190 -715q7 -28 27.5 -34t32 1.5t16.5 22.5q106 377 246 736h51v-694
h-45q-36 0 -38 -38q1 -39 37 -38h167q38 0 38 39q-2 37 -38 37z" />
    <glyph glyph-name="uni2166" unicode="&#x2166;" 
d="M852 -64h-29v690h30q35 0 37 37q-2 39 -38 39h-357q-39 0 -39 -39q3 -37 38 -37h2q-73 -268 -132 -527q-46 255 -108 520q34 1 36 39q2 37 -38 37h-79q-36 0 -39 -37q-1 -39 38 -39h6q84 -351 137 -718q5 -28 24.5 -34.5t33.5 3t18 24.5q79 374 179 732h43v-690h-29
q-39 -1 -39 -38q1 -38 37 -38h269q35 0 37 39q0 37 -38 37zM746 -64h-55v690h55v-690z" />
    <glyph glyph-name="uni2167" unicode="&#x2167;" 
d="M851 -64h-19v694h19q38 0 38 38q-2 38 -38 38h-395q-38 0 -39 -39q5 -37 36 -37q-66 -261 -113 -512q-38 246 -90 506q27 2 29 38q0 37 -38 37h-68q-38 0 -38 -37q2 -39 40 -40q77 -349 122 -716q2 -14 10.5 -25t24.5 -12t27.5 6t13.5 22q72 375 156 733h5v-694h-18
q-43 0 -38 -38q0 -38 37 -38h336q37 -1 38 38q-1 38 -38 38zM610 -64v694h37v-694h-37zM723 -64v694h33v-694h-33z" />
    <glyph glyph-name="uni2168" unicode="&#x2168;" 
d="M851 -61h-52l-158 343l162 347h49q35 -1 37 38q-2 39 -38 39h-147q-38 0 -38 -38q0 -39 37 -39h15l-119 -261l-120 261h14q35 -1 38 39q-2 38 -38 38h-320q-35 0 -38 -39q1 -38 38 -38h45v-690h-44q-38 0 -39 -37q1 -40 37 -39h321q35 -1 38 35q-2 41 -39 41h-12l118 252
l121 -252h-15q-41 0 -38 -37q4 -40 37 -39h149q36 -1 37 36q-1 40 -38 40zM394 -61h-100v690h96l165 -347z" />
    <glyph glyph-name="uni2169" unicode="&#x2169;" 
d="M849 -62h-48l-255 382l191 312h72q38 0 38 39q-5 37 -39 37h-179q-40 0 -39 -38q0 -33 37 -38h20l-144 -238l-163 238h25q35 0 37 38q-2 38 -39 38h-183q-38 0 -38 -37q-2 -39 37 -39h73l204 -312l-229 -383h-51q-40 0 -38 -38q-2 -37 37 -37h183q32 5 37 37q0 38 -38 38
h-39l185 315l208 -314h-61q-38 0 -38 -37q2 -39 37 -39h201q37 0 38 39q-5 37 -39 37z" />
    <glyph glyph-name="glyph941" horiz-adv-x="512" 
 />
    <glyph glyph-name="glyph942" horiz-adv-x="512" 
 />
    <glyph glyph-name="glyph943" horiz-adv-x="512" 
 />
    <glyph glyph-name="glyph944" horiz-adv-x="512" 
 />
    <glyph glyph-name="glyph945" horiz-adv-x="512" 
 />
    <glyph glyph-name="glyph946" horiz-adv-x="512" 
 />
    <glyph glyph-name="glyph947" 
 />
    <glyph glyph-name="glyph948" 
 />
    <glyph glyph-name="glyph949" 
 />
    <glyph glyph-name="glyph950" 
 />
    <glyph glyph-name="glyph951" 
 />
    <glyph glyph-name="glyph952" 
 />
    <glyph glyph-name="glyph953" 
 />
    <glyph glyph-name="glyph954" 
 />
    <glyph glyph-name="glyph955" 
 />
    <glyph glyph-name="glyph956" 
 />
    <glyph glyph-name="glyph957" horiz-adv-x="512" 
 />
    <glyph glyph-name="glyph958" horiz-adv-x="512" 
 />
    <glyph glyph-name="glyph959" horiz-adv-x="512" 
 />
    <glyph glyph-name="glyph960" horiz-adv-x="512" 
 />
    <glyph glyph-name="glyph961" horiz-adv-x="512" 
 />
    <glyph glyph-name="glyph962" horiz-adv-x="512" 
 />
    <glyph glyph-name="glyph963" horiz-adv-x="512" 
 />
    <glyph glyph-name="glyph964" horiz-adv-x="512" 
 />
    <glyph glyph-name="glyph965" horiz-adv-x="512" 
 />
    <glyph glyph-name="arrowleft" unicode="&#x2190;" 
d="M236 536q-133 -55 -137 -161q4 -96 132 -161q36 -19 52 11q15 32 -10 52q-59 33 -76 60h690q37 1 37 38q1 39 -39 38h-690q26 30 74 52q28 17 14 53q-19 30 -47 18z" />
    <glyph glyph-name="arrowup" unicode="&#x2191;" 
d="M347 647q-12 -28 18 -47q36 -14 53 14q22 48 52 74v-690q-1 -40 38 -39q38 0 39 37v690q27 -17 60 -76q20 -25 52 -10q30 16 11 52q-65 128 -162 132q-106 -4 -161 -137z" />
    <glyph glyph-name="arrowright" unicode="&#x2192;" 
d="M788 536q-28 12 -47 -18q-14 -36 14 -53q48 -22 74 -52h-690q-40 1 -39 -38q0 -37 37 -38h690q-17 -27 -76 -60q-25 -20 -10 -52q16 -30 52 -11q128 65 132 161q-4 106 -137 161z" />
    <glyph glyph-name="arrowdown" unicode="&#x2193;" 
d="M347 95q55 -133 161 -137q97 4 162 132q19 36 -11 52q-32 15 -52 -10q-33 -59 -60 -76v690q-1 37 -39 37q-39 1 -38 -39v-690q-30 26 -52 74q-17 28 -53 14q-30 -19 -18 -47z" />
    <glyph glyph-name="glyph970" horiz-adv-x="512" 
 />
    <glyph glyph-name="glyph971" horiz-adv-x="512" 
 />
    <glyph glyph-name="glyph972" horiz-adv-x="512" 
 />
    <glyph glyph-name="glyph973" horiz-adv-x="512" 
 />
    <glyph glyph-name="glyph974" horiz-adv-x="512" 
 />
    <glyph glyph-name="glyph975" horiz-adv-x="512" 
 />
    <glyph glyph-name="glyph976" horiz-adv-x="512" 
 />
    <glyph glyph-name="glyph977" horiz-adv-x="512" 
 />
    <glyph glyph-name="glyph978" horiz-adv-x="512" 
 />
    <glyph glyph-name="glyph979" horiz-adv-x="512" 
 />
    <glyph glyph-name="glyph980" horiz-adv-x="512" 
 />
    <glyph glyph-name="glyph981" horiz-adv-x="512" 
 />
    <glyph glyph-name="glyph982" horiz-adv-x="512" 
 />
    <glyph glyph-name="glyph983" horiz-adv-x="512" 
 />
    <glyph glyph-name="glyph984" horiz-adv-x="512" 
 />
    <glyph glyph-name="glyph985" horiz-adv-x="512" 
 />
    <glyph glyph-name="glyph986" horiz-adv-x="512" 
 />
    <glyph glyph-name="glyph987" horiz-adv-x="512" 
 />
    <glyph glyph-name="glyph988" horiz-adv-x="512" 
 />
    <glyph glyph-name="glyph989" horiz-adv-x="512" 
 />
    <glyph glyph-name="glyph990" horiz-adv-x="512" 
 />
    <glyph glyph-name="glyph991" horiz-adv-x="512" 
 />
    <glyph glyph-name="glyph992" horiz-adv-x="512" 
 />
    <glyph glyph-name="glyph993" horiz-adv-x="512" 
 />
    <glyph glyph-name="glyph994" horiz-adv-x="512" 
 />
    <glyph glyph-name="glyph995" horiz-adv-x="512" 
 />
    <glyph glyph-name="glyph996" horiz-adv-x="512" 
 />
    <glyph glyph-name="glyph997" horiz-adv-x="512" 
 />
    <glyph glyph-name="glyph998" horiz-adv-x="512" 
 />
    <glyph glyph-name="glyph999" horiz-adv-x="512" 
 />
    <glyph glyph-name="glyph1000" horiz-adv-x="512" 
 />
    <glyph glyph-name="glyph1001" horiz-adv-x="512" 
 />
    <glyph glyph-name="glyph1002" horiz-adv-x="512" 
 />
    <glyph glyph-name="glyph1003" horiz-adv-x="512" 
 />
    <glyph glyph-name="glyph1004" horiz-adv-x="512" 
 />
    <glyph glyph-name="glyph1005" horiz-adv-x="512" 
 />
    <glyph glyph-name="glyph1006" horiz-adv-x="512" 
 />
    <glyph glyph-name="glyph1007" horiz-adv-x="512" 
 />
    <glyph glyph-name="glyph1008" horiz-adv-x="512" 
 />
    <glyph glyph-name="glyph1009" horiz-adv-x="512" 
 />
    <glyph glyph-name="glyph1010" horiz-adv-x="512" 
 />
    <glyph glyph-name="glyph1011" horiz-adv-x="512" 
 />
    <glyph glyph-name="glyph1012" horiz-adv-x="512" 
 />
    <glyph glyph-name="glyph1013" horiz-adv-x="512" 
 />
    <glyph glyph-name="glyph1014" horiz-adv-x="512" 
 />
    <glyph glyph-name="glyph1015" horiz-adv-x="512" 
 />
    <glyph glyph-name="glyph1016" horiz-adv-x="512" 
 />
    <glyph glyph-name="glyph1017" horiz-adv-x="512" 
 />
    <glyph glyph-name="glyph1018" horiz-adv-x="512" 
 />
    <glyph glyph-name="glyph1019" horiz-adv-x="512" 
 />
    <glyph glyph-name="glyph1020" horiz-adv-x="512" 
 />
    <glyph glyph-name="glyph1021" horiz-adv-x="512" 
 />
    <glyph glyph-name="glyph1022" horiz-adv-x="512" 
 />
    <glyph glyph-name="glyph1023" horiz-adv-x="512" 
 />
    <glyph glyph-name="glyph1024" horiz-adv-x="512" 
 />
    <glyph glyph-name="glyph1025" horiz-adv-x="512" 
 />
    <glyph glyph-name="glyph1026" horiz-adv-x="512" 
 />
    <glyph glyph-name="glyph1027" horiz-adv-x="512" 
 />
    <glyph glyph-name="glyph1028" horiz-adv-x="512" 
 />
    <glyph glyph-name="glyph1029" horiz-adv-x="512" 
 />
    <glyph glyph-name="glyph1030" horiz-adv-x="512" 
 />
    <glyph glyph-name="glyph1031" horiz-adv-x="512" 
 />
    <glyph glyph-name="arrowdblright" unicode="&#x21d2;" 
d="M920 364l-309 255q-30 26 -53 -4q-22 -31 4 -53l78 -61h-516q-38 0 -38 -38q1 -38 37 -38h604l108 -89l-108 -90h-603q-38 0 -38 -38q1 -38 37 -38h515l-75 -62q-27 -24 -5 -52q21 -28 53 -5l309 256q18 15 18 29.5t-18 27.5z" />
    <glyph glyph-name="glyph1033" horiz-adv-x="512" 
 />
    <glyph glyph-name="arrowdblboth" unicode="&#x21d4;" 
d="M963 360l-282 255q-33 30 -57 0q-22 -27 3 -54l72 -65h-375l67 65q32 26 5 53q-24 25 -53 1l-282 -256q-15 -12 -14.5 -27.5t14.5 -25.5l282 -256q28 -23 53 1q25 28 -5 54l-64 60h371l-69 -61q-30 -24 -1 -54q25 -27 53 0l282 256q14 10 14.5 25t-14.5 29zM782 241h-540
l-100 91l100 88h540l100 -88z" />
    <glyph glyph-name="glyph1035" horiz-adv-x="512" 
 />
    <glyph glyph-name="glyph1036" horiz-adv-x="512" 
 />
    <glyph glyph-name="glyph1037" horiz-adv-x="512" 
 />
    <glyph glyph-name="glyph1038" horiz-adv-x="512" 
 />
    <glyph glyph-name="glyph1039" horiz-adv-x="512" 
 />
    <glyph glyph-name="glyph1040" horiz-adv-x="512" 
 />
    <glyph glyph-name="glyph1041" horiz-adv-x="512" 
 />
    <glyph glyph-name="glyph1042" horiz-adv-x="512" 
 />
    <glyph glyph-name="glyph1043" horiz-adv-x="512" 
 />
    <glyph glyph-name="glyph1044" horiz-adv-x="512" 
 />
    <glyph glyph-name="glyph1045" horiz-adv-x="512" 
 />
    <glyph glyph-name="glyph1046" horiz-adv-x="512" 
 />
    <glyph glyph-name="glyph1047" horiz-adv-x="512" 
 />
    <glyph glyph-name="glyph1048" horiz-adv-x="512" 
 />
    <glyph glyph-name="glyph1049" horiz-adv-x="512" 
 />
    <glyph glyph-name="glyph1050" horiz-adv-x="512" 
 />
    <glyph glyph-name="glyph1051" horiz-adv-x="512" 
 />
    <glyph glyph-name="glyph1052" horiz-adv-x="512" 
 />
    <glyph glyph-name="glyph1053" horiz-adv-x="512" 
 />
    <glyph glyph-name="glyph1054" horiz-adv-x="512" 
 />
    <glyph glyph-name="glyph1055" horiz-adv-x="512" 
 />
    <glyph glyph-name="glyph1056" horiz-adv-x="512" 
 />
    <glyph glyph-name="universal" unicode="&#x2200;" 
d="M815 719q-36 17 -53 -20q-163 -324 -247 -659q-55 143 -125 290h180q36 0 37 39q0 37 -38 37h-218q-61 139 -136 277q-17 37 -53 19q-31 -19 -14 -52q196 -364 330 -753q9 -32 37.5 -34.5t39.5 26.5q94 405 273 777q17 37 -13 53z" />
    <glyph glyph-name="glyph1058" horiz-adv-x="512" 
 />
    <glyph glyph-name="partialdiff" unicode="&#x2202;" 
d="M589 641q-184 72 -290 -128q-11 -35 24 -49q32 -11 48 24q19 40 74 83.5t118 3.5q73 -46 83.5 -121.5t10.5 -126.5q-44 68 -154 71q-102 -3 -160.5 -84.5t-58.5 -182.5q0 -97 58.5 -178.5t160.5 -88.5q102 3 160.5 80.5t68 197.5t0.5 267t-143 232zM503 -60
q-66 8 -104 66.5t-38 124.5q0 69 38 128t104 63q71 -4 109 -63t34 -128q4 -66 -34 -126.5t-109 -64.5z" />
    <glyph glyph-name="existential" unicode="&#x2203;" 
d="M833 706h-640q-37 0 -38 -38q2 -38 37 -38h603v-307h-602q-38 0 -38 -38t37 -38h603v-307h-602q-39 0 -38 -38t37 -38h642q37 0 37 38v766q0 38 -38 38z" />
    <glyph glyph-name="glyph1061" horiz-adv-x="512" 
 />
    <glyph glyph-name="glyph1062" horiz-adv-x="512" 
 />
    <glyph glyph-name="glyph1063" horiz-adv-x="512" 
 />
    <glyph glyph-name="gradient" unicode="&#x2207;" 
d="M888 714h-755q-28 0 -41.5 -22t0.5 -46l386 -749q18 -37 41 -35.5t31 21.5l384 766q12 30 -2.5 47.5t-43.5 17.5zM206 622h629l-311 -621z" />
    <glyph glyph-name="element" unicode="&#x2208;" 
d="M898 -18h-456q-238 19 -280 244h733q35 0 37 38q1 38 -38 38h-732q42 228 280 243h457q36 0 37 38q0 38 -38 38h-456q-146 0 -250 -104t-104 -251.5t104 -251t250 -107.5h457q36 0 37 38q0 37 -38 37z" />
    <glyph glyph-name="glyph1066" horiz-adv-x="512" 
 />
    <glyph glyph-name="glyph1067" horiz-adv-x="512" 
 />
    <glyph glyph-name="suchthat" unicode="&#x220b;" 
d="M126 -18q-38 0 -38 -37q1 -38 37 -38h457q146 4 250 107.5t104 251t-104 251.5t-250 104h-456q-38 0 -38 -38q1 -38 37 -38h457q238 -15 280 -243h-732q-39 0 -38 -38q2 -38 37 -38h733q-42 -225 -280 -244h-456z" />
    <glyph glyph-name="glyph1069" horiz-adv-x="512" 
 />
    <glyph glyph-name="glyph1070" horiz-adv-x="512" 
 />
    <glyph glyph-name="glyph1071" horiz-adv-x="512" 
 />
    <glyph glyph-name="glyph1072" horiz-adv-x="512" 
 />
    <glyph glyph-name="glyph1073" horiz-adv-x="512" 
 />
    <glyph glyph-name="summation" unicode="&#x2211;" 
d="M218 691q-24 0 -33.5 -16.5t-1.5 -36.5l198 -360l-217 -363q-13 -23 -1.5 -39t35.5 -16h600q31 0 37 34l22 130q3 37 -33 43q-40 7 -43 -32l-14 -99h-502l191 321q12 18 0 38l-176 320h473l39 -118q13 -37 48 -29q34 13 25 48l-46 151q-8 24 -38 24h-563z" />
    <glyph glyph-name="glyph1075" horiz-adv-x="512" 
 />
    <glyph glyph-name="glyph1076" horiz-adv-x="512" 
 />
    <glyph glyph-name="glyph1077" horiz-adv-x="512" 
 />
    <glyph glyph-name="glyph1078" horiz-adv-x="512" 
 />
    <glyph glyph-name="glyph1079" horiz-adv-x="512" 
 />
    <glyph glyph-name="glyph1080" horiz-adv-x="512" 
 />
    <glyph glyph-name="glyph1081" horiz-adv-x="512" 
 />
    <glyph glyph-name="glyph1082" horiz-adv-x="512" 
 />
    <glyph glyph-name="radical" unicode="&#x221a;" 
d="M389 781q-34 0 -39 -37l-72 -702l-67 127q-9 19 -29.5 21t-36.5 -17l-91 -132q-18 -27 10 -51q33 -23 57 9l52 79l96 -184q15 -25 42 -21t29 33l82 799h528q37 0 38 38q0 38 -40 38h-559z" />
    <glyph glyph-name="glyph1084" horiz-adv-x="512" 
 />
    <glyph glyph-name="glyph1085" horiz-adv-x="512" 
 />
    <glyph glyph-name="proportional" unicode="&#x221d;" 
d="M879 194q-13 32 -48 19q-54 -18 -113 -18q-55 0 -107 28.5t-62 84.5q10 59 62 85t107 22q59 4 110 -18q37 -13 51 20q12 34 -19 48q-65 30 -142 27q-124 3 -207 -86q-79 89 -207 86q-85 3 -161 -43.5t-76 -139.5t76 -141.5t161 -48.5q132 0 207 90q79 -90 207 -90
q76 0 142 24q33 19 19 51zM304 195q-55 0 -109 28.5t-54 86t54 83.5t109 22q58 4 110 -22t59 -85q-7 -56 -59 -84.5t-110 -28.5z" />
    <glyph glyph-name="infinity" unicode="&#x221e;" 
d="M721 514q-132 4 -207 -90q-84 90 -211 90q-89 0 -163.5 -46.5t-81.5 -141.5q7 -91 81.5 -137.5t163.5 -46.5q127 0 211 86q75 -86 207 -90q89 0 163 48.5t82 139.5q-4 95 -82 141.5t-163 46.5zM303 218q-58 0 -110 26.5t-59 81.5q7 59 59 85.5t110 26.5q54 0 112 -26.5
t61 -85.5q-3 -55 -61 -81.5t-112 -26.5zM721 218q-58 0 -112.5 26.5t-56.5 81.5q2 59 56.5 85.5t112.5 26.5q54 0 110 -26.5t59 -85.5q-7 -55 -59 -81.5t-110 -26.5z" />
    <glyph glyph-name="orthogonal" unicode="&#x221f;" 
d="M897 -43h-730v728q0 38 -38 38q-39 2 -39 -37v-768q0 -37 38 -37h770q37 0 37 38t-38 38z" />
    <glyph glyph-name="angle" unicode="&#x2220;" 
d="M798 709l-641 -767q-16 -20 -6 -40.5t35 -20.5h660q36 0 37 39q0 37 -38 37h-578l588 701q22 33 -5 56q-28 24 -52 -5z" />
    <glyph glyph-name="glyph1090" horiz-adv-x="512" 
 />
    <glyph glyph-name="glyph1091" horiz-adv-x="512" 
 />
    <glyph glyph-name="glyph1092" horiz-adv-x="512" 
 />
    <glyph glyph-name="glyph1093" horiz-adv-x="512" 
 />
    <glyph glyph-name="uni2225" unicode="&#x2225;" 
d="M594 834v-937q0 -36 38 -38q38 1 38 37v939q0 36 -38 37q-38 0 -38 -38zM354 834v-937q0 -36 38 -38q38 1 38 37v939q0 36 -38 37q-38 0 -38 -38z" />
    <glyph glyph-name="glyph1095" horiz-adv-x="512" 
 />
    <glyph glyph-name="logicaland" unicode="&#x2227;" 
d="M912 -123q33 20 14 53l-383 768q-11 20 -34 21q-21 1 -33 -20l-383 -770q-15 -32 13 -50q36 -20 52 13l351 701l351 -701q20 -31 52 -15z" />
    <glyph glyph-name="logicalor" unicode="&#x2228;" 
d="M912 701q-32 16 -52 -15l-351 -701l-351 701q-16 33 -52 13q-28 -18 -13 -50l383 -770q12 -21 33 -20q23 1 34 21l383 768q19 33 -14 53z" />
    <glyph glyph-name="intersection" unicode="&#x2229;" 
d="M160 388v-455q0 -37 38 -38q39 1 39 40v453q3 117 83.5 199t196 82t194 -82t78.5 -199v-454q0 -38 37 -39q39 2 39 39v454q0 149 -100 253t-248 104t-250.5 -104t-106.5 -253z" />
    <glyph glyph-name="union" unicode="&#x222a;" 
d="M160 252q4 -149 106.5 -253t250.5 -104t248 104t100 253v454q0 37 -39 39q-37 -1 -37 -39v-454q0 -117 -78.5 -199t-194 -82t-196 82t-83.5 199v453q0 39 -39 40q-38 -1 -38 -38v-455z" />
    <glyph glyph-name="integral" unicode="&#x222b;" 
d="M544 827q-42 -21 -54 -65t-19 -120.5t7 -188.5q34 -269 0 -394t-55 -108t-44 43q-23 27 -52 4q-29 -24 -10 -55q105 -130 177 -40t75.5 255.5t-14.5 298.5q-14 108 -7 179t12.5 93.5t31 14.5t54.5 -50q20 -34 56 -13q25 21 5 52q-26 42 -66 74t-97 20z" />
    <glyph glyph-name="uni222C" unicode="&#x222c;" 
d="M406 827q-42 -21 -54 -65t-19 -120.5t7 -188.5q34 -269 0 -394t-55 -108t-44 43q-23 27 -52 4q-29 -24 -10 -55q105 -130 177 -40t75.5 255.5t-14.5 298.5q-14 108 -7 179t12.5 93.5t31 14.5t54.5 -50q20 -34 56 -13q25 21 5 52q-26 42 -66 74t-97 20zM682 827
q-42 -21 -54 -65t-19 -120.5t7 -188.5q34 -269 0 -394t-55 -108t-44 43q-23 27 -52 4q-29 -24 -10 -55q105 -130 177 -40t75.5 255.5t-14.5 298.5q-14 108 -7 179t12.5 93.5t31 14.5t54.5 -50q20 -34 56 -13q25 21 5 52q-26 42 -66 74t-97 20z" />
    <glyph glyph-name="glyph1102" horiz-adv-x="512" 
 />
    <glyph glyph-name="uni222E" unicode="&#x222e;" 
d="M715 724q-27 38 -67 71.5t-89.5 19.5t-63 -60t-13.5 -92v-160q-101 -26 -113 -136q4 -114 117 -142q10 -155 -22.5 -228t-53.5 -55t-43 42q-24 24 -53 5q-23 -23 -6 -51q29 -32 66 -59.5t80.5 -5.5t76 108.5t31.5 243.5q116 23 120 142q-12 122 -124 141v155q0 37 6.5 59
t31 14t57.5 -55q23 -25 52 -9q29 23 10 52zM445 367q6 49 40 59v-123q-44 17 -40 64zM606 367q0 -55 -44 -65v125q40 -11 44 -60z" />
    <glyph glyph-name="glyph1104" horiz-adv-x="512" 
 />
    <glyph glyph-name="glyph1105" horiz-adv-x="512" 
 />
    <glyph glyph-name="glyph1106" horiz-adv-x="512" 
 />
    <glyph glyph-name="glyph1107" horiz-adv-x="512" 
 />
    <glyph glyph-name="glyph1108" horiz-adv-x="512" 
 />
    <glyph glyph-name="therefore" unicode="&#x2234;" 
d="M579 584q-3 -63 -72 -66q-70 1 -72 66q0 67 72 67q75 -3 72 -67zM299 52q-3 -63 -72 -66q-70 1 -72 66q0 67 72 67q75 -3 72 -67zM867 52q-3 -63 -72 -66q-70 1 -72 66q0 67 72 67q75 -3 72 -67z" />
    <glyph glyph-name="uni2235" unicode="&#x2235;" 
d="M579 52q3 -64 -72 -67q-72 0 -72 67q2 65 72 66q69 -3 72 -66zM299 584q3 -64 -72 -67q-72 0 -72 67q2 65 72 66q69 -3 72 -66zM867 584q3 -64 -72 -67q-72 0 -72 67q2 65 72 66q69 -3 72 -66z" />
    <glyph glyph-name="glyph1111" horiz-adv-x="512" 
 />
    <glyph glyph-name="glyph1112" horiz-adv-x="512" 
 />
    <glyph glyph-name="glyph1113" horiz-adv-x="512" 
 />
    <glyph glyph-name="glyph1114" horiz-adv-x="512" 
 />
    <glyph glyph-name="glyph1115" horiz-adv-x="512" 
 />
    <glyph glyph-name="glyph1116" horiz-adv-x="512" 
 />
    <glyph glyph-name="glyph1117" horiz-adv-x="512" 
 />
    <glyph glyph-name="uni223D" unicode="&#x223d;" 
d="M719 492q-85 3 -159 -43.5t-87 -139.5q-6 -57 -60 -83.5t-112 -26.5q-55 0 -109 24.5t-60 84.5q2 63 58 87t111 20q35 -1 38 38q0 39 -38 39q-85 3 -163 -41.5t-82 -142.5q8 -96 84 -140.5t161 -44.5q88 0 164.5 46.5t84.5 137.5q10 60 62 86t107 26q58 0 112 -26t60 -85
q-6 -56 -60 -82.5t-112 -26.5q-34 0 -39 -37q2 -42 38 -39q89 0 165.5 46.5t84.5 138.5q-8 94 -84.5 140.5t-164.5 43.5z" />
    <glyph glyph-name="glyph1119" horiz-adv-x="512" 
 />
    <glyph glyph-name="glyph1120" horiz-adv-x="512" 
 />
    <glyph glyph-name="glyph1121" horiz-adv-x="512" 
 />
    <glyph glyph-name="glyph1122" horiz-adv-x="512" 
 />
    <glyph glyph-name="glyph1123" horiz-adv-x="512" 
 />
    <glyph glyph-name="glyph1124" horiz-adv-x="512" 
 />
    <glyph glyph-name="glyph1125" horiz-adv-x="512" 
 />
    <glyph glyph-name="glyph1126" horiz-adv-x="512" 
 />
    <glyph glyph-name="glyph1127" horiz-adv-x="512" 
 />
    <glyph glyph-name="glyph1128" horiz-adv-x="512" 
 />
    <glyph glyph-name="glyph1129" horiz-adv-x="512" 
 />
    <glyph glyph-name="glyph1130" horiz-adv-x="512" 
 />
    <glyph glyph-name="glyph1131" horiz-adv-x="512" 
 />
    <glyph glyph-name="glyph1132" horiz-adv-x="512" 
 />
    <glyph glyph-name="glyph1133" horiz-adv-x="512" 
 />
    <glyph glyph-name="glyph1134" horiz-adv-x="512" 
 />
    <glyph glyph-name="glyph1135" horiz-adv-x="512" 
 />
    <glyph glyph-name="glyph1136" horiz-adv-x="512" 
 />
    <glyph glyph-name="glyph1137" horiz-adv-x="512" 
 />
    <glyph glyph-name="glyph1138" horiz-adv-x="512" 
 />
    <glyph glyph-name="uni2252" unicode="&#x2252;" 
d="M871 250h-715q-40 0 -39 -38t38 -38h716q36 0 38 38q-2 38 -38 38zM872 413q35 0 37 38q-2 39 -38 39h-716q-38 0 -38 -38q1 -39 38 -39h717zM331 620q3 -64 -72 -67q-72 0 -72 67q2 65 72 66q69 -3 72 -66zM843 60q3 -64 -72 -67q-72 0 -72 67q2 65 72 66q69 -3 72 -66z
" />
    <glyph glyph-name="glyph1140" horiz-adv-x="512" 
 />
    <glyph glyph-name="glyph1141" horiz-adv-x="512" 
 />
    <glyph glyph-name="glyph1142" horiz-adv-x="512" 
 />
    <glyph glyph-name="glyph1143" horiz-adv-x="512" 
 />
    <glyph glyph-name="glyph1144" horiz-adv-x="512" 
 />
    <glyph glyph-name="glyph1145" horiz-adv-x="512" 
 />
    <glyph glyph-name="glyph1146" horiz-adv-x="512" 
 />
    <glyph glyph-name="glyph1147" horiz-adv-x="512" 
 />
    <glyph glyph-name="glyph1148" horiz-adv-x="512" 
 />
    <glyph glyph-name="glyph1149" horiz-adv-x="512" 
 />
    <glyph glyph-name="glyph1150" horiz-adv-x="512" 
 />
    <glyph glyph-name="glyph1151" horiz-adv-x="512" 
 />
    <glyph glyph-name="glyph1152" horiz-adv-x="512" 
 />
    <glyph glyph-name="notequal" unicode="&#x2260;" 
d="M871 250h-357l74 163h284q35 0 37 38q-2 39 -38 39h-244l70 153q18 36 -19 53q-37 14 -51 -19l-86 -187h-386q-38 0 -38 -38q1 -39 38 -39h353l-76 -163h-276q-40 0 -39 -38t38 -38h240l-70 -154q-13 -34 19 -50q33 -17 52 19l84 185h391q36 0 38 38q-2 38 -38 38z" />
    <glyph glyph-name="equivalence" unicode="&#x2261;" 
d="M166 587q-38 0 -38 -38q1 -39 37 -39h695q37 0 37 39q-1 38 -38 38h-693zM166 341q-39 0 -38 -39q1 -37 37 -37h695q36 0 37 37q1 39 -38 39h-693zM166 98q-37 0 -38 -36q0 -39 37 -39h695q35 0 37 39q1 36 -38 36h-693z" />
    <glyph glyph-name="glyph1155" horiz-adv-x="512" 
 />
    <glyph glyph-name="glyph1156" horiz-adv-x="512" 
 />
    <glyph glyph-name="glyph1157" horiz-adv-x="512" 
 />
    <glyph glyph-name="glyph1158" horiz-adv-x="512" 
 />
    <glyph glyph-name="uni2266" unicode="&#x2266;" 
d="M149 199q-38 0 -38 -37q1 -39 37 -39h718q34 0 37 36q0 28 -25 36l-611 214l612 211q34 11 24 49q-13 36 -50 21l-713 -247q-28 -9 -29 -34q1 -29 28 -39l522 -171h-512zM149 -62q-37 0 -38 -38q0 -37 37 -37h717q37 0 38 38q1 37 -38 37h-716z" />
    <glyph glyph-name="uni2267" unicode="&#x2267;" 
d="M875 199h-512l522 171q27 10 28 39q-1 25 -29 34l-713 247q-37 15 -50 -21q-10 -38 24 -49l612 -211l-611 -214q-25 -8 -25 -36q3 -36 37 -36h718q36 0 37 39q0 37 -38 37zM875 -62h-716q-39 0 -38 -37q1 -38 38 -38h717q37 0 37 37q-1 38 -38 38z" />
    <glyph glyph-name="glyph1161" horiz-adv-x="512" 
 />
    <glyph glyph-name="glyph1162" horiz-adv-x="512" 
 />
    <glyph glyph-name="uni226A" unicode="&#x226a;" 
d="M676 753q-23 31 -54 9l-533 -413q-18 -14 -18.5 -30.5t18.5 -30.5l535 -415q29 -18 53 11q20 31 -6 51l-496 385l496 381q23 20 5 52zM931 751q-23 27 -52 3l-529 -412q-18 -15 -17 -30t16 -28l530 -414q33 -22 53 4q21 35 -5 54l-493 384l494 385q22 26 3 54z" />
    <glyph glyph-name="uni226B" unicode="&#x226b;" 
d="M348 753q-18 -32 5 -52l496 -381l-496 -385q-26 -20 -6 -51q24 -29 53 -11l535 415q19 14 18.5 30.5t-18.5 30.5l-533 413q-31 22 -54 -9zM93 751q-19 -28 3 -54l494 -385l-493 -384q-26 -19 -5 -54q20 -26 53 -4l530 414q15 13 16 28t-17 30l-529 412q-29 24 -52 -3z
" />
    <glyph glyph-name="glyph1165" horiz-adv-x="512" 
 />
    <glyph glyph-name="glyph1166" horiz-adv-x="512" 
 />
    <glyph glyph-name="glyph1167" horiz-adv-x="512" 
 />
    <glyph glyph-name="glyph1168" horiz-adv-x="512" 
 />
    <glyph glyph-name="glyph1169" horiz-adv-x="512" 
 />
    <glyph glyph-name="glyph1170" horiz-adv-x="512" 
 />
    <glyph glyph-name="glyph1171" horiz-adv-x="512" 
 />
    <glyph glyph-name="glyph1172" horiz-adv-x="512" 
 />
    <glyph glyph-name="glyph1173" horiz-adv-x="512" 
 />
    <glyph glyph-name="glyph1174" horiz-adv-x="512" 
 />
    <glyph glyph-name="glyph1175" horiz-adv-x="512" 
 />
    <glyph glyph-name="glyph1176" horiz-adv-x="512" 
 />
    <glyph glyph-name="glyph1177" horiz-adv-x="512" 
 />
    <glyph glyph-name="glyph1178" horiz-adv-x="512" 
 />
    <glyph glyph-name="glyph1179" horiz-adv-x="512" 
 />
    <glyph glyph-name="glyph1180" horiz-adv-x="512" 
 />
    <glyph glyph-name="glyph1181" horiz-adv-x="512" 
 />
    <glyph glyph-name="glyph1182" horiz-adv-x="512" 
 />
    <glyph glyph-name="glyph1183" horiz-adv-x="512" 
 />
    <glyph glyph-name="glyph1184" horiz-adv-x="512" 
 />
    <glyph glyph-name="glyph1185" horiz-adv-x="512" 
 />
    <glyph glyph-name="glyph1186" horiz-adv-x="512" 
 />
    <glyph glyph-name="propersubset" unicode="&#x2282;" 
d="M443 623q-146 0 -250.5 -104t-104.5 -251.5t104.5 -251t250.5 -107.5h455q37 0 38 37q-1 38 -39 38h-454q-118 4 -198 84.5t-80 197.5t82 199t196 82h455q37 0 38 38q-1 38 -39 38h-454z" />
    <glyph glyph-name="propersuperset" unicode="&#x2283;" 
d="M581 623h-454q-38 0 -39 -38q1 -38 38 -38h455q114 0 196 -82t82 -199t-80 -197.5t-198 -84.5h-454q-38 0 -39 -38q1 -37 38 -37h455q146 4 250.5 107.5t104.5 251t-104.5 251.5t-250.5 104z" />
    <glyph glyph-name="glyph1189" horiz-adv-x="512" 
 />
    <glyph glyph-name="glyph1190" horiz-adv-x="512" 
 />
    <glyph glyph-name="reflexsubset" unicode="&#x2286;" 
d="M445 669q-135 3 -243 -83.5t-108 -227.5t108 -227.5t243 -86.5h455q36 1 38 38q-2 38 -39 38h-454q-103 0 -189 64t-86 172.5t86 174t189 61.5h456q38 0 37 38q0 39 -39 39h-454zM121 -26q-38 0 -38 -38q0 -39 37 -38h785q36 -1 37 38q-1 38 -39 38h-782z" />
    <glyph glyph-name="reflexsuperset" unicode="&#x2287;" 
d="M579 669h-454q-39 0 -39 -39q-1 -38 37 -38h456q103 4 189 -61.5t86 -174t-86 -172.5t-189 -64h-454q-37 0 -39 -38q2 -37 38 -38h455q135 0 243 86.5t108 227.5t-108 227.5t-243 83.5zM903 -26h-782q-38 0 -39 -38q1 -39 37 -38h785q37 -1 37 38q0 38 -38 38z" />
    <glyph glyph-name="glyph1193" horiz-adv-x="512" 
 />
    <glyph glyph-name="glyph1194" horiz-adv-x="512" 
 />
    <glyph glyph-name="glyph1195" horiz-adv-x="512" 
 />
    <glyph glyph-name="glyph1196" horiz-adv-x="512" 
 />
    <glyph glyph-name="glyph1197" horiz-adv-x="512" 
 />
    <glyph glyph-name="glyph1198" horiz-adv-x="512" 
 />
    <glyph glyph-name="glyph1199" horiz-adv-x="512" 
 />
    <glyph glyph-name="glyph1200" horiz-adv-x="512" 
 />
    <glyph glyph-name="glyph1201" horiz-adv-x="512" 
 />
    <glyph glyph-name="glyph1202" horiz-adv-x="512" 
 />
    <glyph glyph-name="glyph1203" horiz-adv-x="512" 
 />
    <glyph glyph-name="glyph1204" horiz-adv-x="512" 
 />
    <glyph glyph-name="glyph1205" horiz-adv-x="512" 
 />
    <glyph glyph-name="glyph1206" horiz-adv-x="512" 
 />
    <glyph glyph-name="glyph1207" horiz-adv-x="512" 
 />
    <glyph glyph-name="glyph1208" horiz-adv-x="512" 
 />
    <glyph glyph-name="glyph1209" horiz-adv-x="512" 
 />
    <glyph glyph-name="glyph1210" horiz-adv-x="512" 
 />
    <glyph glyph-name="glyph1211" horiz-adv-x="512" 
 />
    <glyph glyph-name="glyph1212" horiz-adv-x="512" 
 />
    <glyph glyph-name="glyph1213" horiz-adv-x="512" 
 />
    <glyph glyph-name="glyph1214" horiz-adv-x="512" 
 />
    <glyph glyph-name="glyph1215" horiz-adv-x="512" 
 />
    <glyph glyph-name="glyph1216" horiz-adv-x="512" 
 />
    <glyph glyph-name="glyph1217" horiz-adv-x="512" 
 />
    <glyph glyph-name="glyph1218" horiz-adv-x="512" 
 />
    <glyph glyph-name="glyph1219" horiz-adv-x="512" 
 />
    <glyph glyph-name="glyph1220" horiz-adv-x="512" 
 />
    <glyph glyph-name="glyph1221" horiz-adv-x="512" 
 />
    <glyph glyph-name="perpendicular" unicode="&#x22a5;" 
d="M864 -44h-312v716q0 38 -37 38q-39 0 -39 -37v-717h-316q-37 0 -38 -37q0 -39 37 -39h706q38 0 37 39q0 37 -38 37z" />
    <glyph glyph-name="glyph1223" horiz-adv-x="512" 
 />
    <glyph glyph-name="glyph1224" horiz-adv-x="512" 
 />
    <glyph glyph-name="glyph1225" horiz-adv-x="512" 
 />
    <glyph glyph-name="glyph1226" horiz-adv-x="512" 
 />
    <glyph glyph-name="glyph1227" horiz-adv-x="512" 
 />
    <glyph glyph-name="glyph1228" horiz-adv-x="512" 
 />
    <glyph glyph-name="glyph1229" horiz-adv-x="512" 
 />
    <glyph glyph-name="glyph1230" horiz-adv-x="512" 
 />
    <glyph glyph-name="glyph1231" horiz-adv-x="512" 
 />
    <glyph glyph-name="glyph1232" horiz-adv-x="512" 
 />
    <glyph glyph-name="glyph1233" horiz-adv-x="512" 
 />
    <glyph glyph-name="glyph1234" horiz-adv-x="512" 
 />
    <glyph glyph-name="glyph1235" horiz-adv-x="512" 
 />
    <glyph glyph-name="glyph1236" horiz-adv-x="512" 
 />
    <glyph glyph-name="glyph1237" horiz-adv-x="512" 
 />
    <glyph glyph-name="glyph1238" horiz-adv-x="512" 
 />
    <glyph glyph-name="glyph1239" horiz-adv-x="512" 
 />
    <glyph glyph-name="glyph1240" horiz-adv-x="512" 
 />
    <glyph glyph-name="glyph1241" horiz-adv-x="512" 
 />
    <glyph glyph-name="glyph1242" horiz-adv-x="512" 
 />
    <glyph glyph-name="glyph1243" horiz-adv-x="512" 
 />
    <glyph glyph-name="glyph1244" horiz-adv-x="512" 
 />
    <glyph glyph-name="glyph1245" horiz-adv-x="512" 
 />
    <glyph glyph-name="glyph1246" horiz-adv-x="512" 
 />
    <glyph glyph-name="glyph1247" horiz-adv-x="512" 
 />
    <glyph glyph-name="uni22BF" unicode="&#x22bf;" 
d="M871 711l-769 -768q-14 -18 -6 -41t34 -23h770q37 5 37 38v766q0 28 -23 38t-43 -10zM861 592v-638h-639z" />
    <glyph glyph-name="glyph1249" horiz-adv-x="512" 
 />
    <glyph glyph-name="glyph1250" horiz-adv-x="512" 
 />
    <glyph glyph-name="glyph1251" horiz-adv-x="512" 
 />
    <glyph glyph-name="glyph1252" horiz-adv-x="512" 
 />
    <glyph glyph-name="glyph1253" horiz-adv-x="512" 
 />
    <glyph glyph-name="glyph1254" horiz-adv-x="512" 
 />
    <glyph glyph-name="glyph1255" horiz-adv-x="512" 
 />
    <glyph glyph-name="glyph1256" horiz-adv-x="512" 
 />
    <glyph glyph-name="glyph1257" horiz-adv-x="512" 
 />
    <glyph glyph-name="glyph1258" horiz-adv-x="512" 
 />
    <glyph glyph-name="glyph1259" horiz-adv-x="512" 
 />
    <glyph glyph-name="glyph1260" horiz-adv-x="512" 
 />
    <glyph glyph-name="glyph1261" horiz-adv-x="512" 
 />
    <glyph glyph-name="glyph1262" horiz-adv-x="512" 
 />
    <glyph glyph-name="glyph1263" horiz-adv-x="512" 
 />
    <glyph glyph-name="glyph1264" horiz-adv-x="512" 
 />
    <glyph glyph-name="glyph1265" horiz-adv-x="512" 
 />
    <glyph glyph-name="glyph1266" horiz-adv-x="512" 
 />
    <glyph glyph-name="glyph1267" horiz-adv-x="512" 
 />
    <glyph glyph-name="glyph1268" horiz-adv-x="512" 
 />
    <glyph glyph-name="glyph1269" horiz-adv-x="512" 
 />
    <glyph glyph-name="glyph1270" horiz-adv-x="512" 
 />
    <glyph glyph-name="glyph1271" horiz-adv-x="512" 
 />
    <glyph glyph-name="glyph1272" horiz-adv-x="512" 
 />
    <glyph glyph-name="glyph1273" horiz-adv-x="512" 
 />
    <glyph glyph-name="glyph1274" horiz-adv-x="512" 
 />
    <glyph glyph-name="glyph1275" horiz-adv-x="512" 
 />
    <glyph glyph-name="glyph1276" horiz-adv-x="512" 
 />
    <glyph glyph-name="glyph1277" horiz-adv-x="512" 
 />
    <glyph glyph-name="glyph1278" horiz-adv-x="512" 
 />
    <glyph glyph-name="glyph1279" horiz-adv-x="512" 
 />
    <glyph glyph-name="glyph1280" horiz-adv-x="512" 
 />
    <glyph glyph-name="glyph1281" horiz-adv-x="512" 
 />
    <glyph glyph-name="glyph1282" horiz-adv-x="512" 
 />
    <glyph glyph-name="glyph1283" horiz-adv-x="512" 
 />
    <glyph glyph-name="glyph1284" horiz-adv-x="512" 
 />
    <glyph glyph-name="glyph1285" horiz-adv-x="512" 
 />
    <glyph glyph-name="glyph1286" horiz-adv-x="512" 
 />
    <glyph glyph-name="glyph1287" horiz-adv-x="512" 
 />
    <glyph glyph-name="glyph1288" horiz-adv-x="512" 
 />
    <glyph glyph-name="glyph1289" horiz-adv-x="512" 
 />
    <glyph glyph-name="glyph1290" horiz-adv-x="512" 
 />
    <glyph glyph-name="glyph1291" horiz-adv-x="512" 
 />
    <glyph glyph-name="glyph1292" horiz-adv-x="512" 
 />
    <glyph glyph-name="glyph1293" horiz-adv-x="512" 
 />
    <glyph glyph-name="glyph1294" horiz-adv-x="512" 
 />
    <glyph glyph-name="glyph1295" horiz-adv-x="512" 
 />
    <glyph glyph-name="glyph1296" horiz-adv-x="512" 
 />
    <glyph glyph-name="glyph1297" horiz-adv-x="512" 
 />
    <glyph glyph-name="glyph1298" horiz-adv-x="512" 
 />
    <glyph glyph-name="glyph1299" horiz-adv-x="512" 
 />
    <glyph glyph-name="glyph1300" horiz-adv-x="512" 
 />
    <glyph glyph-name="uni2312" unicode="&#x2312;" 
d="M26 559q-16 -28 19 -49q36 -20 51 15q33 67 136.5 140.5t286 73.5t284 -73.5t134.5 -140.5q13 -29 47 -16q30 16 18 51q-37 75 -156 165t-330.5 90t-329.5 -90t-160 -166z" />
    <glyph glyph-name="glyph1302" horiz-adv-x="512" 
 />
    <glyph glyph-name="glyph1303" horiz-adv-x="512" 
 />
    <glyph glyph-name="uni2460" unicode="&#x2460;" 
d="M54 321q4 -189 138 -321t322 -138q192 6 324.5 138t132.5 321q0 191 -132.5 325.5t-324.5 134.5q-188 0 -322 -134.5t-138 -325.5zM130 321q4 161 115 272t269 111q163 0 271.5 -111t108.5 -272q0 -160 -108.5 -269t-271.5 -113q-158 4 -269 113t-115 269zM495 618
l-115 -81q-27 -17 -8 -52q28 -28 56 -9l52 37v-502q0 -36 37 -38q38 1 39 38v578q0 24 -20 33.5t-41 -4.5z" />
    <glyph glyph-name="uni2461" unicode="&#x2461;" 
d="M461 642q-74 -24 -105.5 -93t-4.5 -145q19 -27 51 -18q34 19 19 51q-20 43 -1.5 80t60.5 49q72 13 91 -51t-17 -110t-70 -82.5t-104.5 -115t-39 -145.5t111.5 -67h212q36 2 37 39q-2 37 -34 37h-215q-22 0 -36.5 3.5t-13 24.5t45.5 74.5t83 90.5t88.5 106.5t9 182.5
t-167.5 89zM53 322q3 -187 135.5 -321t320.5 -137q195 3 327 135t136 323q-4 194 -136 326.5t-327 132.5q-188 0 -320.5 -134t-135.5 -325zM129 322q4 162 112.5 272.5t267.5 110.5q162 0 272.5 -110.5t114.5 -272.5q-4 -158 -114.5 -268t-272.5 -114q-159 4 -267.5 114
t-112.5 268z" />
    <glyph glyph-name="uni2462" unicode="&#x2462;" 
d="M481 627q-78 -4 -114 -77t18 -162q21 -29 53 -9q32 18 9 54q-31 55 -14.5 86.5t58.5 31.5q29 7 56.5 -20t26 -68.5t-71.5 -75.5q-19 -6 -23.5 -18t-2 -23.5t11.5 -21.5q85 -81 96 -140.5t-8 -90t-75.5 -34t-80 46.5t16.5 115q14 38 -20 52q-32 14 -51 -18
q-62 -105 -10 -190t153.5 -79t131.5 59t22.5 133.5t-90.5 161.5q75 57 75 115.5t-41 113t-126 58.5zM53 322q3 -187 137.5 -321t321.5 -137q192 3 326 137t134 321q0 191 -134 325t-326 134q-187 0 -321.5 -134t-137.5 -325zM129 322q4 162 114 272.5t269 110.5
q163 0 273.5 -110.5t110.5 -272.5q0 -158 -110.5 -268t-273.5 -114q-159 4 -269 114t-114 268z" />
    <glyph glyph-name="uni2463" unicode="&#x2463;" 
d="M513 608l-200 -383q-9 -19 -0.5 -38t33.5 -19h162v-159q-3 -37 37 -36q41 1 39 37v158h86q38 0 39 37q-1 40 -39 39h-86v345q0 33 -28 38q-24 5 -43 -19zM508 444v-200h-99zM53 322q3 -187 137.5 -321t321.5 -137q192 3 326 137t134 321q0 191 -134 325t-326 134
q-187 0 -321.5 -134t-137.5 -325zM129 322q4 162 114 272.5t269 110.5q163 0 273.5 -110.5t110.5 -272.5q0 -158 -110.5 -268t-273.5 -114q-159 4 -269 114t-114 268z" />
    <glyph glyph-name="uni2464" unicode="&#x2464;" 
d="M400 629q-36 0 -39 -37l-8 -300q0 -16 11 -30t33.5 -11t31.5 30q4 29 28 58t62 30.5t62 -34t22.5 -92.5t-12.5 -96.5t-35.5 -62t-60 -21.5t-52.5 38.5t-25 73.5q-11 38 -42 33q-36 1 -34 -43q7 -47 38.5 -103.5t91.5 -68.5t117.5 21.5t80.5 142t-22 192t-113 88
t-104 -21.5l2 138h178q36 1 37 39q-1 37 -38 37h-210zM52 325q4 -188 138 -321.5t322 -137.5q191 4 325.5 137.5t134.5 321.5q0 190 -134.5 324t-325.5 134q-188 0 -322 -134t-138 -324zM128 325q4 161 114.5 271.5t269.5 110.5q162 0 272.5 -110.5t110.5 -271.5
q0 -159 -110.5 -269t-272.5 -114q-159 4 -269.5 114t-114.5 269z" />
    <glyph glyph-name="uni2465" unicode="&#x2465;" 
d="M393 587q-73 -103 -77 -236.5t17 -224t112 -120t167.5 51t52 197.5t-119.5 132t-149 -16q0 85 50 165q26 32 65 27.5t66.5 -39t24.5 -85.5q-7 -32 34 -42q36 -4 38 36q8 84 -40 143.5t-120.5 64t-120.5 -53.5zM397 255q15 44 48.5 56t62 10t54 -17t36 -77t-36.5 -113
t-97.5 -32.5t-59 80.5t-7.5 93zM52 325q4 -188 138 -321.5t322 -137.5q191 4 325.5 137.5t134.5 321.5q0 190 -134.5 324t-325.5 134q-188 0 -322 -134t-138 -324zM128 325q4 161 114.5 271.5t269.5 110.5q162 0 272.5 -110.5t110.5 -271.5q0 -159 -110.5 -269t-272.5 -114
q-159 4 -269.5 114t-114.5 269z" />
    <glyph glyph-name="uni2466" unicode="&#x2466;" 
d="M389 618q-38 0 -38 -37v-190q0 -36 38 -37q40 0 39 38v149h153q-109 -221 -105 -529q1 -44 45 -48q39 8 35 44q3 292 115 557q10 18 -1.5 35.5t-32.5 17.5h-248zM54 325q4 -188 136 -321.5t320 -137.5q191 4 325.5 137.5t134.5 321.5q0 190 -134.5 324t-325.5 134
q-188 0 -320 -134t-136 -324zM130 325q4 161 112.5 271.5t267.5 110.5q163 0 273 -110.5t110 -271.5q0 -159 -110 -269t-273 -114q-159 4 -267.5 114t-112.5 269z" />
    <glyph glyph-name="uni2467" unicode="&#x2467;" 
d="M599 351q68 39 72 131q0 74 -48.5 114.5t-110.5 44t-118 -42t-59 -116.5q3 -103 72 -142q-79 -52 -87 -152t45 -151t129 -59t141.5 37.5t63.5 161t-100 174.5zM411 478q0 37 31 63t68.5 24.5t60.5 -23t24 -60.5q-4 -45 -27.5 -68.5t-58 -25t-64.5 20t-34 69.5zM621 159
q0 -46 -36.5 -77.5t-79.5 -27.5t-80 27t-33 82.5t29.5 100.5t109.5 30.5t90 -135.5zM512 783q-188 0 -322 -134t-138 -324q4 -188 138 -321.5t322 -137.5q191 4 325.5 137.5t134.5 321.5q0 190 -134.5 324t-325.5 134zM512 -58q-159 4 -269.5 114t-114.5 269
q4 161 114.5 271.5t269.5 110.5q163 0 273 -110.5t110 -271.5q0 -159 -110 -269t-273 -114z" />
    <glyph glyph-name="uni2468" unicode="&#x2468;" 
d="M516 638q-71 0 -124.5 -43.5t-51.5 -119t53 -129.5t126 -58q32 0 38 3l-102 -257q-11 -27 24 -45q35 -14 48 23l132 322q8 23 26.5 57t18.5 97t-57 107.5t-131 42.5zM519 364q-41 4 -73 36.5t-32 76.5t31 64t71 21q43 1 75.5 -20t30.5 -63t-7.5 -51t-21 -33t-74.5 -31z
M512 781q-188 0 -322 -134.5t-138 -324.5q4 -187 138 -321t322 -138q191 4 325.5 138t134.5 321q0 190 -134.5 324.5t-325.5 134.5zM512 -60q-159 3 -269.5 113t-114.5 269q4 162 114.5 272.5t269.5 110.5q162 0 272.5 -110.5t110.5 -272.5q0 -159 -110.5 -269t-272.5 -113z
" />
    <glyph glyph-name="uni2469" unicode="&#x2469;" 
d="M52 322q4 -187 138 -321t322 -138q191 4 325.5 138t134.5 321q0 190 -134.5 324.5t-325.5 134.5q-188 0 -322 -134.5t-138 -324.5zM128 322q4 162 114.5 272.5t269.5 110.5q162 0 272.5 -110.5t110.5 -272.5q0 -159 -110.5 -269t-272.5 -113q-159 3 -269.5 113
t-114.5 269zM445 326q0 -95 31 -204t127 -131q108 -5 138.5 110.5t24.5 224.5q1 76 -29.5 187.5t-133.5 124.5q-102 3 -130 -109.5t-28 -202.5zM521 325q4 67 17.5 150t65.5 86q37 4 61.5 -74.5t24.5 -160.5q-2 -268 -87 -255q-83 25 -82 254zM341 636l-87 -84
q-23 -24 0 -52q28 -23 52 0l25 21v-493q1 -32 39 -37q36 -1 37 38v578q0 29 -22 38.5t-44 -9.5z" />
    <glyph glyph-name="uni246A" unicode="&#x246a;" 
d="M54 322q4 -187 136 -321t320 -138q191 4 325.5 138t134.5 321q0 190 -134.5 324.5t-325.5 134.5q-188 0 -320 -134.5t-136 -324.5zM130 322q4 162 112.5 272.5t267.5 110.5q163 0 273 -110.5t110 -272.5q0 -159 -110 -269t-273 -113q-159 3 -267.5 113t-112.5 269z
M382 633l-102 -84q-27 -19 -9 -52q30 -31 56 -10l41 32v-499q0 -37 39 -36q37 -1 37 37v579q0 28 -18.5 37.5t-43.5 -4.5zM629 633l-102 -83q-32 -23 -8 -53q23 -24 51 -10l45 36v-503q0 -37 39 -36q37 -1 37 37v579q0 28 -22.5 37.5t-39.5 -4.5z" />
    <glyph glyph-name="uni246B" unicode="&#x246b;" 
d="M52 322q4 -187 138 -321t322 -138q191 4 325.5 138t134.5 321q0 190 -134.5 324.5t-325.5 134.5q-188 0 -322 -134.5t-138 -324.5zM128 322q4 162 114.5 272.5t269.5 110.5q162 0 272.5 -110.5t110.5 -272.5q0 -159 -110.5 -269t-272.5 -113q-159 3 -269.5 113
t-114.5 269zM574 631q-56 -16 -84 -81.5t0 -142.5q16 -27 48 -19q34 12 24 46q-19 46 -5 82t42 43q29 13 53.5 -45.5t-33.5 -152.5q-61 -83 -108.5 -157.5t-23 -143t85.5 -68.5h89q46 0 46 44q-2 34 -54 35h-81q-23 0 -20.5 32.5t41.5 86t88 128.5q88 135 32.5 236
t-140.5 77zM346 622l-84 -84q-23 -24 0 -52q30 -23 52 0l21 17v-462q1 -38 38 -37q39 2 39 38v551q0 29 -21.5 38.5t-44.5 -9.5z" />
    <glyph glyph-name="uni246C" unicode="&#x246c;" 
d="M52 322q4 -187 138 -321t322 -138q191 4 325.5 138t134.5 321q0 190 -134.5 324.5t-325.5 134.5q-188 0 -322 -134.5t-138 -324.5zM128 322q4 162 114.5 272.5t269.5 110.5q163 0 273 -110.5t110 -272.5q0 -159 -110 -269t-273 -113q-159 3 -269.5 113t-114.5 269z
M575 634q-71 -12 -103.5 -85.5t15.5 -153.5q23 -22 51 -13q34 24 15 52q-29 46 -12 80.5t47 43.5q53 13 63 -35q24 -78 -58 -133q-19 -14 -24 -29.5t7 -27.5q79 -83 94.5 -141.5t-6.5 -90t-70.5 -35t-68.5 44.5t16 117q14 35 -20 50q-32 13 -50 -20q-58 -109 -6.5 -189.5
t140.5 -73t124 66.5t20 129t-87 157q90 74 61 195q-32 111 -148 91zM341 625l-102 -79q-27 -20 -4 -57q24 -27 52 -4l40 31v-484q0 -35 39 -36q38 3 37 37v563q0 30 -21.5 36.5t-40.5 -7.5z" />
    <glyph glyph-name="uni246D" unicode="&#x246d;" 
d="M52 322q4 -187 138 -321t322 -138q191 4 325.5 138t134.5 321q0 190 -134.5 324.5t-325.5 134.5q-188 0 -322 -134.5t-138 -324.5zM128 322q4 162 114.5 272.5t269.5 110.5q163 0 273 -110.5t110 -272.5q0 -159 -110 -269t-273 -113q-159 3 -269.5 113t-114.5 269z
M592 618l-167 -383q-8 -24 4.5 -38.5t33.5 -14.5h124v-162q0 -37 37 -36q39 0 39 37v161h61q34 0 37 39q-1 38 -39 38h-59v345q0 33 -30 38q-28 4 -41 -24zM587 429v-170h-67zM345 640l-91 -79q-23 -24 -4 -58q29 -19 56 0l29 23v-495q0 -37 39 -37q38 2 37 38v579
q0 30 -21 39t-45 -10z" />
    <glyph glyph-name="uni246E" unicode="&#x246e;" 
d="M54 322q4 -187 138 -321t322 -138q191 4 323.5 138t132.5 321q0 190 -132.5 324.5t-323.5 134.5q-188 0 -322 -134.5t-138 -324.5zM130 322q4 162 114.5 272.5t269.5 110.5q162 0 271 -110.5t109 -272.5q0 -159 -109 -269t-271 -113q-159 3 -269.5 113t-114.5 269z
M503 630q-40 1 -39 -37l-7 -298q5 -32 38 -34.5t38 26.5q4 29 20.5 57.5t49 28t43.5 -14.5q32 -37 29 -119q-4 -48 -11 -86t-28 -60.5t-50 -18t-43 38.5t-21 66q-4 43 -38 38q-40 -1 -35 -43q8 -58 37.5 -115t102 -61t106 41t41.5 82q34 177 -31 284q-33 43 -87.5 43.5
t-80.5 -23.5l4 129h142q35 0 38 38q-2 39 -39 38h-179zM336 620l-99 -80q-22 -22 -4 -51q25 -28 52 -5l36 27v-475q0 -35 38 -36q40 0 39 37v555q0 27 -22 37t-40 -9z" />
    <glyph glyph-name="uni246F" unicode="&#x246f;" 
d="M54 322q4 -187 136.5 -321t319.5 -138q195 4 327.5 136t132.5 323q0 194 -132.5 326.5t-327.5 132.5q-187 0 -319.5 -134.5t-136.5 -324.5zM130 322q4 162 112.5 272.5t267.5 110.5q163 0 273.5 -110.5t110.5 -272.5q0 -159 -110.5 -269t-273.5 -113q-159 3 -267.5 113
t-112.5 269zM508 612q-69 -95 -69.5 -238t11.5 -239.5t91.5 -128t148.5 45t49 206t-105 146t-120 -8.5q0 86 47 166q16 23 42.5 17.5t51 -34.5t16.5 -91q-4 -33 34 -42q36 -6 43 37q7 91 -38 146t-103 60.5t-99 -42.5zM514 279q24 62 65.5 60t63 -17t31 -89.5t-31 -126
t-79 -31t-46 83t-3.5 120.5zM339 636l-95 -84q-23 -23 -3 -51q27 -28 56 -5l28 25v-484q1 -36 37 -38q40 1 39 38v569q5 25 -16.5 36.5t-45.5 -6.5z" />
    <glyph glyph-name="uni2470" unicode="&#x2470;" 
d="M55 322q3 -187 137.5 -321t321.5 -138q192 4 324 138t132 321q0 190 -132 324.5t-324 134.5q-187 0 -321.5 -134.5t-137.5 -324.5zM131 322q4 162 114 272.5t269 110.5q163 0 271.5 -110.5t108.5 -272.5q0 -159 -108.5 -269t-271.5 -113q-159 3 -269 113t-114 269z
M503 627q-38 0 -38 -37v-190q0 -39 38 -41q38 0 38 42v149h109q-72 -227 -77.5 -369t-5.5 -177q10 -31 41 -31q35 3 35 42q4 287 94 559q8 24 -3 38.5t-31 14.5h-200zM347 625l-91 -83q-19 -25 0 -54q30 -19 52 0l29 23v-495q1 -35 39 -36q38 -3 37 37v579q0 30 -21 39
t-45 -10z" />
    <glyph glyph-name="uni2471" unicode="&#x2471;" 
d="M55 322q3 -187 135.5 -321t320.5 -138q195 4 327 136t132 323q0 194 -132 326.5t-327 132.5q-188 0 -320.5 -134.5t-135.5 -324.5zM131 322q4 162 112.5 272.5t267.5 110.5q162 0 272.5 -110.5t110.5 -272.5q0 -159 -110.5 -269t-272.5 -113q-159 3 -267.5 113
t-112.5 269zM509 617q-55 -46 -55 -138q0 -86 62 -131q-70 -59 -77 -180q1 -155 138 -180q67 -4 125 45t58 139q0 120 -86 188q59 40 63 123q0 78 -38.5 118.5t-89.5 46t-100 -30.5zM575 400q-46 16 -45 79q1 56 28 77q19 17 43 15t42 -21.5t18 -66.5q-4 -27 -20.5 -58
t-65.5 -25zM587 63q-71 14 -72 105q11 128 61.5 134t71.5 -19q32 -37 36 -111q-4 -54 -33 -81.5t-64 -27.5zM336 632q-83 -75 -91 -84q-19 -22 0 -52q28 -19 52 0l25 21v-493q0 -33 38 -36q38 0 38 37v579q0 23 -21 35t-41 -7z" />
    <glyph glyph-name="uni2472" unicode="&#x2472;" 
d="M512 781q-187 0 -321.5 -134.5t-137.5 -324.5q3 -187 137.5 -321t321.5 -138q192 4 326 138t134 321q0 190 -134 324.5t-326 134.5zM512 -60q-158 3 -268.5 113t-114.5 269q4 162 114.5 272.5t268.5 110.5q163 0 273.5 -110.5t110.5 -272.5q0 -159 -110.5 -269
t-273.5 -113zM599 642q-63 0 -109 -48t-46 -115q4 -67 45.5 -123.5t141.5 -61.5l-85 -259q-10 -28 24 -47q38 -13 48 24l124 371q27 45 23 96q0 71 -47.5 117t-118.5 46zM603 368q-43 5 -61 34.5t-22 76.5q0 35 22.5 60.5t56.5 25.5q38 0 64 -24t26 -63q3 -35 -19.5 -73
t-66.5 -37zM357 632l-95 -83q-23 -23 -4 -53q25 -26 52 -5l33 28v-495q0 -35 38 -36q38 1 38 37v579q0 24 -22.5 33.5t-39.5 -5.5z" />
    <glyph glyph-name="uni2473" unicode="&#x2473;" 
d="M53 322q3 -187 137.5 -321t321.5 -138q192 4 326 138t134 321q0 190 -134 324.5t-326 134.5q-187 0 -321.5 -134.5t-137.5 -324.5zM129 322q4 162 114.5 272.5t268.5 110.5q163 0 273.5 -110.5t110.5 -272.5q0 -159 -110.5 -269t-273.5 -113q-158 3 -268.5 113
t-114.5 269zM512 342q2 -319 133 -336q94 2 117 114.5t23 221.5q-2 93 -31.5 200t-108.5 112q-95 4 -113.5 -109.5t-19.5 -202.5zM589 342q0 96 16 176t44 67q23 -7 41 -77t19 -166q-6 -255 -64 -252q-56 2 -56 252zM359 638q-60 -27 -73.5 -92.5t2.5 -128.5q10 -33 50 -27
q32 7 25 51q-8 37 -6 75t32 55q45 3 50 -49t-25 -107t-52 -96t-60 -116t-21 -137t81 -62h126q38 0 37 32q0 44 -35 43h-128q-15 1 -12.5 31t34 87.5t50 89.5t56.5 116t7.5 169t-138.5 66z" />
    <glyph glyph-name="glyph1324" 
 />
    <glyph glyph-name="glyph1325" 
 />
    <glyph glyph-name="glyph1326" 
 />
    <glyph glyph-name="glyph1327" 
 />
    <glyph glyph-name="glyph1328" 
 />
    <glyph glyph-name="glyph1329" 
 />
    <glyph glyph-name="glyph1330" 
 />
    <glyph glyph-name="glyph1331" 
 />
    <glyph glyph-name="glyph1332" 
 />
    <glyph glyph-name="glyph1333" 
 />
    <glyph glyph-name="glyph1334" 
 />
    <glyph glyph-name="glyph1335" 
 />
    <glyph glyph-name="glyph1336" 
 />
    <glyph glyph-name="glyph1337" 
 />
    <glyph glyph-name="glyph1338" 
 />
    <glyph glyph-name="glyph1339" 
 />
    <glyph glyph-name="glyph1340" 
 />
    <glyph glyph-name="glyph1341" 
 />
    <glyph glyph-name="glyph1342" 
 />
    <glyph glyph-name="glyph1343" 
 />
    <glyph glyph-name="glyph1344" 
 />
    <glyph glyph-name="glyph1345" 
 />
    <glyph glyph-name="glyph1346" 
 />
    <glyph glyph-name="glyph1347" 
 />
    <glyph glyph-name="glyph1348" 
 />
    <glyph glyph-name="glyph1349" 
 />
    <glyph glyph-name="glyph1350" 
 />
    <glyph glyph-name="glyph1351" 
 />
    <glyph glyph-name="glyph1352" 
 />
    <glyph glyph-name="glyph1353" 
 />
    <glyph glyph-name="glyph1354" 
 />
    <glyph glyph-name="glyph1355" 
 />
    <glyph glyph-name="glyph1356" 
 />
    <glyph glyph-name="glyph1357" 
 />
    <glyph glyph-name="glyph1358" 
 />
    <glyph glyph-name="glyph1359" 
 />
    <glyph glyph-name="glyph1360" 
 />
    <glyph glyph-name="glyph1361" 
 />
    <glyph glyph-name="glyph1362" 
 />
    <glyph glyph-name="glyph1363" 
 />
    <glyph glyph-name="glyph1364" 
 />
    <glyph glyph-name="glyph1365" 
 />
    <glyph glyph-name="glyph1366" 
 />
    <glyph glyph-name="glyph1367" 
 />
    <glyph glyph-name="glyph1368" 
 />
    <glyph glyph-name="glyph1369" 
 />
    <glyph glyph-name="glyph1370" 
 />
    <glyph glyph-name="glyph1371" 
 />
    <glyph glyph-name="glyph1372" 
 />
    <glyph glyph-name="glyph1373" 
 />
    <glyph glyph-name="glyph1374" 
 />
    <glyph glyph-name="glyph1375" 
 />
    <glyph glyph-name="glyph1376" 
 />
    <glyph glyph-name="glyph1377" 
 />
    <glyph glyph-name="glyph1378" 
 />
    <glyph glyph-name="glyph1379" 
 />
    <glyph glyph-name="glyph1380" 
 />
    <glyph glyph-name="glyph1381" 
 />
    <glyph glyph-name="glyph1382" 
 />
    <glyph glyph-name="glyph1383" 
 />
    <glyph glyph-name="glyph1384" 
 />
    <glyph glyph-name="glyph1385" 
 />
    <glyph glyph-name="glyph1386" 
 />
    <glyph glyph-name="glyph1387" 
 />
    <glyph glyph-name="glyph1388" 
 />
    <glyph glyph-name="glyph1389" 
 />
    <glyph glyph-name="glyph1390" 
 />
    <glyph glyph-name="glyph1391" 
 />
    <glyph glyph-name="glyph1392" 
 />
    <glyph glyph-name="glyph1393" 
 />
    <glyph glyph-name="glyph1394" 
 />
    <glyph glyph-name="glyph1395" 
 />
    <glyph glyph-name="glyph1396" 
 />
    <glyph glyph-name="glyph1397" 
 />
    <glyph glyph-name="glyph1398" 
 />
    <glyph glyph-name="glyph1399" 
 />
    <glyph glyph-name="glyph1400" 
 />
    <glyph glyph-name="glyph1401" 
 />
    <glyph glyph-name="glyph1402" 
 />
    <glyph glyph-name="glyph1403" 
 />
    <glyph glyph-name="glyph1404" 
 />
    <glyph glyph-name="glyph1405" 
 />
    <glyph glyph-name="glyph1406" 
 />
    <glyph glyph-name="glyph1407" 
 />
    <glyph glyph-name="glyph1408" 
 />
    <glyph glyph-name="glyph1409" 
 />
    <glyph glyph-name="glyph1410" 
 />
    <glyph glyph-name="glyph1411" 
 />
    <glyph glyph-name="glyph1412" 
 />
    <glyph glyph-name="glyph1413" 
 />
    <glyph glyph-name="glyph1414" 
 />
    <glyph glyph-name="glyph1415" 
 />
    <glyph glyph-name="glyph1416" 
 />
    <glyph glyph-name="glyph1417" 
 />
    <glyph glyph-name="glyph1418" 
 />
    <glyph glyph-name="glyph1419" 
 />
    <glyph glyph-name="glyph1420" 
 />
    <glyph glyph-name="glyph1421" 
 />
    <glyph glyph-name="glyph1422" 
 />
    <glyph glyph-name="glyph1423" 
 />
    <glyph glyph-name="glyph1424" 
 />
    <glyph glyph-name="glyph1425" 
 />
    <glyph glyph-name="glyph1426" 
 />
    <glyph glyph-name="glyph1427" 
 />
    <glyph glyph-name="glyph1428" 
 />
    <glyph glyph-name="glyph1429" 
 />
    <glyph glyph-name="glyph1430" 
 />
    <glyph glyph-name="glyph1431" 
 />
    <glyph glyph-name="glyph1432" 
 />
    <glyph glyph-name="glyph1433" 
 />
    <glyph glyph-name="glyph1434" 
 />
    <glyph glyph-name="glyph1435" 
 />
    <glyph glyph-name="glyph1436" 
 />
    <glyph glyph-name="glyph1437" 
 />
    <glyph glyph-name="glyph1438" 
 />
    <glyph glyph-name="glyph1439" 
 />
    <glyph glyph-name="glyph1440" 
 />
    <glyph glyph-name="glyph1441" 
 />
    <glyph glyph-name="glyph1442" 
 />
    <glyph glyph-name="SF100000" unicode="&#x2500;" 
d="M0 330h1023v77h-1023v-77z" />
    <glyph glyph-name="uni2501" unicode="&#x2501;" 
d="M0 315h1023v107h-1023v-107z" />
    <glyph glyph-name="SF110000" unicode="&#x2502;" 
d="M474 879v-1022h76v1022h-76z" />
    <glyph glyph-name="uni2503" unicode="&#x2503;" 
d="M459 879v-1022h106v1022h-106z" />
    <glyph glyph-name="glyph1447" horiz-adv-x="512" 
 />
    <glyph glyph-name="glyph1448" horiz-adv-x="512" 
 />
    <glyph glyph-name="glyph1449" horiz-adv-x="512" 
 />
    <glyph glyph-name="glyph1450" horiz-adv-x="512" 
 />
    <glyph glyph-name="glyph1451" horiz-adv-x="512" 
 />
    <glyph glyph-name="glyph1452" horiz-adv-x="512" 
 />
    <glyph glyph-name="glyph1453" horiz-adv-x="512" 
 />
    <glyph glyph-name="glyph1454" horiz-adv-x="512" 
 />
    <glyph glyph-name="SF010000" unicode="&#x250c;" 
d="M484 413q-38 0 -38 -37v-519h76v481h502v75h-540z" />
    <glyph glyph-name="glyph1456" horiz-adv-x="512" 
 />
    <glyph glyph-name="glyph1457" horiz-adv-x="512" 
 />
    <glyph glyph-name="uni250F" unicode="&#x250f;" 
d="M512 420q-53 0 -53 -52v-511h106v458h459v105h-512z" />
    <glyph glyph-name="SF030000" unicode="&#x2510;" 
d="M542 413h-540v-75h502v-481h76v519q0 37 -38 37z" />
    <glyph glyph-name="glyph1460" horiz-adv-x="512" 
 />
    <glyph glyph-name="glyph1461" horiz-adv-x="512" 
 />
    <glyph glyph-name="uni2513" unicode="&#x2513;" 
d="M514 420h-512v-105h459v-458h106v511q0 52 -53 52z" />
    <glyph glyph-name="SF020000" unicode="&#x2514;" 
d="M484 325h540v75h-502v481h-76v-519q0 -37 38 -37z" />
    <glyph glyph-name="glyph1464" horiz-adv-x="512" 
 />
    <glyph glyph-name="glyph1465" horiz-adv-x="512" 
 />
    <glyph glyph-name="uni2517" unicode="&#x2517;" 
d="M510 316h512v105h-459v458h-106v-511q0 -52 53 -52z" />
    <glyph glyph-name="SF040000" unicode="&#x2518;" 
d="M538 325q38 0 38 37v519h-76v-481h-502v-75h540z" />
    <glyph glyph-name="glyph1468" horiz-adv-x="512" 
 />
    <glyph glyph-name="glyph1469" horiz-adv-x="512" 
 />
    <glyph glyph-name="uni251B" unicode="&#x251b;" 
d="M514 316q53 0 53 52v511h-106v-458h-459v-105h512z" />
    <glyph glyph-name="SF080000" unicode="&#x251c;" 
d="M1024 405h-474v474h-76v-1022h76v473h474v75z" />
    <glyph glyph-name="uni251D" unicode="&#x251d;" 
d="M552 879h-76v-1022h76v458h473v105h-473v459z" />
    <glyph glyph-name="glyph1473" horiz-adv-x="512" 
 />
    <glyph glyph-name="glyph1474" horiz-adv-x="512" 
 />
    <glyph glyph-name="uni2520" unicode="&#x2520;" 
d="M1024 405h-459v474h-106v-1022h106v473h459v75z" />
    <glyph glyph-name="glyph1476" horiz-adv-x="512" 
 />
    <glyph glyph-name="glyph1477" horiz-adv-x="512" 
 />
    <glyph glyph-name="uni2523" unicode="&#x2523;" 
d="M1024 420h-459v459h-106v-1022h106v458h459v105z" />
    <glyph glyph-name="SF090000" unicode="&#x2524;" 
d="M2 405v-75h474v-473h76v1022h-76v-474h-474z" />
    <glyph glyph-name="uni2525" unicode="&#x2525;" 
d="M474 879v-459h-473v-105h473v-458h76v1022h-76z" />
    <glyph glyph-name="glyph1481" horiz-adv-x="512" 
 />
    <glyph glyph-name="glyph1482" horiz-adv-x="512" 
 />
    <glyph glyph-name="uni2528" unicode="&#x2528;" 
d="M-2 405v-75h459v-473h106v1022h-106v-474h-459z" />
    <glyph glyph-name="glyph1484" horiz-adv-x="512" 
 />
    <glyph glyph-name="glyph1485" horiz-adv-x="512" 
 />
    <glyph glyph-name="uni252B" unicode="&#x252b;" 
d="M2 420v-105h459v-458h106v1022h-106v-459h-459z" />
    <glyph glyph-name="SF060000" unicode="&#x252c;" 
d="M550 333h474v76h-1023v-76h473v-477h76v477z" />
    <glyph glyph-name="glyph1488" horiz-adv-x="512" 
 />
    <glyph glyph-name="glyph1489" horiz-adv-x="512" 
 />
    <glyph glyph-name="uni252F" unicode="&#x252f;" 
d="M1024 420h-1023v-106h473v-457h76v457h474v106z" />
    <glyph glyph-name="uni2530" unicode="&#x2530;" 
d="M565 330h459v76h-1023v-76h458v-473h106v473z" />
    <glyph glyph-name="glyph1492" horiz-adv-x="512" 
 />
    <glyph glyph-name="glyph1493" horiz-adv-x="512" 
 />
    <glyph glyph-name="uni2533" unicode="&#x2533;" 
d="M565 313h459v105h-1023v-105h458v-458h106v458z" />
    <glyph glyph-name="SF070000" unicode="&#x2534;" 
d="M550 405v473h-76v-473h-473v-76h1023v76h-474z" />
    <glyph glyph-name="glyph1496" horiz-adv-x="512" 
 />
    <glyph glyph-name="glyph1497" horiz-adv-x="512" 
 />
    <glyph glyph-name="uni2537" unicode="&#x2537;" 
d="M1024 316v106h-474v457h-76v-457h-473v-106h1023z" />
    <glyph glyph-name="uni2538" unicode="&#x2538;" 
d="M565 406v473h-106v-473h-458v-76h1023v76h-459z" />
    <glyph glyph-name="glyph1500" horiz-adv-x="512" 
 />
    <glyph glyph-name="glyph1501" horiz-adv-x="512" 
 />
    <glyph glyph-name="uni253B" unicode="&#x253b;" 
d="M565 421v458h-106v-458h-458v-105h1023v105h-459z" />
    <glyph glyph-name="SF050000" unicode="&#x253c;" 
d="M1024 405h-474v474h-76v-474h-473v-75h473v-473h76v473h474v75z" />
    <glyph glyph-name="glyph1504" horiz-adv-x="512" 
 />
    <glyph glyph-name="glyph1505" horiz-adv-x="512" 
 />
    <glyph glyph-name="uni253F" unicode="&#x253f;" 
d="M1024 420h-474v459h-76v-459h-473v-105h473v-458h76v458h474v105z" />
    <glyph glyph-name="glyph1507" horiz-adv-x="512" 
 />
    <glyph glyph-name="glyph1508" horiz-adv-x="512" 
 />
    <glyph glyph-name="uni2542" unicode="&#x2542;" 
d="M458 880v-474h-458v-78h458v-471h107v471h458v78h-458v474h-107z" />
    <glyph glyph-name="glyph1510" horiz-adv-x="512" 
 />
    <glyph glyph-name="glyph1511" horiz-adv-x="512" 
 />
    <glyph glyph-name="glyph1512" horiz-adv-x="512" 
 />
    <glyph glyph-name="glyph1513" horiz-adv-x="512" 
 />
    <glyph glyph-name="glyph1514" horiz-adv-x="512" 
 />
    <glyph glyph-name="glyph1515" horiz-adv-x="512" 
 />
    <glyph glyph-name="glyph1516" horiz-adv-x="512" 
 />
    <glyph glyph-name="glyph1517" horiz-adv-x="512" 
 />
    <glyph glyph-name="uni254B" unicode="&#x254b;" 
d="M1024 420h-459v459h-106v-459h-458v-105h458v-458h106v458h459v105z" />
    <glyph glyph-name="glyph1519" horiz-adv-x="512" 
 />
    <glyph glyph-name="glyph1520" horiz-adv-x="512" 
 />
    <glyph glyph-name="glyph1521" horiz-adv-x="512" 
 />
    <glyph glyph-name="glyph1522" horiz-adv-x="512" 
 />
    <glyph glyph-name="glyph1523" horiz-adv-x="512" 
 />
    <glyph glyph-name="glyph1524" horiz-adv-x="512" 
 />
    <glyph glyph-name="glyph1525" horiz-adv-x="512" 
 />
    <glyph glyph-name="glyph1526" horiz-adv-x="512" 
 />
    <glyph glyph-name="glyph1527" horiz-adv-x="512" 
 />
    <glyph glyph-name="glyph1528" horiz-adv-x="512" 
 />
    <glyph glyph-name="glyph1529" horiz-adv-x="512" 
 />
    <glyph glyph-name="glyph1530" horiz-adv-x="512" 
 />
    <glyph glyph-name="glyph1531" horiz-adv-x="512" 
 />
    <glyph glyph-name="glyph1532" horiz-adv-x="512" 
 />
    <glyph glyph-name="glyph1533" horiz-adv-x="512" 
 />
    <glyph glyph-name="glyph1534" horiz-adv-x="512" 
 />
    <glyph glyph-name="glyph1535" horiz-adv-x="512" 
 />
    <glyph glyph-name="glyph1536" horiz-adv-x="512" 
 />
    <glyph glyph-name="glyph1537" horiz-adv-x="512" 
 />
    <glyph glyph-name="glyph1538" horiz-adv-x="512" 
 />
    <glyph glyph-name="glyph1539" horiz-adv-x="512" 
 />
    <glyph glyph-name="glyph1540" horiz-adv-x="512" 
 />
    <glyph glyph-name="glyph1541" horiz-adv-x="512" 
 />
    <glyph glyph-name="glyph1542" horiz-adv-x="512" 
 />
    <glyph glyph-name="glyph1543" horiz-adv-x="512" 
 />
    <glyph glyph-name="glyph1544" horiz-adv-x="512" 
 />
    <glyph glyph-name="glyph1545" horiz-adv-x="512" 
 />
    <glyph glyph-name="glyph1546" horiz-adv-x="512" 
 />
    <glyph glyph-name="glyph1547" horiz-adv-x="512" 
 />
    <glyph glyph-name="glyph1548" horiz-adv-x="512" 
 />
    <glyph glyph-name="glyph1549" horiz-adv-x="512" 
 />
    <glyph glyph-name="glyph1550" horiz-adv-x="512" 
 />
    <glyph glyph-name="glyph1551" horiz-adv-x="512" 
 />
    <glyph glyph-name="glyph1552" horiz-adv-x="512" 
 />
    <glyph glyph-name="glyph1553" horiz-adv-x="512" 
 />
    <glyph glyph-name="glyph1554" horiz-adv-x="512" 
 />
    <glyph glyph-name="glyph1555" horiz-adv-x="512" 
 />
    <glyph glyph-name="glyph1556" horiz-adv-x="512" 
 />
    <glyph glyph-name="glyph1557" horiz-adv-x="512" 
 />
    <glyph glyph-name="glyph1558" horiz-adv-x="512" 
 />
    <glyph glyph-name="glyph1559" horiz-adv-x="512" 
 />
    <glyph glyph-name="glyph1560" horiz-adv-x="512" 
 />
    <glyph glyph-name="glyph1561" horiz-adv-x="512" 
 />
    <glyph glyph-name="glyph1562" horiz-adv-x="512" 
 />
    <glyph glyph-name="glyph1563" horiz-adv-x="512" 
 />
    <glyph glyph-name="glyph1564" horiz-adv-x="512" 
 />
    <glyph glyph-name="glyph1565" horiz-adv-x="512" 
 />
    <glyph glyph-name="glyph1566" horiz-adv-x="512" 
 />
    <glyph glyph-name="glyph1567" horiz-adv-x="512" 
 />
    <glyph glyph-name="glyph1568" horiz-adv-x="512" 
 />
    <glyph glyph-name="glyph1569" horiz-adv-x="512" 
 />
    <glyph glyph-name="glyph1570" horiz-adv-x="512" 
 />
    <glyph glyph-name="glyph1571" horiz-adv-x="512" 
 />
    <glyph glyph-name="glyph1572" horiz-adv-x="512" 
 />
    <glyph glyph-name="glyph1573" horiz-adv-x="512" 
 />
    <glyph glyph-name="glyph1574" horiz-adv-x="512" 
 />
    <glyph glyph-name="glyph1575" horiz-adv-x="512" 
 />
    <glyph glyph-name="glyph1576" horiz-adv-x="512" 
 />
    <glyph glyph-name="glyph1577" horiz-adv-x="512" 
 />
    <glyph glyph-name="glyph1578" horiz-adv-x="512" 
 />
    <glyph glyph-name="glyph1579" horiz-adv-x="512" 
 />
    <glyph glyph-name="glyph1580" horiz-adv-x="512" 
 />
    <glyph glyph-name="glyph1581" horiz-adv-x="512" 
 />
    <glyph glyph-name="glyph1582" horiz-adv-x="512" 
 />
    <glyph glyph-name="glyph1583" horiz-adv-x="512" 
 />
    <glyph glyph-name="glyph1584" horiz-adv-x="512" 
 />
    <glyph glyph-name="glyph1585" horiz-adv-x="512" 
 />
    <glyph glyph-name="glyph1586" horiz-adv-x="512" 
 />
    <glyph glyph-name="glyph1587" horiz-adv-x="512" 
 />
    <glyph glyph-name="glyph1588" horiz-adv-x="512" 
 />
    <glyph glyph-name="glyph1589" horiz-adv-x="512" 
 />
    <glyph glyph-name="glyph1590" horiz-adv-x="512" 
 />
    <glyph glyph-name="glyph1591" horiz-adv-x="512" 
 />
    <glyph glyph-name="glyph1592" horiz-adv-x="512" 
 />
    <glyph glyph-name="filledbox" unicode="&#x25a0;" 
d="M128 725q-38 0 -38 -38v-766q0 -38 37 -38h770q37 0 37 37v768q0 37 -38 37h-768z" />
    <glyph glyph-name="H22073" unicode="&#x25a1;" 
d="M128 725q-38 0 -38 -38v-766q0 -38 37 -38h770q37 0 37 37v768q0 37 -38 37h-768zM858 649v-691h-692v691h692z" />
    <glyph glyph-name="glyph1595" 
 />
    <glyph glyph-name="glyph1596" 
 />
    <glyph glyph-name="glyph1597" 
 />
    <glyph glyph-name="glyph1598" 
 />
    <glyph glyph-name="glyph1599" 
 />
    <glyph glyph-name="glyph1600" 
 />
    <glyph glyph-name="glyph1601" 
 />
    <glyph glyph-name="glyph1602" 
 />
    <glyph glyph-name="glyph1603" 
 />
    <glyph glyph-name="glyph1604" 
 />
    <glyph glyph-name="glyph1605" 
 />
    <glyph glyph-name="glyph1606" 
 />
    <glyph glyph-name="glyph1607" 
 />
    <glyph glyph-name="glyph1608" 
 />
    <glyph glyph-name="glyph1609" 
 />
    <glyph glyph-name="glyph1610" 
 />
    <glyph glyph-name="triagup" unicode="&#x25b2;" 
d="M479 705l-384 -766q-10 -18 0 -37q9 -19 33 -19h768q21 0 33 17q10 18 1 38l-385 768q-10 19 -33 21q-26 -2 -33 -22z" />
    <glyph glyph-name="uni25B3" unicode="&#x25b3;" 
d="M479 705l-384 -766q-10 -18 0 -37q9 -19 33 -19h768q21 0 33 17q10 18 1 38l-385 768q-10 19 -33 21q-26 -2 -33 -22zM512 601l322 -643h-644z" />
    <glyph glyph-name="glyph1613" 
 />
    <glyph glyph-name="glyph1614" 
 />
    <glyph glyph-name="glyph1615" 
 />
    <glyph glyph-name="glyph1616" 
 />
    <glyph glyph-name="glyph1617" 
 />
    <glyph glyph-name="glyph1618" 
 />
    <glyph glyph-name="glyph1619" 
 />
    <glyph glyph-name="glyph1620" 
 />
    <glyph glyph-name="triagdn" unicode="&#x25bc;" 
d="M130 725q-22 0 -34 -19q-11 -17 0 -37l384 -767q10 -18 33 -19q22 -1 33 18l385 768q8 17 -1 36q-13 20 -34 20h-766z" />
    <glyph glyph-name="uni25BD" unicode="&#x25bd;" 
d="M130 725q-22 0 -34 -19q-11 -17 0 -37l384 -767q10 -18 33 -19q22 -1 33 18l385 768q8 17 -1 36q-13 20 -34 20h-766zM835 649l-322 -643l-322 643h644z" />
    <glyph glyph-name="glyph1623" 
 />
    <glyph glyph-name="glyph1624" 
 />
    <glyph glyph-name="glyph1625" 
 />
    <glyph glyph-name="glyph1626" 
 />
    <glyph glyph-name="glyph1627" 
 />
    <glyph glyph-name="glyph1628" 
 />
    <glyph glyph-name="glyph1629" 
 />
    <glyph glyph-name="glyph1630" 
 />
    <glyph glyph-name="uni25C6" unicode="&#x25c6;" 
d="M486 779l-417 -416q-26 -26 0 -55l417 -416q27 -23 56 0l417 416q22 27 0 55l-417 416q-28 27 -56 0z" />
    <glyph glyph-name="uni25C7" unicode="&#x25c7;" 
d="M486 779l-417 -416q-26 -26 0 -55l417 -416q27 -23 56 0l417 416q22 27 0 55l-417 416q-28 27 -56 0zM514 698l364 -362l-364 -364l-364 364z" />
    <glyph glyph-name="glyph1633" 
 />
    <glyph glyph-name="glyph1634" 
 />
    <glyph glyph-name="glyph1635" 
 />
    <glyph glyph-name="circle" unicode="&#x25cb;" 
d="M90 304q0 -173 123 -295t299 -126q172 4 295 126t127 295q-4 175 -127 298t-295 123q-176 0 -299 -123t-123 -298zM166 304q0 146 99 245.5t247 99.5q144 0 243 -99.5t103 -245.5q-4 -144 -103 -243t-243 -103q-148 4 -247 103t-99 243z" />
    <glyph glyph-name="glyph1637" 
 />
    <glyph glyph-name="glyph1638" 
 />
    <glyph glyph-name="uni25CE" unicode="&#x25ce;" 
d="M90 304q0 -173 123 -295t299 -126q172 4 295 126t127 295q-4 175 -127 298t-295 123q-176 0 -299 -123t-123 -298zM166 304q0 146 99 245.5t247 99.5q144 0 243 -99.5t103 -245.5q-4 -144 -103 -243t-243 -103q-148 4 -247 103t-99 243zM282 304q0 -93 66.5 -159.5
t163.5 -70.5q93 4 159.5 70.5t70.5 159.5q-4 96 -70.5 162.5t-159.5 66.5q-97 0 -163.5 -66.5t-66.5 -162.5zM358 304q0 67 42.5 110t111.5 43q65 0 107.5 -43t46.5 -110q-4 -64 -47 -107t-107 -47q-69 4 -111.5 46.5t-42.5 107.5z" />
    <glyph glyph-name="H18533" unicode="&#x25cf;" 
d="M90 304q0 -173 123 -295t299 -126q172 4 295 126t127 295q-4 175 -127 298t-295 123q-176 0 -299 -123t-123 -298z" />
    <glyph glyph-name="glyph1641" 
 />
    <glyph glyph-name="glyph1642" 
 />
    <glyph glyph-name="glyph1643" 
 />
    <glyph glyph-name="glyph1644" 
 />
    <glyph glyph-name="glyph1645" 
 />
    <glyph glyph-name="glyph1646" 
 />
    <glyph glyph-name="glyph1647" 
 />
    <glyph glyph-name="glyph1648" 
 />
    <glyph glyph-name="glyph1649" 
 />
    <glyph glyph-name="glyph1650" 
 />
    <glyph glyph-name="glyph1651" 
 />
    <glyph glyph-name="glyph1652" 
 />
    <glyph glyph-name="glyph1653" 
 />
    <glyph glyph-name="glyph1654" 
 />
    <glyph glyph-name="glyph1655" 
 />
    <glyph glyph-name="glyph1656" 
 />
    <glyph glyph-name="glyph1657" 
 />
    <glyph glyph-name="glyph1658" 
 />
    <glyph glyph-name="glyph1659" 
 />
    <glyph glyph-name="glyph1660" 
 />
    <glyph glyph-name="glyph1661" 
 />
    <glyph glyph-name="glyph1662" 
 />
    <glyph glyph-name="glyph1663" 
 />
    <glyph glyph-name="glyph1664" 
 />
    <glyph glyph-name="glyph1665" 
 />
    <glyph glyph-name="glyph1666" 
 />
    <glyph glyph-name="glyph1667" 
 />
    <glyph glyph-name="glyph1668" 
 />
    <glyph glyph-name="glyph1669" 
 />
    <glyph glyph-name="glyph1670" 
 />
    <glyph glyph-name="glyph1671" 
 />
    <glyph glyph-name="uni25EF" unicode="&#x25ef;" 
d="M56 317q4 -187 137 -319.5t321 -137.5q191 5 322.5 137.5t131.5 319.5q0 190 -131.5 323.5t-322.5 133.5q-188 0 -321 -133.5t-137 -323.5zM131 317q4 161 114.5 271.5t268.5 110.5q162 0 270 -110.5t108 -271.5q0 -158 -108 -267.5t-270 -113.5q-158 4 -268.5 113.5
t-114.5 267.5z" />
    <glyph glyph-name="glyph1673" 
 />
    <glyph glyph-name="glyph1674" 
 />
    <glyph glyph-name="glyph1675" 
 />
    <glyph glyph-name="glyph1676" 
 />
    <glyph glyph-name="glyph1677" 
 />
    <glyph glyph-name="uni2605" unicode="&#x2605;" 
d="M510 772q-24 0 -33 -24l-130 -255h-251q-33 0 -38 -30q-5 -23 14 -37l236 -183l-166 -321q-15 -25 9 -47q19 -15 43 -5l316 193l312 -193q28 -12 50 1q19 19 7 49l-167 323l236 183q23 17 16 44q-10 23 -40 23h-251l-130 256q-12 23 -33 23z" />
    <glyph glyph-name="uni2606" unicode="&#x2606;" 
d="M510 772q-24 0 -33 -24l-130 -255h-251q-33 0 -38 -30q-5 -23 14 -37l236 -183l-166 -321q-15 -25 9 -47q19 -15 43 -5l316 193l312 -193q28 -12 50 1q19 19 7 49l-167 323l236 183q23 17 16 44q-10 23 -40 23h-251l-130 256q-12 23 -33 23zM372 417q26 0 32 18l106 209
l102 -209q10 -18 36 -18h166l-172 -131q-21 -11 -20 -25q1 -12 4 -22l120 -233l-217 133q-20 13 -38 0l-221 -134l119 232q5 10 7 23q-2 15 -17 26l-173 131h166z" />
    <glyph glyph-name="glyph1680" 
 />
    <glyph glyph-name="glyph1681" 
 />
    <glyph glyph-name="glyph1682" 
 />
    <glyph glyph-name="glyph1683" 
 />
    <glyph glyph-name="glyph1684" 
 />
    <glyph glyph-name="glyph1685" 
 />
    <glyph glyph-name="glyph1686" 
 />
    <glyph glyph-name="glyph1687" 
 />
    <glyph glyph-name="glyph1688" 
 />
    <glyph glyph-name="glyph1689" 
 />
    <glyph glyph-name="glyph1690" 
 />
    <glyph glyph-name="glyph1691" 
 />
    <glyph glyph-name="glyph1692" 
 />
    <glyph glyph-name="glyph1693" 
 />
    <glyph glyph-name="glyph1694" 
 />
    <glyph glyph-name="glyph1695" 
 />
    <glyph glyph-name="glyph1696" 
 />
    <glyph glyph-name="glyph1697" 
 />
    <glyph glyph-name="glyph1698" 
 />
    <glyph glyph-name="glyph1699" 
 />
    <glyph glyph-name="glyph1700" 
 />
    <glyph glyph-name="glyph1701" 
 />
    <glyph glyph-name="glyph1702" 
 />
    <glyph glyph-name="glyph1703" 
 />
    <glyph glyph-name="glyph1704" 
 />
    <glyph glyph-name="glyph1705" 
 />
    <glyph glyph-name="glyph1706" 
 />
    <glyph glyph-name="glyph1707" 
 />
    <glyph glyph-name="glyph1708" 
 />
    <glyph glyph-name="glyph1709" 
 />
    <glyph glyph-name="glyph1710" 
 />
    <glyph glyph-name="glyph1711" 
 />
    <glyph glyph-name="glyph1712" 
 />
    <glyph glyph-name="glyph1713" 
 />
    <glyph glyph-name="glyph1714" 
 />
    <glyph glyph-name="glyph1715" 
 />
    <glyph glyph-name="glyph1716" 
 />
    <glyph glyph-name="glyph1717" 
 />
    <glyph glyph-name="glyph1718" 
 />
    <glyph glyph-name="glyph1719" 
 />
    <glyph glyph-name="glyph1720" 
 />
    <glyph glyph-name="glyph1721" 
 />
    <glyph glyph-name="glyph1722" 
 />
    <glyph glyph-name="glyph1723" 
 />
    <glyph glyph-name="glyph1724" 
 />
    <glyph glyph-name="glyph1725" 
 />
    <glyph glyph-name="glyph1726" 
 />
    <glyph glyph-name="glyph1727" 
 />
    <glyph glyph-name="glyph1728" 
 />
    <glyph glyph-name="glyph1729" 
 />
    <glyph glyph-name="glyph1730" 
 />
    <glyph glyph-name="female" unicode="&#x2640;" 
d="M829 282h-278v68q206 33 229 247q-3 100 -79 176t-188 76q-116 0 -194 -68t-74 -184q24 -210 230 -247v-68h-279q-36 0 -38 -38q1 -38 38 -38h279v-310q0 -38 39 -38q37 0 37 38v310h278q36 0 38 37q-1 39 -38 39zM321 597q-4 88 52 132t140 44q80 0 133.5 -52t57.5 -124
q-4 -76 -59.5 -124.5t-131.5 -52.5q-80 4 -136 52.5t-56 124.5z" />
    <glyph glyph-name="glyph1732" 
 />
    <glyph glyph-name="male" unicode="&#x2642;" 
d="M910 792q-106 67 -250 6q-30 -10 -23 -48q12 -33 46 -24q70 34 135 24l-341 -393q-66 50 -151 50q-115 0 -192.5 -79.5t-77.5 -194.5q0 -111 77.5 -189.5t192.5 -82.5q112 4 187 82.5t79 189.5q-4 100 -58 172l336 389q9 -57 -3 -134q-6 -38 34 -43q39 -3 42 32
q25 182 -33 243zM326 -63q-82 3 -138 60t-56 136q0 83 55.5 140.5t138.5 57.5q79 0 132.5 -57.5t57.5 -140.5q-4 -79 -58 -136t-132 -60z" />
    <glyph glyph-name="glyph1734" 
 />
    <glyph glyph-name="glyph1735" 
 />
    <glyph glyph-name="glyph1736" 
 />
    <glyph glyph-name="glyph1737" 
 />
    <glyph glyph-name="glyph1738" 
 />
    <glyph glyph-name="glyph1739" 
 />
    <glyph glyph-name="glyph1740" 
 />
    <glyph glyph-name="glyph1741" 
 />
    <glyph glyph-name="glyph1742" 
 />
    <glyph glyph-name="glyph1743" 
 />
    <glyph glyph-name="glyph1744" 
 />
    <glyph glyph-name="glyph1745" 
 />
    <glyph glyph-name="glyph1746" 
 />
    <glyph glyph-name="glyph1747" 
 />
    <glyph glyph-name="glyph1748" 
 />
    <glyph glyph-name="glyph1749" 
 />
    <glyph glyph-name="glyph1750" 
 />
    <glyph glyph-name="glyph1751" 
 />
    <glyph glyph-name="glyph1752" 
 />
    <glyph glyph-name="glyph1753" 
 />
    <glyph glyph-name="glyph1754" 
 />
    <glyph glyph-name="glyph1755" 
 />
    <glyph glyph-name="glyph1756" 
 />
    <glyph glyph-name="glyph1757" 
 />
    <glyph glyph-name="glyph1758" 
 />
    <glyph glyph-name="glyph1759" 
 />
    <glyph glyph-name="glyph1760" 
 />
    <glyph glyph-name="glyph1761" 
 />
    <glyph glyph-name="glyph1762" 
 />
    <glyph glyph-name="glyph1763" 
 />
    <glyph glyph-name="glyph1764" 
 />
    <glyph glyph-name="glyph1765" 
 />
    <glyph glyph-name="glyph1766" 
 />
    <glyph glyph-name="glyph1767" 
 />
    <glyph glyph-name="glyph1768" 
 />
    <glyph glyph-name="glyph1769" 
 />
    <glyph glyph-name="glyph1770" 
 />
    <glyph glyph-name="glyph1771" 
 />
    <glyph glyph-name="glyph1772" 
 />
    <glyph glyph-name="musicalnote" unicode="&#x266a;" 
d="M690 679q-76 45 -141 114q-20 25 -43.5 15.5t-23.5 -39.5v-603q-99 21 -180 -25q-79 -43 -100.5 -107t6.5 -114q41 -56 110 -56t141 43t99 156v617q32 -35 90 -68q99 -58 108 -141.5t-53 -130.5q-28 -20 -4 -53q23 -23 52 -5q93 70 80.5 198.5t-141.5 198.5z" />
    <glyph glyph-name="glyph1774" 
 />
    <glyph glyph-name="glyph1775" 
 />
    <glyph glyph-name="uni266D" unicode="&#x266d;" 
d="M335 746v-839q0 -31 20.5 -38.5t42.5 9.5q97 86 194 198t80.5 202t-110 86t-151.5 -20v401q0 38 -38 38q-38 -1 -38 -37zM411 -4v271q83 28 147.5 24.5t21.5 -98.5t-169 -197z" />
    <glyph glyph-name="glyph1777" 
 />
    <glyph glyph-name="uni266F" unicode="&#x266f;" 
d="M912 260l-216 -29v340l226 30q41 10 34 42q-10 42 -44 34l-216 -29v153q1 38 -37 38q-39 2 -39 -37v-164l-263 -36v116q1 38 -37 38t-39 -37v-126l-185 -25q-37 -8 -33 -44q11 -40 41 -33l177 26v-341l-185 -25q-38 -6 -33 -43q8 -39 41 -30l177 22v-202q1 -38 38 -37
q39 1 38 39v209l263 36v-164q0 -36 38 -37q38 4 38 38v173l226 29q44 5 34 42q-7 37 -44 34zM357 186v340l263 36v-341z" />
    <glyph glyph-name="glyph1779" 
 />
    <glyph glyph-name="glyph1780" 
 />
    <glyph glyph-name="glyph1781" 
 />
    <glyph glyph-name="glyph1782" 
 />
    <glyph glyph-name="glyph1783" 
 />
    <glyph glyph-name="glyph1784" 
 />
    <glyph glyph-name="glyph1785" 
 />
    <glyph glyph-name="glyph1786" 
 />
    <glyph glyph-name="glyph1787" 
 />
    <glyph glyph-name="glyph1788" 
 />
    <glyph glyph-name="glyph1789" 
 />
    <glyph glyph-name="glyph1790" 
 />
    <glyph glyph-name="glyph1791" 
 />
    <glyph glyph-name="glyph1792" 
 />
    <glyph glyph-name="glyph1793" 
 />
    <glyph glyph-name="glyph1794" 
 />
    <glyph glyph-name="glyph1795" 
 />
    <glyph glyph-name="glyph1796" 
 />
    <glyph glyph-name="glyph1797" 
 />
    <glyph glyph-name="glyph1798" 
 />
    <glyph glyph-name="glyph1799" 
 />
    <glyph glyph-name="glyph1800" 
 />
    <glyph glyph-name="glyph1801" 
 />
    <glyph glyph-name="glyph1802" 
 />
    <glyph glyph-name="glyph1803" 
 />
    <glyph glyph-name="glyph1804" 
 />
    <glyph glyph-name="glyph1805" 
 />
    <glyph glyph-name="glyph1806" 
 />
    <glyph glyph-name="glyph1807" 
 />
    <glyph glyph-name="glyph1808" 
 />
    <glyph glyph-name="glyph1809" 
 />
    <glyph glyph-name="glyph1810" 
 />
    <glyph glyph-name="glyph1811" 
 />
    <glyph glyph-name="glyph1812" 
 />
    <glyph glyph-name="glyph1813" 
 />
    <glyph glyph-name="glyph1814" 
 />
    <glyph glyph-name="glyph1815" 
 />
    <glyph glyph-name="glyph1816" 
 />
    <glyph glyph-name="glyph1817" 
 />
    <glyph glyph-name="glyph1818" 
 />
    <glyph glyph-name="glyph1819" 
 />
    <glyph glyph-name="glyph1820" 
 />
    <glyph glyph-name="glyph1821" 
 />
    <glyph glyph-name="glyph1822" 
 />
    <glyph glyph-name="glyph1823" 
 />
    <glyph glyph-name="glyph1824" 
 />
    <glyph glyph-name="glyph1825" 
 />
    <glyph glyph-name="glyph1826" 
 />
    <glyph glyph-name="glyph1827" 
 />
    <glyph glyph-name="glyph1828" 
 />
    <glyph glyph-name="glyph1829" 
 />
    <glyph glyph-name="glyph1830" 
 />
    <glyph glyph-name="glyph1831" 
 />
    <glyph glyph-name="glyph1832" 
 />
    <glyph glyph-name="glyph1833" 
 />
    <glyph glyph-name="glyph1834" 
 />
    <glyph glyph-name="glyph1835" 
 />
    <glyph glyph-name="glyph1836" 
 />
    <glyph glyph-name="glyph1837" 
 />
    <glyph glyph-name="glyph1838" 
 />
    <glyph glyph-name="glyph1839" 
 />
    <glyph glyph-name="glyph1840" 
 />
    <glyph glyph-name="glyph1841" 
 />
    <glyph glyph-name="glyph1842" 
 />
    <glyph glyph-name="glyph1843" 
 />
    <glyph glyph-name="glyph1844" 
 />
    <glyph glyph-name="glyph1845" 
 />
    <glyph glyph-name="glyph1846" 
 />
    <glyph glyph-name="glyph1847" 
 />
    <glyph glyph-name="glyph1848" 
 />
    <glyph glyph-name="glyph1849" 
 />
    <glyph glyph-name="glyph1850" 
 />
    <glyph glyph-name="glyph1851" 
 />
    <glyph glyph-name="glyph1852" 
 />
    <glyph glyph-name="glyph1853" 
 />
    <glyph glyph-name="glyph1854" 
 />
    <glyph glyph-name="glyph1855" 
 />
    <glyph glyph-name="glyph1856" 
 />
    <glyph glyph-name="glyph1857" 
 />
    <glyph glyph-name="glyph1858" 
 />
    <glyph glyph-name="glyph1859" 
 />
    <glyph glyph-name="glyph1860" 
 />
    <glyph glyph-name="glyph1861" 
 />
    <glyph glyph-name="glyph1862" 
 />
    <glyph glyph-name="glyph1863" 
 />
    <glyph glyph-name="glyph1864" 
 />
    <glyph glyph-name="glyph1865" 
 />
    <glyph glyph-name="glyph1866" 
 />
    <glyph glyph-name="glyph1867" 
 />
    <glyph glyph-name="glyph1868" 
 />
    <glyph glyph-name="glyph1869" 
 />
    <glyph glyph-name="glyph1870" 
 />
    <glyph glyph-name="glyph1871" 
 />
    <glyph glyph-name="glyph1872" 
 />
    <glyph glyph-name="glyph1873" 
 />
    <glyph glyph-name="glyph1874" 
 />
    <glyph glyph-name="glyph1875" 
 />
    <glyph glyph-name="glyph1876" 
 />
    <glyph glyph-name="glyph1877" 
 />
    <glyph glyph-name="glyph1878" 
 />
    <glyph glyph-name="glyph1879" 
 />
    <glyph glyph-name="glyph1880" 
 />
    <glyph glyph-name="glyph1881" 
 />
    <glyph glyph-name="glyph1882" 
 />
    <glyph glyph-name="glyph1883" 
 />
    <glyph glyph-name="glyph1884" 
 />
    <glyph glyph-name="glyph1885" 
 />
    <glyph glyph-name="glyph1886" 
 />
    <glyph glyph-name="glyph1887" 
 />
    <glyph glyph-name="glyph1888" 
 />
    <glyph glyph-name="glyph1889" 
 />
    <glyph glyph-name="glyph1890" 
 />
    <glyph glyph-name="glyph1891" 
 />
    <glyph glyph-name="glyph1892" 
 />
    <glyph glyph-name="glyph1893" 
 />
    <glyph glyph-name="glyph1894" 
 />
    <glyph glyph-name="glyph1895" 
 />
    <glyph glyph-name="glyph1896" 
 />
    <glyph glyph-name="glyph1897" 
 />
    <glyph glyph-name="glyph1898" 
 />
    <glyph glyph-name="glyph1899" 
 />
    <glyph glyph-name="glyph1900" 
 />
    <glyph glyph-name="glyph1901" 
 />
    <glyph glyph-name="glyph1902" 
 />
    <glyph glyph-name="glyph1903" 
 />
    <glyph glyph-name="glyph1904" 
 />
    <glyph glyph-name="glyph1905" 
 />
    <glyph glyph-name="glyph1906" 
 />
    <glyph glyph-name="glyph1907" 
 />
    <glyph glyph-name="glyph1908" 
 />
    <glyph glyph-name="glyph1909" 
 />
    <glyph glyph-name="glyph1910" 
 />
    <glyph glyph-name="glyph1911" 
 />
    <glyph glyph-name="glyph1912" 
 />
    <glyph glyph-name="glyph1913" 
 />
    <glyph glyph-name="glyph1914" 
 />
    <glyph glyph-name="glyph1915" 
 />
    <glyph glyph-name="glyph1916" 
 />
    <glyph glyph-name="glyph1917" 
 />
    <glyph glyph-name="glyph1918" 
 />
    <glyph glyph-name="glyph1919" 
 />
    <glyph glyph-name="glyph1920" 
 />
    <glyph glyph-name="glyph1921" 
 />
    <glyph glyph-name="glyph1922" 
 />
    <glyph glyph-name="glyph1923" 
 />
    <glyph glyph-name="glyph1924" 
 />
    <glyph glyph-name="glyph1925" 
 />
    <glyph glyph-name="glyph1926" 
 />
    <glyph glyph-name="glyph1927" 
 />
    <glyph glyph-name="glyph1928" 
 />
    <glyph glyph-name="glyph1929" 
 />
    <glyph glyph-name="glyph1930" 
 />
    <glyph glyph-name="glyph1931" 
 />
    <glyph glyph-name="glyph1932" 
 />
    <glyph glyph-name="glyph1933" 
 />
    <glyph glyph-name="glyph1934" 
 />
    <glyph glyph-name="glyph1935" 
 />
    <glyph glyph-name="glyph1936" 
 />
    <glyph glyph-name="glyph1937" 
 />
    <glyph glyph-name="glyph1938" 
 />
    <glyph glyph-name="uni3000" unicode="&#x3000;" 
 />
    <glyph glyph-name="uni3001" unicode="&#x3001;" 
d="M293 -96q30 15 17 49q-24 91 -87 159q-19 34 -49 15q-30 -15 -18 -49q60 -76 84 -160q19 -28 53 -14z" />
    <glyph glyph-name="uni3002" unicode="&#x3002;" 
d="M127 5q3 -115 122 -119q121 1 122 119q-1 123 -123 125q-121 -1 -121 -125zM196 5q1 57 52 57q54 0 55 -57q-1 -51 -54 -52q-53 1 -53 52z" />
    <glyph glyph-name="uni3003" unicode="&#x3003;" 
d="M716 560q-30 21 -51 -9q-162 -240 -210 -535q0 -34 36 -36q38 0 39 34q46 271 201 497q17 30 -15 49zM537 643q-31 21 -52 -9q-162 -242 -208 -534q-1 -36 35 -37q38 -1 39 33q45 272 201 497q18 30 -15 50z" />
    <glyph glyph-name="glyph1943" 
 />
    <glyph glyph-name="uni3005" unicode="&#x3005;" 
d="M787 628h-285q0 67 -43 122q-22 25 -56 0q-22 -20 -1 -52q40 -72 3 -178t-179 -251q-29 -30 -4 -53q26 -25 55 0q160 139 219 336h-2h234q-60 -162 -148 -308q-35 44 -71 73t-57 39q-31 16 -51 -18q-15 -28 13 -50q205 -143 253 -398q9 -34 48 -29q37 5 28 43
q-30 155 -115 280q122 180 190 394q9 23 0 36.5t-31 13.5z" />
    <glyph glyph-name="uni3006" unicode="&#x3006;" 
d="M889 778q-36 25 -60 -4l-301 -367q-114 74 -242 18.5t-151 -219t-8 -305.5q2 -25 26.5 -34t40.5 14l353 431q84 -52 163 -128q23 -19 51 4q22 27 0 53q-83 76 -166 128l296 358q22 26 -2 51zM199 6q0 89 16.5 196.5t103 150t162.5 -2.5z" />
    <glyph glyph-name="uni3007" unicode="&#x3007;" 
d="M90 304q0 -173 123 -295t299 -126q172 4 295 126t127 295q-4 175 -127 298t-295 123q-176 0 -299 -123t-123 -298zM166 304q0 146 99 245.5t247 99.5q144 0 243 -99.5t103 -245.5q-4 -144 -103 -243t-243 -103q-148 4 -247 103t-99 243z" />
    <glyph glyph-name="uni3008" unicode="&#x3008;" 
d="M925 -46q35 20 14 52l-242 364l238 361q24 36 -12 55q-27 16 -50 -13l-257 -386q-12 -18 0 -38l258 -382q18 -31 51 -13z" />
    <glyph glyph-name="uni3009" unicode="&#x3009;" 
d="M110 784q-35 -19 -14 -53l240 -363l-238 -361q-24 -35 12 -55q27 -16 50 13l257 385q12 18 0 37l-256 384q-18 31 -51 13z" />
    <glyph glyph-name="uni300A" unicode="&#x300a;" 
d="M931 -52q34 18 14 52l-241 363l237 362q23 31 -12 55q-29 20 -50 -13l-257 -385q-11 -17 0 -38l258 -383q23 -28 51 -13zM755 -52q36 19 14 52l-242 363l238 362q24 31 -12 55q-32 18 -50 -13l-257 -384q-12 -21 0 -38l258 -384q19 -29 51 -13z" />
    <glyph glyph-name="uni300B" unicode="&#x300b;" 
d="M110 784q-34 -17 -14 -53l240 -363l-238 -361q-23 -30 12 -55q29 -20 50 13l257 385q11 16 0 37l-256 384q-23 28 -51 13zM286 784q-36 -19 -14 -53l240 -363l-238 -361q-24 -31 12 -55q32 -18 50 13l257 384q12 19 0 37l-256 385q-19 29 -51 13z" />
    <glyph glyph-name="uni300C" unicode="&#x300c;" 
d="M590 859q-9 -10 -9 -28l15 -717q2 -37 41 -39q35 0 35 37l-15 680l219 -14q36 -3 39 33q0 40 -41 43l-255 15q-20 2 -29 -10z" />
    <glyph glyph-name="uni300D" unicode="&#x300d;" 
d="M377 -126q9 10 9 28l-13 718q-2 37 -41 39q-35 0 -35 -37l14 -681l-220 14q-36 3 -40 -33q0 -40 41 -43l256 -14q20 -2 29 9z" />
    <glyph glyph-name="uni300E" unicode="&#x300e;" 
d="M523 859q-9 -10 -9 -28l15 -782q2 -39 37 -39h130q40 0 37 36l-11 610l82 -6q18 -3 30 7.5t12 29.5v130q0 35 -39 37l-255 15q-18 0 -29 -10zM590 789l180 -10v-48l-86 6q-23 3 -33.5 -6t-8.5 -32l14 -614h-52z" />
    <glyph glyph-name="uni300F" unicode="&#x300f;" 
d="M547 -124q9 10 9 28l-19 782q-2 39 -37 39l-131 -1q-40 0 -37 -36l14 -611l-82 5q-18 3 -30 -7.5t-12 -29.5l1 -129q0 -35 39 -37l256 -13q18 0 29 10zM480 -55l-181 8v48l86 -5q24 -3 34.5 6t7.5 32l-17 615h52z" />
    <glyph glyph-name="uni3010" unicode="&#x3010;" 
d="M652 849q-38 0 -38 -38v-909q0 -38 37 -38h257q28 0 36 26q6 30 -23 46q-61 36 -135 137t-74 283t74 283.5t137 134.5q29 14 22 46q-11 29 -38 29h-255z" />
    <glyph glyph-name="uni3011" unicode="&#x3011;" 
d="M390 -137q38 0 38 38v909q0 38 -37 38h-258q-28 0 -36 -26q-6 -30 23 -46q61 -36 135.5 -137t74.5 -283.5t-74.5 -283.5t-137.5 -134q-29 -14 -22 -46q11 -29 38 -29h256z" />
    <glyph glyph-name="uni3012" unicode="&#x3012;" 
d="M184 679h655q39 0 39 37q0 39 -39 39h-655q-38 0 -38 -38q1 -38 38 -38zM839 459h-655q-38 0 -38 -37q0 -38 38 -38h290v-482q0 -37 39 -38q37 1 37 38v482h290q38 0 38 37q-1 38 -39 38z" />
    <glyph glyph-name="uni3013" unicode="&#x3013;" 
d="M256 563q-68 0 -68 -68q2 -68 67 -68h513q66 0 68 68q0 68 -68 68h-512zM256 228q-68 0 -68 -68q1 -68 67 -68h513q65 0 68 68q-1 68 -68 68h-512z" />
    <glyph glyph-name="uni3014" unicode="&#x3014;" 
d="M891 811l-239 -89q-24 -10 -24 -34v-684q0 -23 24 -33l240 -90q40 -12 48 19q9 41 -20 48l-216 84v628l217 85q35 15 19 48q-18 28 -49 18z" />
    <glyph glyph-name="uni3015" unicode="&#x3015;" 
d="M120 -121l240 89q24 10 24 34v684q0 23 -24 33l-241 90q-40 12 -48 -19q-9 -41 20 -48l217 -84v-629l-218 -84q-35 -15 -19 -48q18 -28 49 -18z" />
    <glyph glyph-name="glyph1961" 
 />
    <glyph glyph-name="glyph1962" 
 />
    <glyph glyph-name="glyph1963" 
 />
    <glyph glyph-name="glyph1964" 
 />
    <glyph glyph-name="glyph1965" 
 />
    <glyph glyph-name="glyph1966" 
 />
    <glyph glyph-name="glyph1967" 
 />
    <glyph glyph-name="uni301D" unicode="&#x301d;" 
d="M681 760l-60 -237q-6 -28 28 -44q35 -12 48 25l60 237q11 38 -27 48q-39 10 -49 -29zM828 760l-57 -238q-6 -31 29 -43q33 -10 44 26l60 237q9 37 -29 47q-37 9 -47 -29z" />
    <glyph glyph-name="glyph1969" 
 />
    <glyph glyph-name="uni301F" unicode="&#x301f;" 
d="M174 150l-61 -237q-4 -29 29 -43q35 -9 48 28l56 234q9 36 -29 46q-35 10 -43 -28zM320 150l-60 -237q-8 -31 30 -43q36 -10 46 29l57 232q9 37 -26 47q-38 10 -47 -28z" />
    <glyph glyph-name="glyph1971" 
 />
    <glyph glyph-name="glyph1972" 
 />
    <glyph glyph-name="glyph1973" 
 />
    <glyph glyph-name="glyph1974" 
 />
    <glyph glyph-name="glyph1975" 
 />
    <glyph glyph-name="glyph1976" 
 />
    <glyph glyph-name="glyph1977" 
 />
    <glyph glyph-name="glyph1978" 
 />
    <glyph glyph-name="glyph1979" 
 />
    <glyph glyph-name="uni3041" unicode="&#x3041;" 
d="M593 417q30 3 30 30q-4 30 -30 30l-208 -1l5 61q3 25 -27 30q-22 3 -30 -26l-5 -64h-119q-30 0 -30 -30q0 -26 30 -34l115 1q-28 -251 63 -414q-46 -60 -114 -45q-57 34 -40 111t47 122q13 24 -11 41q-26 15 -42 -11q-48 -71 -54 -174.5t77 -145.5q130 -39 206 83.5
t96 279.5q213 -68 112 -355q-9 -28 15 -38q27 -7 42 15q136 350 -158 441q9 49 -23 55q-32 3 -37 -43q-45 4 -71.5 -6t-26.5 -40q7 -34 33.5 -25t60.5 6q-12 -109 -76 -223q-64 227 -42 365z" />
    <glyph glyph-name="uni3042" unicode="&#x3042;" 
d="M849 362q-76 100 -201 103q2 10 4 29q10 42 -35 43q-36 2 -38 -33q-3 -19 -7 -35q-50 0 -86 -7q-42 -5 -34 -44q7 -36 47 -32q25 9 64 8q-29 -173 -95 -313q-76 243 -51 492h261q35 0 37 38q-1 38 -39 38h-252q6 38 14 78q6 40 -39 42q-32 3 -37 -38q-8 -41 -13 -82h-157
q-38 0 -38 -37q1 -39 37 -39h151q-32 -335 76 -562q-68 -63 -151 -33q-64 36 -62 112q13 120 81 191q17 33 -14 52q-34 19 -53 -15q-30 -36 -55 -98.5t-31 -142.5q3 -119 105 -171q162 -48 264.5 98t136.5 386q97 0 151 -76q93 -134 -30 -393q-20 -34 18 -56q24 -13 48 22
q146 304 23 475z" />
    <glyph glyph-name="uni3043" unicode="&#x3043;" 
d="M279 432q-57 -372 34 -545q35 -51 77 7q28 49 62 109q14 33 -15 52q-33 19 -52 -14q-21 -31 -31 -49q-18 74 -16.5 194.5t19.5 235.5q4 40 -36 43q-34 8 -42 -33zM680 454q-29 -12 -21 -48q64 -230 0 -468q-5 -33 28 -48q36 -5 48 29q72 261 -8 515q-12 28 -47 20z" />
    <glyph glyph-name="uni3044" unicode="&#x3044;" 
d="M203 627q-81 -510 44 -742q23 -53 68 5q42 66 95 148q14 34 -10 53q-32 19 -53 -10q-38 -54 -63 -97q-39 127 -35 291t26 341q4 35 -29 39q-35 6 -43 -28zM742 639q-32 -12 -20 -47q98 -320 4 -652q-9 -29 24 -48q34 -5 49 28q101 356 -9 700q-16 33 -48 19z" />
    <glyph glyph-name="uni3045" unicode="&#x3045;" 
d="M252 488q-10 -36 24 -49q228 -79 470 -75q33 -1 34 41q-1 33 -42 35q-224 -4 -433 70q-37 15 -53 -22zM515 335q-86 -7 -133 -74q-19 -24 4 -53q26 -22 53 5q29 42 82 46q41 4 72.5 -33t-11 -114t-187.5 -188q-29 -24 -5 -52q18 -27 52 -6q171 130 222.5 235.5t-11 171.5
t-138.5 62z" />
    <glyph glyph-name="uni3046" unicode="&#x3046;" 
d="M169 703q-11 -29 23 -47q311 -111 639 -107q33 -3 34 42q0 33 -38 34q-315 -3 -607 102q-35 12 -51 -24zM514 482q-105 -11 -171 -93q-24 -28 5 -56q30 -14 52 9q47 57 120 64q62 4 110.5 -56.5t-10 -168t-265.5 -260.5q-23 -23 -4 -52q23 -24 55 -9q233 174 293 313.5
t-13 226t-172 82.5z" />
    <glyph glyph-name="uni3047" unicode="&#x3047;" 
d="M407 544q-35 -8 -26 -48q11 -53 20 -84h-129q-36 0 -38 -39q0 -32 37 -37h286q-155 -201 -313 -418q-24 -28 4 -54q30 -16 53 10l164 219q19 -12 22 -112t97 -125q133 -11 207 106q14 38 -14 51q-36 18 -53 -17q-46 -71 -104.5 -75t-65.5 63.5t-15.5 114.5t-26.5 57
l154 198q19 23 6 41t-38 17h-152q-10 35 -29 103q-8 31 -46 29z" />
    <glyph glyph-name="uni3048" unicode="&#x3048;" 
d="M367 782q-39 -10 -29 -48q15 -71 32 -133h-189q-38 0 -38 -38q0 -33 37 -38h421q-223 -291 -454 -599q-21 -34 11 -55q24 -11 51 7q215 290 237 318q17 -9 22.5 -56t15.5 -147t124 -132q177 -25 272 139q18 36 -19 52q-32 14 -51 -18q-65 -111 -185 -105
q-64 21 -71.5 104.5t-20.5 145t-41 77.5l215 283q14 24 2 43t-31 19l-228 -1q-13 59 -35 153q-9 35 -48 29z" />
    <glyph glyph-name="uni3049" unicode="&#x3049;" 
d="M639 511q-67 -24 -146 -39l1 53q0 38 -38 38q-38 1 -38 -38v-64q-47 -9 -132 -3q-39 4 -43 -34q-3 -38 38 -42q95 -6 136 -1l1 -66q-58 -3 -86 -23q-86 -58 -101 -190q-4 -81 61 -128q46 -25 120 7q72 44 78 141q4 69 4 126q103 7 125 -30q-34 -11 -14 -54q24 -34 69 -6
q53 -105 -76 -236q-28 -32 1 -56q24 -19 52 0q155 160 85 331q67 55 76 160q1 39 -34 41q-38 0 -42 -33q-11 -78 -54 -100q-67 62 -188 58l-1 70q86 15 177 50q28 18 19 51q-20 34 -50 17zM323 41q-21 11 -16 62q13 95 111 132q0 -44 -4 -100q-16 -110 -91 -94z" />
    <glyph glyph-name="uni304A" unicode="&#x304a;" 
d="M677 723q-105 -37 -222 -61l-2 87q-4 38 -38 38q-38 0 -38 -38l2 -100q-113 -21 -193 -5q-40 0 -40 -39q0 -33 38 -38q80 -15 196 3l1 -123q-76 -7 -116 -34q-119 -76 -134 -235t80 -209q75 -25 129 3q114 69 118 220q-1 102 -1 187q180 -3 216 -61l-10 -6
q-33 -19 -14 -52q19 -29 52 -14l15 10q88 -147 -69 -327q-27 -33 1 -55q28 -21 56 2q179 209 77 423q24 12 67.5 88t56.5 127q4 35 -33 43q-35 6 -44 -32q-10 -37 -45.5 -96.5t-46.5 -66.5q-82 91 -279 93v127q127 30 247 69q29 19 20 52q-13 28 -47 20zM244 36
q-49 29 -38 143t103 168q22 18 71 22q-3 -71 -3 -174q-2 -77 -46 -123.5t-87 -35.5z" />
    <glyph glyph-name="uni304B" unicode="&#x304b;" 
d="M119 529q-1 -39 29 -43q42 -7 198 -13q-2 -216 -218 -551q-24 -22 0 -52q25 -19 54 0q238 359 250 606l87 6q56 9 67 -21q71 -106 44.5 -233.5t-61 -192t-69.5 -78.5q-47 -21 -103 69q-21 30 -53 10q-24 -20 -10 -51q64 -129 182 -102q60 20 110.5 102.5t80.5 237
t-61 286.5q-36 59 -133 50l-81 -6v129q-1 39 -50 35q-36 -5 -34 -42l-1 -126q-144 6 -186 10q-38 9 -42 -30zM721 743q-40 1 -38 -42q-3 -306 160 -586q24 -24 58 -5q19 28 1 51q-142 261 -142 544q-1 42 -39 38z" />
    <glyph glyph-name="uni304C" unicode="&#x304c;" 
d="M788 635q-40 -1 -30 -48l42 -158q10 -29 44 -28q34 14 28 47l-41 158q-5 34 -43 29zM874 654q-35 -11 -25 -48l46 -163q17 -30 47 -24q29 16 24 48l-45 163q-14 33 -47 24zM68 529q-1 -39 29 -43q42 -7 198 -13q-2 -216 -218 -551q-24 -22 0 -52q25 -19 54 0
q238 359 250 606l87 6q56 9 67 -21q71 -106 44.5 -233.5t-61 -192t-69.5 -78.5q-47 -21 -103 69q-21 30 -53 10q-24 -20 -10 -51q64 -129 182 -102q60 20 110.5 102.5t80.5 237t-61 286.5q-36 59 -133 50l-81 -6v129q-1 39 -50 35q-36 -5 -34 -42l-1 -126q-144 6 -186 10
q-38 9 -42 -30zM670 743q-40 1 -38 -42q-3 -306 160 -586q24 -24 58 -5q19 28 1 51q-142 261 -142 544q-1 42 -39 38z" />
    <glyph glyph-name="uni304D" unicode="&#x304d;" 
d="M776 548q38 4 34 39q-5 38 -42 38h-261q-17 47 -64 109q-23 33 -52 14q-28 -15 -14 -49q36 -46 46 -74h-186q-41 3 -38 -39q0 -33 37 -38h224q31 -54 43 -134h-235q-38 6 -39 -38q0 -33 37 -38h247q-5 -224 -150 -232l-70 124q-19 32 -52 11q-29 -15 -15 -49
q76 -132 181 -308q19 -32 54 -14q27 24 13 52l-67 107q176 11 186 309h195q32 6 37 37q4 38 -38 39h-206q-19 105 -35 134h230z" />
    <glyph glyph-name="uni304E" unicode="&#x304e;" 
d="M663 699q-31 -14 -20 -48l10 -26h-218q-17 47 -64 109q-23 33 -52 14q-28 -15 -14 -49q36 -46 46 -74h-186q-41 3 -38 -39q0 -33 37 -38h224q31 -54 43 -134h-235q-38 6 -39 -38q0 -33 37 -38h247q-5 -224 -150 -232l-70 124q-19 32 -52 11q-29 -15 -15 -49
q76 -132 181 -308q19 -32 54 -14q27 24 13 52l-67 107q176 11 186 309h195q32 6 37 37q4 38 -38 39h-206q-19 105 -35 134h209l25 -62q13 -29 51 -24q29 20 20 52l-65 166q-19 33 -51 19zM767 699q-36 -15 -19 -48l64 -165q15 -29 51 -24q37 15 20 52l-64 166q-19 33 -52 19
z" />
    <glyph glyph-name="uni304F" unicode="&#x304f;" 
d="M593 719q-75 -215 -268 -390q-15 -13 -18 -27.5t13 -29.5q49 -48 131.5 -147.5t183.5 -243.5q19 -28 52 -14q33 18 11 52q-133 199 -293 382q184 179 259 394q10 37 -25 48q-33 9 -46 -24z" />
    <glyph glyph-name="uni3050" unicode="&#x3050;" 
d="M613 639q-37 -13 -22 -51l67 -155q19 -30 48 -20q37 13 19 49l-64 158q-12 35 -48 19zM704 670q-37 -14 -23 -52l68 -154q12 -32 47 -19q30 15 20 47l-65 158q-14 31 -47 20zM477 719q-75 -215 -268 -390q-15 -13 -18 -27.5t13 -29.5q49 -48 131.5 -147.5t183.5 -243.5
q19 -28 52 -14q33 18 11 52q-133 199 -293 382q184 179 259 394q10 37 -25 48q-33 9 -46 -24z" />
    <glyph glyph-name="uni3051" unicode="&#x3051;" 
d="M194 623q-18 -310 18 -428.5t71.5 -123.5t59.5 27.5t43 64.5q10 32 -14 51q-33 15 -53 -13q-11 -15 -24 -35q-40 125 -36 252.5t11 199.5q4 33 -37 39q-33 3 -39 -34zM801 486q38 -2 42 34q6 37 -35 43q-63 8 -107 7l-28 164q-14 38 -47 28q-35 -9 -25 -47l24 -144
q-77 1 -190 -30q-37 -9 -30 -45q12 -36 49 -28q104 28 186 26q41 -246 -98 -569q-19 -28 14 -51q28 -14 52 14q153 351 110 605q32 1 83 -7z" />
    </font>
</defs>
</svg>
